<?xml version="1.0" encoding="UTF-8"?>
<svg width="24px" height="24px" viewBox="0 0 24 24" version="1.1" xmlns="http://www.w3.org/2000/svg" xmlns:xlink="http://www.w3.org/1999/xlink">
    <title>TEMPLATEiconCreateComponent</title>
    <g id="TEMPLATEiconCreateComponent" stroke="none" stroke-width="1" fill="none" fill-rule="evenodd">
        <g id="Group-5-Copy" transform="translate(3.377251, 3.377251)" fill-rule="nonzero">
            <path d="M7.39156969,7.51471441 L4.8062254,7.51471441 C4.67037402,7.51471441 4.56010745,7.62497659 4.56010745,7.76100383 L4.56010745,9.48449342 C4.56010745,9.62052066 4.67036963,9.73061137 4.8062254,9.73061137 L7.39156969,9.73061137 C7.45958332,9.73061137 7.51471441,9.78574246 7.51471441,9.85375608 L7.51471441,12.4391004 C7.51471441,12.5751276 7.62497659,12.6853898 7.76100383,12.6853898 L9.48449342,12.6853898 C9.62052066,12.6853898 9.73061137,12.5751276 9.73061137,12.4391004 L9.73061137,9.85375608 C9.73061137,9.78574246 9.78574246,9.73061137 9.85375608,9.73061137 L12.4391004,9.73061137 C12.5751276,9.73061137 12.6853898,9.62052066 12.6853898,9.48449342 L12.6853898,7.76100383 C12.6853898,7.62497659 12.5751276,7.51471441 12.4391004,7.51471441 L9.85375608,7.51471441 C9.78574246,7.51471441 9.73061137,7.45958332 9.73061137,7.39156969 L9.73061137,4.8062254 C9.73061137,4.67037402 9.62052066,4.56010745 9.48449342,4.56010745 L7.76100383,4.56010745 C7.62497659,4.56010745 7.51471441,4.67036963 7.51471441,4.8062254 L7.51471441,7.39156969 C7.51471441,7.45958332 7.45958332,7.51471441 7.39156969,7.51471441 Z" id="Path" fill="#6B7A86"></path>
            <circle id="Oval" stroke="#6B7A86" stroke-width="1.50411943" cx="8.62274863" cy="8.62274863" r="7.87068891"></circle>
        </g>
    </g>
</svg>