<svg class="iguana-wordmark" width="186px" height="61px" viewBox="0 0 270 94" version="1.1" xmlns="http://www.w3.org/2000/svg" xmlns:xlink="http://www.w3.org/1999/xlink">
 <g id="Page-1" stroke="none" stroke-width="1" fill="none" fill-rule="evenodd">
         <g id="Fleet-Manager---Log-In" transform="translate(-597.000000, -401.000000)">
            <g id="Modal---Log-In" transform="translate(420.000000, 342.000000)">
               <g id="Logo---Iguana" transform="translate(177.000000, 59.000000)">
                  <g id="Spike" transform="translate(207.000000, 0.000000)">
                     <path d="M40.9707594,15.2430091 C37.9343768,18.3620818 33.3172251,22.8705273 28.3255137,24.8318636 C25.6006596,25.9539636 22.5261862,26.6248182 19.4118081,27.0301818 C25.3657662,32.5899 29.2288103,40.2869091 29.7149217,48.8743818 C31.8838312,44.9722 33.3575833,41.6188182 36.2629153,36.1245818 C36.7884779,34.9272 37.3290048,33.7333818 37.8899375,32.5462455 C41.8364187,24.1819455 46.6281533,15.4742 51.8697224,9.52470909 C52.7530667,8.52199091 53.761113,7.65023636 54.7433121,6.75487273 C55.4629565,6.10673636 56.1721713,5.49423636 56.8578061,4.92182727 C60.8119961,1.63303636 62.1247691,0.522518182 62.4712142,0.227627273 C46.404143,7.41548182 43.0625804,13.0945818 40.9707594,15.2430091" id="Fill-6" fill="#34AA48"></path>
                     <path d="M28.3685926,18.1620727 L28.2783536,18.1620727 C34.5048425,7.79857273 44.1082641,1.30562727 44.1082641,1.30562727 C23.3582892,4.4688 13.2964174,17.9807727 13.2964174,17.9807727 L13.0288747,18.3139727 C17.9244522,10.0338636 24.7463369,4.66034545 24.7463369,4.66034545 C12.3355311,6.55219091 4.58178164,13.9302545 1.49687858,16.8319455 C0.797639936,17.4881 0.342363929,17.9776545 0.120167472,18.2262182 C7.56420225,19.0191273 14.2668264,22.2255091 19.4118081,27.0301818 C22.5261862,26.6248182 25.6006596,25.9539636 28.3255137,24.8318636 C33.3172251,22.8705273 37.9343768,18.3620818 40.9707594,15.2430091 C43.0625804,13.0945818 46.404143,7.41548182 62.4712142,0.227627273 C62.5478493,0.162145455 62.5777778,0.136309091 62.5777778,0.136309091 C39.0571491,3.37877273 28.3685926,18.1620727 28.3685926,18.1620727" id="Fill-8" fill="#7BBB42"></path>
                  </g>
                  <path d="M203,30 C191.971872,30 183,38.971532 183,49.9997806 C183,61.028468 191.971872,70 203,70 C206.329238,70 209.468033,69.1781032 212.232086,67.733092 L212.232086,58.4184082 C209.941946,60.927541 206.657028,62.5142888 203,62.5142888 C196.099741,62.5142888 190.486068,56.900554 190.486068,49.9997806 C190.486068,43.099446 196.099741,37.4857112 203,37.4857112 C209.89982,37.4857112 215.513932,43.099446 215.513932,49.9997806 C215.513932,50.0958806 215.502084,50.188909 215.49989,50.2841314 L215.513932,50.2841314 L215.513932,66.256925 C215.513932,68.3241731 217.190179,70 219.256966,70 C221.324191,70 223,68.3241731 223,66.256925 L223,49.9997806 C223,38.971532 214.028128,30 203,30" id="A" fill="#343534"></path>
                  <path d="M175.196256,70 C173.095256,70 171.392067,68.3243638 171.392067,66.2568095 L171.392067,46.9518825 C171.392067,43.2947121 168.841966,37.4927448 162.000669,37.4874783 C155.158479,37.4927448 152.608379,43.2947121 152.608379,46.9518825 L152.608379,66.2568095 C152.608379,68.3243638 150.90519,70 148.80419,70 C146.703189,70 145,68.3243638 145,66.2568095 L145,46.9518825 C145,38.6272444 151.350276,30.0173357 161.977478,30.0006583 C161.982384,29.9997806 161.985952,29.9997806 161.991749,30.0006583 C161.996209,30.0010972 162.002899,30.0010972 162.009143,30.0006583 C162.013602,30.0006583 162.017616,30.0006583 162.022968,30.0006583 C172.65017,30.0173357 179,38.6272444 179,46.9518825 L179,66.2568095 C179,68.3243638 177.297257,70 175.196256,70" id="N" fill="#343534"></path>
                  <path d="M117.999561,30 C106.971872,30 98,38.971532 98,49.9997806 C98,61.028468 106.971872,70 117.999561,70 C121.328799,70 124.467594,69.1781032 127.231647,67.733092 L127.231647,58.4184082 C124.941507,60.927541 121.656589,62.5142888 117.999561,62.5142888 C111.099302,62.5142888 105.485629,56.900554 105.485629,49.9997806 C105.485629,43.099446 111.099302,37.4857112 117.999561,37.4857112 C124.89982,37.4857112 130.513932,43.099446 130.513932,49.9997806 C130.513932,50.0958806 130.501646,50.188909 130.499451,50.2841314 L130.513932,50.2841314 L130.513932,66.256925 C130.513932,68.3241731 132.189741,70 134.256966,70 C136.323753,70 138,68.3241731 138,66.256925 L138,49.9997806 C138,38.971532 129.027689,30 117.999561,30" id="A" fill="#343534"></path>
                  <path d="M76.0086966,70 C76.0033448,70 75.9962092,70 75.9913034,70 C75.9863977,70 75.9823839,70 75.9774781,70 C65.3493842,69.9828835 59,61.372833 59,53.0480579 L59,33.743691 C59,31.6756638 60.7027428,30 62.8037436,30 C64.9047444,30 66.6079332,31.6756638 66.6079332,33.743691 L66.6079332,53.0480579 C66.6079332,56.7057275 69.1580335,62.5077902 75.999777,62.512618 C82.8415205,62.5077902 85.3916209,56.7057275 85.3916209,53.0480579 L85.3916209,33.743691 C85.3916209,31.6756638 87.0948096,30 89.1958104,30 C91.2968113,30 93,31.6756638 93,33.743691 L93,53.0480579 C93,61.372833 86.6501699,69.9828835 76.0220759,70 C76.0176161,70 76.0131563,70 76.0086966,70" id="U" fill="#343534"></path>
                  <path d="M32.9927769,63.8607672 C26.0865792,63.8607672 20.4682893,58.0095158 20.4682893,50.8185302 C20.4682893,43.6275446 26.0865792,37.7762931 32.9927769,37.7762931 C39.8994123,37.7762931 45.5177022,43.6275446 45.5177022,50.8185302 C45.5177022,58.0095158 39.8994123,63.8607672 32.9927769,63.8607672 Z M52.9750473,50.372256 C52.7452201,39.099161 43.8734528,30 32.9927769,30 C21.9689514,30 13,39.3393923 13,50.8185302 C13,62.2976681 21.9689514,71.6370604 32.9927769,71.6370604 C37.7381612,71.6370604 42.0996246,69.9034744 45.5317107,67.0170515 L45.5317107,71.1333495 C45.5317107,79.5724441 42.3001215,84.3524552 35.2660961,86.0573228 L35.2660961,94 C49.7272608,91.4194504 53,80.4905198 53,71.1333495 L53,50.6311771 C53,50.5422869 52.9803005,50.4593228 52.9750473,50.372256 Z" id="G" fill="#343534"></path>
                  <path d="M3.5,70 C1.56699883,70 0,68.3188616 0,66.2450615 L0,33.7549385 C0,31.6811384 1.56699883,30 3.5,30 C5.43300117,30 7,31.6811384 7,33.7549385 L7,66.2450615 C7,68.3188616 5.43300117,70 3.5,70" id="I" fill="#343534"></path>
               </g>
            </g>
         </g>
      </g>
 </svg>
