<svg xmlns="http://www.w3.org/2000/svg">
	<symbol id="SETiconSettings" viewBox="0 0 512 403">
		<path d="M125 204.1v-16.3c8.5-2 16.6-5.4 24.2-10l11.5 11.5c1.6 1.6 4.1 1.6 5.6 0l23.2-23.2c.8-.8 1.2-1.8 1.2-2.8 0-1.1-.4-2.1-1.2-2.8L178 149c4.6-7.5 8-15.6 10.1-24.2h16.3c2.2 0 4-1.8 4-4V88c0-2.2-1.8-4-4-4h-16.3c-2.1-8.6-5.5-16.7-10.1-24.2l11.5-11.5c.8-.8 1.2-1.8 1.2-2.8 0-1-.4-2.1-1.2-2.8l-23.2-23.2c-1.6-1.6-4.1-1.6-5.6 0L149.2 31c-7.6-4.6-15.7-8-24.2-10V4.5c0-2.2-1.8-4-4-4H88.2c-2.2 0-4 1.8-4 4v16.3c-8.6 2.1-16.7 5.4-24.2 10L48.4 19.3c-1.6-1.6-4.1-1.6-5.7 0L19.5 42.5c-.8.8-1.2 1.8-1.2 2.8 0 1.1.4 2.1 1.2 2.8L31 59.6c-4.6 7.5-8 15.7-10.1 24.2H4.7c-2.2 0-4 1.8-4 4v32.8c0 2.2 1.8 4 4 4H21c2.1 8.6 5.5 16.7 10.1 24.2l-11.5 11.5c-.8.8-1.2 1.8-1.2 2.8 0 1 .4 2.1 1.2 2.8l23.2 23.2c1.6 1.6 4.1 1.6 5.7 0L60 177.6c7.6 4.6 15.7 8 24.2 10v16.3c0 2.2 1.8 4 4 4H121c2.2.2 4-1.6 4-3.8zm-8-19.5v15.5H92.2v-15.5c0-1.9-1.3-3.6-3.2-3.9-9.7-1.9-18.9-5.7-27.4-11.3-1.6-1-3.7-.8-5 .5l-11 10.9L28 163.3l11-10.9c1.4-1.3 1.6-3.5.5-5.1-5.5-8.3-9.4-17.5-11.4-27.4-.4-1.9-2-3.2-3.9-3.2H8.7V91.9h15.5c1.9 0 3.5-1.3 3.9-3.2 2-9.8 5.8-19 11.4-27.4 1.1-1.6.8-3.7-.5-5.1L28 45.3l17.6-17.5 11 10.9c1.3 1.3 3.4 1.6 5 .5C70 33.7 79.2 29.9 89 27.9c1.9-.4 3.2-2 3.2-3.9V8.5H117V24c0 1.9 1.3 3.6 3.2 3.9 9.7 1.9 18.9 5.7 27.4 11.3 1.6 1 3.7.8 5-.5l11-10.9 17.6 17.5-11 10.9c-1.4 1.3-1.6 3.5-.5 5 5.5 8.3 9.4 17.6 11.4 27.4.4 1.9 2 3.2 3.9 3.2h15.5v24.8H185c-1.9 0-3.5 1.3-3.9 3.2-2 9.9-5.9 19.1-11.4 27.4-1.1 1.6-.8 3.7.5 5l11 10.9-17.6 17.5-11-10.9c-1.3-1.3-3.4-1.6-5-.5-8.5 5.6-17.7 9.4-27.4 11.3-1.9.5-3.2 2.2-3.2 4.1z"/>
		<path d="M104.6 51.6c-29.1 0-52.7 23.6-52.7 52.7S75.5 157 104.6 157s52.8-23.6 52.8-52.7c-.1-29.1-23.7-52.7-52.8-52.7zm0 97.4c-24.7 0-44.7-20-44.7-44.7 0-24.7 20.1-44.7 44.7-44.7 24.7 0 44.8 20 44.8 44.7-.1 24.6-20.2 44.7-44.8 44.7zm379.7-60.2h-11c-1.5-5.8-3.8-11.3-6.8-16.4l7.8-7.8c.8-.8 1.2-1.8 1.2-2.8 0-1.1-.4-2.1-1.2-2.8l-16.9-16.9c-1.6-1.6-4.1-1.6-5.7 0l-7.8 7.8c-5.2-3.1-10.7-5.3-16.5-6.8V32c0-2.2-1.8-4-4-4h-23.9c-2.2 0-4 1.8-4 4v11c-5.8 1.5-11.3 3.8-16.4 6.8l-7.8-7.8c-1.6-1.6-4.1-1.6-5.7 0l-16.9 17c-.8.8-1.2 1.8-1.2 2.8 0 1.1.4 2.1 1.2 2.8l7.8 7.8c-3 5.2-5.3 10.6-6.8 16.4h-11c-2.2 0-4 1.8-4 4v23.9c0 2.2 1.8 4 4 4h11c1.5 5.8 3.8 11.3 6.8 16.4l-7.8 7.8c-.8.8-1.2 1.8-1.2 2.8 0 1 .4 2.1 1.2 2.8l16.9 16.9c1.6 1.6 4.1 1.6 5.6 0l7.8-7.8c5.1 3 10.6 5.3 16.4 6.8v11c0 2.2 1.8 4 4 4h23.9c2.2 0 4-1.8 4-4v-11c5.8-1.5 11.3-3.8 16.4-6.8l7.8 7.8c1.6 1.6 4.1 1.6 5.6 0l16.9-16.9c.8-.8 1.2-1.8 1.2-2.8 0-1-.4-2.1-1.2-2.8l-7.8-7.8c3-5.1 5.3-10.6 6.8-16.4h11c2.2 0 4-1.8 4-4V92.8c.3-2.2-1.5-4-3.7-4zm-4.1 24H470c-1.9 0-3.5 1.3-3.9 3.2-1.4 7-4.2 13.6-8.1 19.6-1.1 1.6-.9 3.7.5 5l7.2 7.2-11.2 11.2-7.2-7.2c-1.3-1.3-3.4-1.5-5-.5-6 3.9-12.6 6.7-19.6 8.1-1.9.4-3.2 2-3.2 3.9v10.2h-15.9v-10.2c0-1.9-1.3-3.5-3.2-3.9-7-1.4-13.6-4.2-19.6-8.1-1.6-1-3.7-.8-5 .5l-7.2 7.2-11.3-11.2 7.2-7.2c1.3-1.3 1.6-3.5.5-5-4-5.9-6.7-12.5-8.1-19.6-.4-1.9-2-3.2-3.9-3.2h-10.2V96.9H353c1.9 0 3.5-1.3 3.9-3.2 1.4-7 4.2-13.6 8.1-19.6 1-1.6.8-3.7-.5-5l-7.2-7.2 11.3-11.2 7.2 7.2c1.4 1.3 3.5 1.6 5 .5 5.9-4 12.5-6.7 19.6-8.1 1.9-.4 3.2-2 3.2-3.9V36h15.9v10.2c0 1.9 1.3 3.5 3.2 3.9 7 1.4 13.6 4.2 19.6 8.1 1.6 1 3.7.8 5-.5l7.2-7.2 11.2 11.2-7.2 7.2c-1.3 1.3-1.6 3.4-.5 5 4 6 6.7 12.6 8.1 19.6.4 1.9 2 3.2 3.9 3.2h10.2v16.1z"/>
		<path d="M411.4 65.3c-21.8 0-39.5 17.7-39.5 39.5s17.7 39.5 39.5 39.5 39.5-17.7 39.5-39.5c.1-21.8-17.7-39.5-39.5-39.5zm0 71c-17.4 0-31.5-14.1-31.5-31.5s14.1-31.5 31.5-31.5 31.5 14.1 31.5 31.5c.1 17.4-14.1 31.5-31.5 31.5zM311.3 309.7h-11c-1.5-5.8-3.8-11.3-6.8-16.4l7.8-7.8c.8-.8 1.2-1.8 1.2-2.8 0-1.1-.4-2.1-1.2-2.8L284.4 263c-1.6-1.6-4.1-1.6-5.6 0l-7.8 7.8c-5.1-3-10.6-5.3-16.4-6.8v-11c0-2.2-1.8-4-4-4h-23.9c-2.2 0-4 1.8-4 4v11c-5.8 1.5-11.3 3.8-16.4 6.8l-7.8-7.8c-1.6-1.6-4.1-1.6-5.6 0L176 279.9c-1.6 1.6-1.6 4.1 0 5.7l7.8 7.8c-3 5.1-5.3 10.6-6.8 16.4h-11.1c-2.2 0-4 1.8-4 4v23.9c0 2.2 1.8 4 4 4H177c1.5 5.7 3.8 11.2 6.8 16.4l-7.8 7.8c-1.6 1.6-1.6 4.1 0 5.7l16.9 16.9c1.6 1.6 4.1 1.6 5.7 0l7.8-7.8c5.1 3 10.7 5.3 16.4 6.8v11c0 2.2 1.8 4 4 4h23.9c2.2 0 4-1.8 4-4v-11c5.8-1.5 11.3-3.8 16.4-6.8l7.8 7.8c1.6 1.6 4.1 1.6 5.7 0l16.9-16.9c.8-.8 1.2-1.8 1.2-2.8 0-1.1-.4-2.1-1.2-2.8l-7.8-7.8c3.1-5.2 5.3-10.7 6.8-16.4h11c2.2 0 4-1.8 4-4v-23.9c-.2-2.4-2-4.2-4.2-4.2zm-4 23.9H297c-1.9 0-3.5 1.3-3.9 3.2-1.4 6.9-4.1 13.5-8.1 19.6-1 1.6-.8 3.7.5 5l7.2 7.2-11.3 11.2-7.2-7.2c-1.3-1.3-3.5-1.6-5-.5-5.9 4-12.5 6.7-19.6 8.1-1.9.4-3.2 2-3.2 3.9v10.2h-15.9v-10.2c0-1.9-1.3-3.5-3.2-3.9-7-1.4-13.6-4.2-19.6-8.1-1.6-1.1-3.7-.8-5 .5l-7.2 7.2-11.2-11.2 7.2-7.2c1.3-1.3 1.6-3.4.5-5-4-6.1-6.7-12.7-8.1-19.6-.4-1.9-2-3.2-3.9-3.2h-10.2v-15.9H180c1.9 0 3.5-1.3 3.9-3.2 1.4-7 4.2-13.6 8.1-19.6 1.1-1.6.8-3.7-.5-5l-7.2-7.2 11.2-11.2 7.2 7.2c1.3 1.3 3.4 1.5 5 .5 6-3.9 12.6-6.7 19.6-8.1 1.9-.4 3.2-2 3.2-3.9V257h15.9v10.2c0 1.9 1.3 3.5 3.2 3.9 7 1.4 13.6 4.2 19.6 8.1 1.6 1 3.7.8 5-.5l7.2-7.2 11.3 11.2-7.2 7.2c-1.4 1.4-1.6 3.5-.5 5 4 6 6.7 12.5 8.1 19.6.4 1.9 2 3.2 3.9 3.2h10.2l.1 15.9z"/>
		<path d="M238.4 286.2c-21.8 0-39.5 17.7-39.5 39.5s17.7 39.5 39.5 39.5 39.5-17.7 39.5-39.5c.1-21.8-17.7-39.5-39.5-39.5zm0 71c-17.4 0-31.5-14.1-31.5-31.5s14.1-31.5 31.5-31.5 31.5 14.1 31.5 31.5c.1 17.3-14.1 31.5-31.5 31.5zm77-263.4h-88.6c-2.2 0-4 1.8-4 4s1.8 4 4 4h88.6c2.2 0 4-1.8 4-4s-1.8-4-4-4zm91.7 101.7c-2.2 0-4 1.8-4 4v125.2h-70.5c-2.2 0-4 1.8-4 4s1.8 4 4 4h74.5c2.2 0 4-1.8 4-4V199.5c0-2.2-1.8-4-4-4zM145.4 322.7h-37.8v-97.8c0-2.2-1.8-4-4-4s-4 1.8-4 4v101.8c0 2.2 1.8 4 4 4h41.8c2.2 0 4-1.8 4-4s-1.7-4-4-4z"/>
	</symbol>
</svg>