<svg xmlns="http://www.w3.org/2000/svg">
   <symbol id="SETpasswordIcon" viewBox="0 0 16 16">
   <path fill-rule="evenodd"
         d="M12.5,0 C13.8248,0 14.909984,1.032192 14.994679,2.33570304 L15,2.5 L15,3 C15.5107143,3 15.9352041,3.3880102 15.9932398,3.88380102 L16,4 L16,8 C16,8.51071429 15.6119898,8.93520408 15.116199,8.9932398 L15,9 L14,9 L14,12 C14,13.1045695 13.1045695,14 12,14 L2,14 C0.8954305,14 0,13.1045695 0,12 L0,8 C0,6.8954305 0.8954305,6 2,6 L9,6 L9,4 C9,3.48928571 9.3880102,3.06479592 9.88380102,3.0067602 L10,3 L10,2.5 C10,1.12 11.12,0 12.5,0 Z M12.5384615,7 L1.46153846,7 C1.2349601,7 1.04651535,7.21225019 1.007436,7.49214924 L1,7.6 L1,12.4 C1,12.6945519 1.16326938,12.93953 1.37857634,12.9903332 L1.46153846,13 L12.5384615,13 C12.7650399,13 12.9534846,12.7877498 12.992564,12.5078508 L13,12.4 L13,7.6 C13,7.30544813 12.8367306,7.06046996 12.6214237,7.0096668 L12.5384615,7 Z M4,9 C4.55228475,9 5,9.44771525 5,10 C5,10.5522847 4.55228475,11 4,11 C3.44771525,11 3,10.5522847 3,10 C3,9.44771525 3.44771525,9 4,9 Z M7,9 C7.55228475,9 8,9.44771525 8,10 C8,10.5522847 7.55228475,11 7,11 C6.44771525,11 6,10.5522847 6,10 C6,9.44771525 6.44771525,9 7,9 Z M10,9 C10.5522847,9 11,9.44771525 11,10 C11,10.5522847 10.5522847,11 10,11 C9.44771525,11 9,10.5522847 9,10 C9,9.44771525 9.44771525,9 10,9 Z M12.5,0.8 C11.6094737,0.8 10.8804986,1.48210526 10.8062312,2.35315935 L10.8,2.5 L10.8,3 L14.2,3 L14.2,2.5 C14.2,1.56 13.44,0.8 12.5,0.8 Z"/>
   </symbol>
</svg>