<?xml version="1.0" encoding="UTF-8"?>
<svg width="16px" height="16px" viewBox="0 0 16 16" version="1.1" xmlns="http://www.w3.org/2000/svg" xmlns:xlink="http://www.w3.org/1999/xlink">
    <title>EDIiconSegmentRepeating</title>
    <g id="EDIiconSegmentRepeating" stroke="none" stroke-width="1" fill="none" fill-rule="evenodd">
        <path d="M14.8934002,2.5 C15.4456849,2.5 15.8934002,2.94771525 15.8934002,3.5 C15.8934002,3.66661403 15.8517697,3.83058758 15.7722909,3.97702311 L13.7040536,7.78764499 C13.6229602,7.93705541 13.6233372,8.117433 13.7050545,8.26650311 L15.7622672,12.0193069 C16.0277467,12.5035992 15.8503638,13.1114094 15.3660715,13.3768889 C15.2187283,13.4576595 15.0534078,13.5 14.8853783,13.5 L4.04554757,13.5 C3.31505326,13.5 2.64266783,13.1017336 2.29162244,12.4611174 L0.123037435,8.50370718 C-0.0403510345,8.20554262 -0.0410502025,7.84478826 0.121181315,7.54599263 L2.29315227,3.54568828 C2.64303781,2.90127421 3.31751659,2.5 4.05078965,2.5 L14.8934002,2.5 Z" id="Path" fill="#B6E87B" fill-rule="nonzero"></path>
        <path d="M14.8934002,2.5 C15.4456849,2.5 15.8934002,2.94771525 15.8934002,3.5 C15.8934002,3.66661403 15.8517697,3.83058758 15.7722909,3.97702311 L13.7040536,7.78764499 C13.6229602,7.93705541 13.6233372,8.117433 13.7050545,8.26650311 L15.7622672,12.0193069 C16.0277467,12.5035992 15.8503638,13.1114094 15.3660715,13.3768889 C15.2187283,13.4576595 15.0534078,13.5 14.8853783,13.5 L4.04554757,13.5 C3.31505326,13.5 2.64266783,13.1017336 2.29162244,12.4611174 L0.123037435,8.50370718 C-0.0403510345,8.20554262 -0.0410502025,7.84478826 0.121181315,7.54599263 L2.29315227,3.54568828 C2.64303781,2.90127421 3.31751659,2.5 4.05078965,2.5 L14.8934002,2.5 Z M14.8934002,3.5 L4.05078965,3.5 C3.72489051,3.5 3.42221874,3.65852808 3.2361139,3.92005284 L3.17197096,4.02284414 L1,8.02314849 L3.16858501,11.9805587 C3.32460518,12.265277 3.6075745,12.4542522 3.92505515,12.4927316 L4.04554757,12.5 L14.8853783,12.5 L12.8281656,8.74719624 C12.6102529,8.34967596 12.5851466,7.87794534 12.7531212,7.46321683 L12.8251628,7.31062189 L14.8934002,3.5 Z" id="Rectangle" fill="#5CB533" fill-rule="nonzero"></path>
        <path d="M6.17961165,9.4 C6.38349515,8.95606936 6.55825243,8.72023121 7.00970874,8.72023121 C7.53398058,8.72023121 8.29126214,9.26127168 9.19417476,9.26127168 C10.2135922,9.26127168 10.6650485,8.51213873 11,7.34682081 L9.82038835,7 C9.61650485,7.44393064 9.44174757,7.67976879 8.99029126,7.67976879 C8.46601942,7.67976879 7.70873786,7.13872832 6.80582524,7.13872832 C5.78640777,7.13872832 5.33495146,7.88786127 5,9.05317919 L6.17961165,9.4 Z" id="~-copy" fill="#207900" fill-rule="nonzero"></path>
    </g>
</svg>