<?xml version="1.0" encoding="UTF-8"?>
<svg width="16px" height="16px" viewBox="0 0 16 16" version="1.1" xmlns="http://www.w3.org/2000/svg" xmlns:xlink="http://www.w3.org/1999/xlink">
    <title>EDIiconFolderRepeating</title>
    <g id="EDIiconFolderRepeating" stroke="none" stroke-width="1" fill="none" fill-rule="evenodd">
        <g id="folder-closed" transform="translate(0.000000, 2.000000)" fill="#FFED9E" fill-rule="nonzero">
            <path d="M7.32713888,0.45683805 L8.00196857,1.5 L15,1.5 C15.5522847,1.5 16,1.94771525 16,2.5 L16,11 C16,11.5522847 15.5522847,12 15,12 L1,12 C0.44771525,12 0,11.5522847 0,11 L0,1 C0,0.44771525 0.44771525,0 1,0 L6.48751093,0 C6.82675911,0 7.14287218,0.1719958 7.32713888,0.45683805 Z" id="Path"></path>
        </g>
        <path d="M6.10818848,9.52704345 C6.31207197,9.08311282 6.48682925,8.84727467 6.93828556,8.84727467 C7.46255741,8.84727467 8.21983896,9.38831513 9.12275158,9.38831513 C10.1421691,9.38831513 10.5936254,8.63918218 10.9285768,7.47386426 L9.74896517,7.12704345 C9.54508168,7.57097409 9.3703244,7.80681224 8.91886809,7.80681224 C8.39459624,7.80681224 7.63731469,7.26577178 6.73440207,7.26577178 C5.71498459,7.26577178 5.26352828,8.01490472 4.92857683,9.18022264 L6.10818848,9.52704345 Z" id="~" fill="#9C6F19" fill-rule="nonzero"></path>
        <path d="M7.32713888,2.45683805 L8.00196857,3.5 L15,3.5 C15.5522847,3.5 16,3.94771525 16,4.5 L16,13 C16,13.5522847 15.5522847,14 15,14 L1,14 C0.44771525,14 0,13.5522847 0,13 L0,3 C0,2.44771525 0.44771525,2 1,2 L6.48751093,2 C6.82675911,2 7.14287218,2.1719958 7.32713888,2.45683805 Z M7.06343996,4.0433808 L6.38808282,3 L1,3 L1,13 L15,13 L15,4.5 L7.9029263,4.5 C7.56377063,4.5 7.24773064,4.32809735 7.06343996,4.0433808 Z" id="Shape" fill="#D2AB34" fill-rule="nonzero"></path>
    </g>
</svg>