<?xml version="1.0" encoding="UTF-8"?>
<svg width="16px" height="16px" viewBox="0 0 16 16" version="1.1" xmlns="http://www.w3.org/2000/svg" xmlns:xlink="http://www.w3.org/1999/xlink">
    <title>EDIiconComposite</title>
    <g id="EDIiconComposite" stroke="none" stroke-width="1" fill="none" fill-rule="evenodd">
        <path d="M15,2.412 C15.5522847,2.412 16,2.85971525 16,3.412 C16,3.57861403 15.9583695,3.74258758 15.8788908,3.88902311 L13.8106534,7.69964499 C13.72956,7.84905541 13.729937,8.029433 13.8116543,8.17850311 L15.868867,11.9313069 C16.1343465,12.4155992 15.9569636,13.0234094 15.4726713,13.2888889 C15.3253281,13.3696595 15.1600076,13.412 14.9919782,13.412 L4.1521474,13.412 C3.42165309,13.412 2.74926766,13.0137336 2.39822227,12.3731174 L0.229637266,8.41570718 C0.0662487964,8.11754262 0.0655496284,7.75678826 0.227781146,7.45799263 L2.39975211,3.45768828 C2.74963764,2.81327421 3.42411642,2.412 4.15738948,2.412 L15,2.412 Z" id="Path" fill="#ABE1FF" fill-rule="nonzero"></path>
        <path d="M15,2.5 C15.5522847,2.5 16,2.94771525 16,3.5 C16,3.66661403 15.9583695,3.83058758 15.8788908,3.97702311 L13.8106534,7.78764499 C13.72956,7.93705541 13.729937,8.117433 13.8116543,8.26650311 L15.868867,12.0193069 C16.1343465,12.5035992 15.9569636,13.1114094 15.4726713,13.3768889 C15.3253281,13.4576595 15.1600076,13.5 14.9919782,13.5 L4.1521474,13.5 C3.42165309,13.5 2.74926766,13.1017336 2.39822227,12.4611174 L0.229637266,8.50370718 C0.0662487964,8.20554262 0.0655496284,7.84478826 0.227781146,7.54599263 L2.39975211,3.54568828 C2.74963764,2.90127421 3.42411642,2.5 4.15738948,2.5 L15,2.5 Z M15,3.5 L4.15738948,3.5 C3.83149034,3.5 3.52881858,3.65852808 3.34271373,3.92005284 L3.27857079,4.02284414 L1.10659983,8.02314849 L3.27518484,11.9805587 C3.43120501,12.265277 3.71417434,12.4542522 4.03165499,12.4927316 L4.1521474,12.5 L14.9919782,12.5 L12.9347654,8.74719624 C12.7168527,8.34967596 12.6917465,7.87794534 12.859721,7.46321683 L12.9317626,7.31062189 L15,3.5 Z" id="Rectangle-Copy" fill="#34A4E4" fill-rule="nonzero"></path>
        <path d="M8.47679018,10.824 C9.71679018,10.824 10.4287902,10.288 10.9567902,9.56 L9.78879018,8.728 C9.45279018,9.136 9.10879018,9.408 8.52479018,9.408 C7.74079018,9.408 7.18879018,8.752 7.18879018,7.912 L7.18879018,7.896 C7.18879018,7.08 7.74079018,6.416 8.52479018,6.416 C9.06079018,6.416 9.42879018,6.672 9.74879018,7.072 L10.9167902,6.168 C10.4207902,5.48 9.68479018,5 8.54079018,5 C6.84479018,5 5.58879018,6.28 5.58879018,7.912 L5.58879018,7.928 C5.58879018,9.6 6.87679018,10.824 8.47679018,10.824 Z" id="C" fill="#00609F" fill-rule="nonzero"></path>
    </g>
</svg>