<svg xmlns="http://www.w3.org/2000/svg" width="16" height="16" viewBox="0 0 16 16">
  <g fill="none" fill-rule="evenodd">
    <rect width="14" height="10" x="1" y="4" fill="#B3DDF5" fill-opacity=".5" rx="2"/>
    <path fill="#2590CD" d="M4,8 C4.55,8 5,8.45 5,9 C5,9.55 4.55,10 4,10 C3.45,10 3,9.55 3,9 C3,8.45 3.45,8 4,8 Z M12,8 C12.55,8 13,8.45 13,9 C13,9.55 12.55,10 12,10 C11.45,10 11,9.55 11,9 C11,8.45 11.45,8 12,8 Z M8,8 C8.55,8 9,8.45 9,9 C9,9.55 8.55,10 8,10 C7.45,10 7,9.55 7,9 C7,8.45 7.45,8 8,8 Z"/>
  </g>
</svg>
