<svg xmlns="http://www.w3.org/2000/svg" width="16" height="16" viewBox="0 0 16 16">
  <path fill="#2590CD" fill-rule="evenodd" d="M12.2363977,3.7625 C11.1482176,2.675 9.65478424,2 7.99624765,2 C4.67917448,2 2,4.685 2,8 C2,11.315 4.67917448,14 7.99624765,14 C10.7954972,14 13.1294559,12.0875 13.7973734,9.5 L12.2363977,9.5 C11.6210131,11.2475 9.95497186,12.5 7.99624765,12.5 C5.51219512,12.5 3.4934334,10.4825 3.4934334,8 C3.4934334,5.5175 5.51219512,3.5 7.99624765,3.5 C9.24202627,3.5 10.3527205,4.0175 11.163227,4.835 L8.7467167,7.25 L14,7.25 L14,2 L12.2363977,3.7625 L12.2363977,3.7625 Z"/>
</svg>
