<?xml version="1.0" encoding="UTF-8"?>
<svg width="24px" height="24px" viewBox="0 0 24 24" version="1.1" xmlns="http://www.w3.org/2000/svg" xmlns:xlink="http://www.w3.org/1999/xlink">
    <title>TEMPLATEiconImportComponent</title>
    <g id="TEMPLATEiconImportComponent" stroke="none" stroke-width="1" fill="none" fill-rule="evenodd">
        <g id="Group-4-Copy" transform="translate(-0.000000, 4.573410)">
            <path d="M9.89078537,0.79498641 C11.1735534,0.653493999 12.4121746,0.865441214 13.5152409,1.38529698 C14.6298495,1.91059243 15.6048052,2.74919301 16.3511964,3.84695503 C18.5877202,4.17615774 19.972125,4.66259213 20.9641499,5.53452045 C21.9339906,6.38695029 22.5154349,7.6038322 22.5798426,9.04597177 C22.6425706,10.4505003 22.1048685,11.6834094 21.2141819,12.5777514 C20.2728118,13.5229848 18.9422163,14.0920439 17.5143325,14.1011197 L17.5143325,14.1011197 L4.74169762,14.0999497 C3.69027124,14.0989536 2.7293428,13.689922 2.01411879,13.0186579 C1.29865917,12.3471728 0.829052747,11.4133009 0.760487997,10.3628454 C0.694545306,9.35256156 1.02359848,8.45890673 1.62107192,7.77970992 C2.25929728,7.05418705 3.19486444,6.57438443 4.2647462,6.43283582 C4.45039524,6.40827389 4.6347878,6.39459815 4.81696494,6.39141304 C4.8383925,6.20488133 4.86736842,6.01844066 4.90397503,5.83267954 C5.16772289,4.4942845 5.81135467,3.27353446 6.72287787,2.36240107 C7.57494266,1.51070065 8.66298973,0.930415235 9.89078537,0.79498641 Z" id="Path-Copy-8" stroke="#6B7A86" stroke-width="1.50411943" fill-rule="nonzero"></path>
            <path d="M15.8071068,7.88341275 C14.299294,7.58752879 12.0675163,8.63404848 10.8989338,9.80240979 L12.4180911,11.3215671 L7.53077435,11.3214436 L7.52978684,6.4331789 L9.04894411,7.95233618 C11.0529778,5.94817608 13.9094005,6.28863871 15.8070041,7.88333356 L15.8071068,7.88341275 Z" id="Path" fill="#6B7A86" transform="translate(11.668447, 8.877373) scale(-1, 1) translate(-11.668447, -8.877373) "></path>
        </g>
    </g>
</svg>