<?xml version="1.0" encoding="UTF-8"?>
<svg width="16px" height="16px" viewBox="0 0 16 16" version="1.1" xmlns="http://www.w3.org/2000/svg" xmlns:xlink="http://www.w3.org/1999/xlink">
    <title>HLPicon</title>
    <g id="HLPicon" stroke="none" stroke-width="1" fill="none" fill-rule="evenodd">
        <g id="message" transform="translate(2.500000, 1.500000)" fill="#E5F3FA" fill-rule="nonzero" stroke="#2590CD">
            <rect id="Rectangle" x="0" y="0" width="11" height="13"></rect>
        </g>
        <g id="Group" transform="translate(6.000000, 4.000000)" fill="#00609F" fill-rule="nonzero">
            <path d="M1.80842138,5.17146313 C2.16959753,5.16103494 2.54526355,5.37685358 2.49998567,5.83443158 C2.50268093,6.25172634 2.26279906,6.5 1.84308763,6.5 C1.4233762,6.5 1.1436241,6.26077979 1.14222032,5.91113062 C1.14222032,5.42625993 1.36472195,5.18441654 1.80842138,5.17146313 Z M2.10159744,0 C2.33859609,0.024121661 2.57393399,0.0619349357 2.80636679,0.113077686 C3.51653712,0.309398432 3.93895618,0.863168256 3.99220468,1.59895901 C4.04453002,2.07883869 3.83076513,2.54945599 3.43131097,2.83392027 L3.43264337,2.83399966 L3.14399005,3.0416941 L3.14399005,3.0416941 L2.85435705,3.247327 C2.57338676,3.42696385 2.41195196,3.73909225 2.43072456,4.06633992 C2.43537155,4.18240989 2.4002411,4.29657631 2.33062785,4.39087155 C2.26110739,4.48508787 2.16119626,4.55391272 2.04696895,4.58628695 C1.92530874,4.63199067 1.79148084,4.63697703 1.66656814,4.60052363 C1.54165544,4.5640707 1.43272919,4.48817255 1.35678464,4.38479599 C1.30696708,4.30336594 1.2799217,4.2106005 1.27815626,4.1157458 C1.25863871,3.51926223 1.54237637,2.95195864 2.03626928,2.59994164 C2.25012696,2.44116256 2.45190737,2.26733154 2.63982366,2.07999461 C2.72941818,1.97698251 2.78397529,1.84930554 2.79577895,1.71465277 C2.82645037,1.34675739 2.58396746,1.11018358 2.19353318,1.08543747 C1.76902986,1.05850482 1.40496431,1.15269386 1.1353154,1.46842229 L1.04897596,1.58209868 C0.991166362,1.67803748 0.90463874,1.75430009 0.801006406,1.80081861 C0.69737645,1.84733713 0.581664463,1.86166481 0.469381032,1.84207684 C0.0696365998,1.77705909 -0.102195689,1.45985843 0.061642187,1.09460945 C0.233210375,0.738599643 0.528101898,0.453137161 0.894393519,0.2886428 C1.27060678,0.10819114 1.68253317,0.00970344944 2.10159744,0 Z" id="Combined-Shape"></path>
        </g>
        <rect id="Rectangle" fill="#B3DDF5" x="3" y="12" width="10" height="2"></rect>
    </g>
</svg>