<?xml version="1.0" encoding="UTF-8"?>
<svg width="16px" height="16px" viewBox="0 0 16 16" version="1.1" xmlns="http://www.w3.org/2000/svg" xmlns:xlink="http://www.w3.org/1999/xlink">
    <title>HLPtoolbarHelpIcon</title>
    <g id="HLPtoolbarHelpIcon" stroke="none" stroke-width="1" fill="none" fill-rule="evenodd">
        <path d="M7.29889018,8.74343388 C7.68784911,8.73220353 8.09241252,8.9646236 8.04365172,9.45739991 C8.04655431,9.90679426 7.78821999,10.1741659 7.33622306,10.1741659 C6.88422614,10.1741659 6.58295464,9.91654414 6.58144288,9.53999887 C6.58144288,9.01783043 6.82106003,8.75738371 7.29889018,8.74343388 Z M7.61461824,3.1741659 C7.86984755,3.20014307 8.12328838,3.24086506 8.37360061,3.29594187 C9.13839944,3.50736421 9.59331227,4.10373171 9.65065681,4.89612175 C9.70700717,5.41291525 9.47679883,5.91973388 9.04661743,6.22608003 L9.04805232,6.22616553 L8.7371949,6.44983647 L8.7371949,6.44983647 L8.42528244,6.67128728 C8.12269904,6.86474235 7.94884619,7.20088063 7.96906283,7.5533012 C7.97406728,7.67829962 7.93623449,7.80124808 7.86126637,7.9027968 C7.78639818,8.00426053 7.67880159,8.0783796 7.55578756,8.11324416 C7.42476887,8.16246354 7.28064652,8.16783347 7.14612515,8.12857596 C7.01160378,8.08931896 6.89429859,8.00758249 6.81251216,7.89625388 C6.75886247,7.80855999 6.72973667,7.70865874 6.72783544,7.60650753 C6.70681654,6.9641406 7.01238016,6.35319828 7.54426484,5.97410305 C7.77457311,5.8031102 7.99187509,5.61590755 8.19424648,5.41416009 C8.29073289,5.30322398 8.3494867,5.16572571 8.36219833,5.02071503 C8.39522909,4.62452002 8.13409364,4.36974822 7.71362597,4.34309855 C7.25646855,4.31409417 6.86439794,4.41552852 6.57400682,4.75554375 L6.48102588,4.87796448 C6.41876939,4.98128318 6.3255858,5.06341215 6.21398174,5.11350902 C6.10238025,5.16360589 5.97776734,5.17903569 5.85684673,5.15794096 C5.42635272,5.08792184 5.24130256,4.74632113 5.41774335,4.35297608 C5.6025091,3.9695809 5.92008458,3.66215976 6.31455248,3.48501199 C6.71970522,3.29067943 7.16331826,3.18461577 7.61461824,3.1741659 Z" id="Combined-Shape-Copy" fill="#6B7A86" fill-rule="nonzero"></path>
        <path d="M2.52098548,15 C1.69255835,15 1.02098548,14.3284271 1.02098548,13.5 L1.02171312,13.4499841 C1.01958226,13.4312533 1.0177471,13.4124327 1.01621243,13.3935272 L1.01041123,13.25 L1.01041123,1.75 C1.01041123,0.831826603 1.7175215,0.0788076603 2.61688402,0.00580119953 L2.76041123,0 L14,0 L14,13 L13.4994112,13 L13.4994112,14 L14,14 L14,15 L2.52098548,15 Z M12.5,13 L2.70436254,13 C2.45890265,13 2.25475417,13.1768752 2.21241821,13.4101244 L2.20436254,13.5 C2.20436254,13.6966826 2.31792575,13.8668411 2.48305852,13.9484818 C2.53871471,13.9692005 2.5975075,13.98486 2.65864067,13.9931534 L2.76041123,14 L12.5,14 L12.5,13 Z M13,1 L2.76041123,1 C2.38071546,1 2.06692027,1.28215388 2.01725785,1.64822944 L2.01041123,1.75 L2.01034601,12.0891589 C2.16973246,12.0314591 2.34168513,12 2.52098548,12 L12.9994112,12 L13,1 Z" id="Combined-Shape" fill="#6B7A86" fill-rule="nonzero"></path>
    </g>
</svg>