<svg xmlns="http://www.w3.org/2000/svg" width="16" height="16" viewBox="0 0 16 16">
  <path fill="#6B7A86" d="M11,0 L11,1 L12.4643513,1 C13.3700281,1 14.1626678,1.60860811 14.3965266,2.48357124 L15.9321753,8.22907326 C15.9771984,8.39752366 16,8.57113853 16,8.74550202 L16,13 C16,14.1045695 15.1045695,15 14,15 L2,15 C0.8954305,15 0,14.1045695 0,13 L0,8.75111306 C0,8.57687911 0.0227676899,8.40339211 0.0677248324,8.23505814 L1.60368111,2.48394508 C1.8374077,1.60879773 2.63013565,1 3.53595627,1 L8,1 L8,0 L11,0 Z M12.4643513,2 L11,2 L11,3 L13,3 L9.5,7 L6,3 L8,2.999 L8,2 L3.53595627,2 C3.12421963,2 2.75921549,2.25156931 2.60845276,2.62606476 L2.56981869,2.74197254 L1.03386242,8.4930856 C1.0188767,8.54919692 1.00882198,8.60645336 1.00378391,8.66420217 L1,8.75111306 L1,13 C1,13.5128358 1.38604019,13.9355072 1.88337887,13.9932723 L2,14 L14,14 C14.5128358,14 14.9355072,13.6139598 14.9932723,13.1166211 L15,13 L15,8.74550202 C15,8.68738086 14.994933,8.62942605 14.9848849,8.57229181 L14.9660876,8.48728764 L13.4304389,2.74178562 C13.3241395,2.34407511 12.9869388,2.05642865 12.5862839,2.00741616 L12.4643513,2 Z M13,8 C13.5522847,8 14,8.44771525 14,9 L14,12 C14,12.5522847 13.5522847,13 13,13 L3,13 C2.44771525,13 2,12.5522847 2,12 L2,9 C2,8.44771525 2.44771525,8 3,8 L13,8 Z M9,9 L3,9 L3,12 L9,12 L9,11 L4,11 L4,10 L9,10 L9,9 Z M13,9 L10,9 L10,12 L13,12 L13,9 Z" opacity=".2"/>
</svg>
