<?xml version="1.0" encoding="UTF-8"?>
<svg width="16px" height="16px" viewBox="0 0 16 16" version="1.1" xmlns="http://www.w3.org/2000/svg" xmlns:xlink="http://www.w3.org/1999/xlink">
    <title>button_ai</title>
    <g id="button_ai" stroke="none" stroke-width="1" fill="none" fill-rule="evenodd">
        <path d="M13,10 L13.2211429,10.5974286 C13.5108571,11.3808571 13.6557143,11.7725714 13.9411429,12.058 C14.2274286,12.3442857 14.6191429,12.4891429 15.4025714,12.7788571 L16,13 L15.4025714,13.2211429 C14.6191429,13.5108571 14.2274286,13.6557143 13.942,13.9411429 C13.6557143,14.2274286 13.5108571,14.6191429 13.2211429,15.4025714 L13,16 L12.7788571,15.4025714 C12.4891429,14.6191429 12.3442857,14.2274286 12.0588571,13.942 C11.7725714,13.6557143 11.3808571,13.5108571 10.5974286,13.2211429 L10,13 L10.5974286,12.7788571 C11.3808571,12.4891429 11.7725714,12.3442857 12.058,12.0588571 C12.3442857,11.7725714 12.4891429,11.3808571 12.7788571,10.5974286 L13,10 Z M13,1 C14.6568542,1 16,2.34314575 16,4 L16,10.866 L15.6187194,10.7240305 L15.375,10.625 L15.3047288,10.4551375 L15.0969867,9.90373576 L15,9.643 L15,4 C15,2.9456382 14.1841222,2.08183488 13.1492623,2.00548574 L13,2 L3,2 C1.9456382,2 1.08183488,2.81587779 1.00548574,3.85073766 L1,4 L1,12 C1,13.0543618 1.81587779,13.9181651 2.85073766,13.9945143 L3,14 L8.26072037,14.0006622 C8.47588168,14.3800981 8.82421552,14.697394 9.30572188,14.8756273 L9.641,15 L3,15 C1.34314575,15 0,13.6568542 0,12 L0,4 C0,2.34314575 1.34314575,1 3,1 L13,1 Z M7.19534457,3.77748343 L9.54397738,10.9356866 L8.25491488,10.9356866 L7.74221957,9.30971 L5.39846957,9.30971 L4.91507113,10.9356866 L3.65530551,10.9356866 L5.94046176,3.77748343 L7.19534457,3.77748343 Z M11.3164383,3.77748343 L11.3164383,10.9356866 L10.1347977,10.9356866 L10.1347977,3.77748343 L11.3164383,3.77748343 Z M6.55569613,5.44740531 L5.7597977,8.10365531 L7.3613602,8.10365531 L6.55569613,5.44740531 Z" id="Combined-Shape" fill="#6B7A86" fill-rule="nonzero"></path>
    </g>
</svg>