<?xml version="1.0" encoding="UTF-8"?>
<svg width="16px" height="16px" viewBox="0 0 16 16" version="1.1" xmlns="http://www.w3.org/2000/svg" xmlns:xlink="http://www.w3.org/1999/xlink">
    <title>button_library</title>
    <g id="button_library" stroke="none" stroke-width="1" fill="none" fill-rule="evenodd">
        <g id="code_library" transform="translate(0.000000, 1.285714)" fill="#6B7A86" fill-rule="nonzero">
            <path d="M7.65714286,1.14285714 L15.4171429,1.14285714 L16,1.71428571 L16,5.71428571 L14.8457143,5.71428571 L14.8457143,4.56 L7.63428571,4.56 L6.65142857,5.54285714 L6.25142857,5.71428571 L1.12,5.71428571 L1.12,12.5714286 L6.84571429,12.5714286 L6.84571429,13.7142857 L0.571428571,13.7142857 L0,13.1428571 L0,0.571428571 L0.571428571,0 L6.28571429,0 L6.68571429,0.171428571 L7.65714286,1.14285714 Z M7.40571429,3.42857143 L14.8342857,3.42857143 L14.8457143,2.29714286 L7.41714286,2.29714286 L7.00571429,2.12571429 L6.03428571,1.15428571 L1.13142857,1.15428571 L1.13142857,4.58285714 L6.02285714,4.58285714 L7.00571429,3.6 L7.40571429,3.42857143 L7.40571429,3.42857143 Z" id="Shape"></path>
            <path d="M7.98857143,6.85714286 L9.13142857,6.85714286 L9.13142857,13.7142857 L7.98857143,13.7142857 L7.98857143,6.85714286 Z M10.2742857,6.85714286 L11.4171429,6.85714286 L11.4171429,13.7142857 L10.2742857,13.7142857 L10.2742857,6.85714286 Z M12.5645714,7.25942857 L13.6388571,6.86857143 L15.984,13.312 L14.9097143,13.7028571 L12.5645714,7.25942857 Z" id="Shape"></path>
        </g>
    </g>
</svg>