<?xml version="1.0" encoding="UTF-8"?>
<svg width="15px" height="4px" viewBox="0 0 15 4" version="1.1" xmlns="http://www.w3.org/2000/svg" xmlns:xlink="http://www.w3.org/1999/xlink">
    <title>Combined Shape Copy</title>
    <g id="Page-1" stroke="none" stroke-width="1" fill="none" fill-rule="evenodd">
        <path d="M2.12780926,0.361481481 C3.03512407,0.361481481 3.76120787,1.11324074 3.78706852,2.02074074 C3.78706852,2.95407407 3.03530926,3.68 2.12780926,3.68 C1.19447593,3.68 0.46855,2.92824074 0.46855,2.02074074 C0.46855,1.08740741 1.22030926,0.361481481 2.12780926,0.361481481 Z M7.46855,0.361481481 C8.37605,0.361481481 9.12780926,1.11324074 9.12780926,2.02074074 C9.12780926,2.95407407 8.37605,3.68 7.46855,3.68 C6.53521667,3.68 5.80929074,2.92824074 5.80929074,2.02074074 C5.80929074,1.08740741 6.56105,0.361481481 7.46855,0.361481481 Z M12.8092907,0.361481481 C13.7426241,0.361481481 14.46855,1.11324074 14.46855,2.02074074 C14.46855,2.95407407 13.7167907,3.68 12.8092907,3.68 C11.8759574,3.68 11.1500315,2.92824074 11.1500315,2.02074074 C11.1500315,1.08740741 11.9017907,0.361481481 12.8092907,0.361481481 Z" id="Combined-Shape-Copy" fill="#6B7A86" fill-rule="nonzero"></path>
    </g>
</svg>