<svg xmlns="http://www.w3.org/2000/svg" width="16" height="16" viewBox="0 0 16 16">
  <g fill="none" fill-rule="evenodd" transform="translate(0 2)">
    <g fill-rule="nonzero" transform="translate(0 3)">
      <path fill="#CFDDEC" d="M5.32713888,0.456838055 L6.00196857,1.5 L6.00196857,1.5 L11,1.5 C11.5522847,1.5 12,1.94771525 12,2.5 L12,8 C12,8.55228475 10.5522847,10 10,10 L1,10 C0.44771525,10 0,9.55228475 0,9 L0,1 C0,0.44771525 0.44771525,0 1,0 L4.48751093,0 C4.82675911,-3.95385788e-16 5.14287218,0.171995796 5.32713888,0.456838055 Z"/>
      <path fill="#9FB2C9" d="M5.32713888,0.456838055 L6.00196857,1.5 L6.00196857,1.5 L11,1.5 C11.5522847,1.5 12,1.94771525 12,2.5 L12,8 C12,8.55228475 10.5522847,10 10,10 L1,10 C0.44771525,10 0,9.55228475 0,9 L0,1 C0,0.44771525 0.44771525,0 1,0 L4.48751093,0 C4.82675911,-3.95385788e-16 5.14287218,0.171995796 5.32713888,0.456838055 Z M5.06343996,2.0433808 L4.38808282,1 L4.38808282,1 L1,1 L1,9 L10,9 C10.5522847,9 11,8.55228475 11,8 L11,2.5 L11,2.5 L5.9029263,2.5 C5.56377063,2.5 5.24773064,2.32809735 5.06343996,2.0433808 Z"/>
    </g>
    <g transform="translate(3)">
      <rect width="12" height="10" x=".5" y=".5" fill="#F9FAFB" stroke="#979797"/>
      <rect width="13" height="2" fill="#BF0710"/>
      <path fill="#404850" fill-rule="nonzero" d="M4.98809667,8.21664161 L4.98809667,3.21664161 L4.28740701,3.21664161 L2.98809667,4.49913135 L3.39913115,5.13524626 L3.86257943,4.67354995 C3.91775184,4.61883039 4.01614265,4.50369131 4.15775184,4.32813272 L4.15775184,4.32813272 L4.14395874,4.84796856 L4.13568288,5.32334476 L4.13568288,8.21664161 L4.98809667,8.21664161 Z M7.87942174,8.21664161 L9.98809667,3.88102517 L9.98809667,3.21664161 L5.98809667,3.21664161 L5.98809667,4.10705257 L8.7373817,4.10705257 L6.6439594,8.21664161 L7.87942174,8.21664161 Z"/>
    </g>
    <g fill-rule="nonzero" transform="translate(0 6.5)">
      <path fill="#ABBCC9" d="M13.2417921,0 C13.7940768,0 14.2417921,0.44771525 14.2417921,1 C14.2417921,1.1697752 14.1985676,1.33675526 14.1161916,1.48520662 L11.6191297,5.98520662 C11.4428319,6.30291604 11.108076,6.5 10.7447301,6.5 L1,6.5 C0.44771525,6.5 -2.39808173e-14,6.05228475 -2.39808173e-14,5.5 C-2.39808173e-14,5.30688169 0.0559184064,5.11789448 0.161000211,4.95586826 L3.07946679,0.455868257 C3.26383937,0.171583142 3.57962845,0 3.91846658,0 L13.2417921,0 Z"/>
      <path fill="#7392AA" d="M13.2417921,0 C13.7940768,0 14.2417921,0.44771525 14.2417921,1 C14.2417921,1.1697752 14.1985676,1.33675526 14.1161916,1.48520662 L11.6191297,5.98520662 C11.4428319,6.30291604 11.108076,6.5 10.7447301,6.5 L1,6.5 C0.44771525,6.5 -2.39808173e-14,6.05228475 -2.39808173e-14,5.5 C-2.39808173e-14,5.30688169 0.0559184064,5.11789448 0.161000211,4.95586826 L3.07946679,0.455868257 C3.26383937,0.171583142 3.57962845,0 3.91846658,0 L13.2417921,0 Z M10.7447301,5.5 L13.2403367,1 L3.91846658,1 L1,5.5 L10.7447301,5.5 Z"/>
    </g>
  </g>
</svg>
