<svg xmlns="http://www.w3.org/2000/svg" width="16" height="16" viewBox="0 0 16 16">
  <g fill="none" fill-rule="evenodd">
    <g fill-rule="nonzero" transform="translate(0 5)">
      <path fill="#B3DDF5" d="M5.32713888,0.456838055 L6.00196857,1.5 L6.00196857,1.5 L12,1.5 C12.5522847,1.5 13,1.94771525 13,2.5 L13,9 C13,9.55228475 12.5522847,10 12,10 L1,10 C0.44771525,10 0,9.55228475 0,9 L0,1 C0,0.44771525 0.44771525,0 1,0 L4.48751093,0 C4.82675911,-3.95385788e-16 5.14287218,0.171995796 5.32713888,0.456838055 Z"/>
      <path fill="#2590CD" d="M5.32713888,0.456838055 L6.00196857,1.5 L6.00196857,1.5 L12,1.5 C12.5522847,1.5 13,1.94771525 13,2.5 L13,9 C13,9.55228475 12.5522847,10 12,10 L1,10 C0.44771525,10 0,9.55228475 0,9 L0,1 C0,0.44771525 0.44771525,0 1,0 L4.48751093,0 C4.82675911,-3.95385788e-16 5.14287218,0.171995796 5.32713888,0.456838055 Z M5.06343996,2.0433808 L4.38808282,1 L4.38808282,1 L1,1 L1,9 L12,9 L12,2.5 L5.9029263,2.5 C5.56377063,2.5 5.24773064,2.32809735 5.06343996,2.0433808 Z"/>
    </g>
    <g transform="translate(3)">
      <rect width="11" height="13" x=".5" y=".5" fill="#E5F3FA" stroke="#2590CD"/>
      <rect width="6" height="1" x="3" y="3" fill="#2590CD"/>
      <rect width="6" height="1" x="3" y="5" fill="#2590CD"/>
      <rect width="6" height="1" x="3" y="7" fill="#2590CD"/>
    </g>
    <rect width="12" height="7" x=".5" y="7.5" fill="#B3DDF5" stroke="#2590CD" rx="1"/>
  </g>
</svg>
