<svg xmlns="http://www.w3.org/2000/svg" width="16" height="16" viewBox="0 0 16 16">
  <g fill="none" fill-rule="evenodd">
    <rect width="15" height="13" x=".5" y="1.5" fill="#FFF" stroke="#9AA5B2" rx="2"/>
    <path fill="#1393CC" fill-rule="nonzero" d="M5.85394458,5.01710505 L5.85394458,6.0952804 L4.3068252,6.0952804 L4.3068252,6.87755273 L5.73946429,6.87755273 L5.73946429,7.95572808 L4.3068252,7.95572808 L4.3068252,8.89445488 L5.85394458,8.89445488 L5.85394458,9.98963615 L3.01483332,9.98963615 L3.01483332,5.01710505 L5.85394458,5.01710505 Z M8.52246832,5.01710505 L8.77184153,5.02466324 C9.41955366,5.06497357 9.92900106,5.26652521 10.3001837,5.62931818 C10.7177642,6.03746027 10.9265545,6.62699884 10.9265545,7.39793389 C10.9265545,8.2278228 10.7068613,8.86724541 10.2674751,9.3162017 C9.87202742,9.72026237 9.33218743,9.94249574 8.64795507,9.9829018 L8.41452975,9.98963615 L6.86741037,9.98963615 L6.86741037,5.01710505 L8.52246832,5.01710505 Z M8.53555178,6.10208277 L8.15940225,6.10208277 L8.15940225,8.88765251 L8.44723841,8.88765251 C8.83974227,8.88765251 9.12757843,8.76917793 9.3107469,8.53222878 C9.49391537,8.29527962 9.58549961,7.93305352 9.58549961,7.44555047 C9.58549961,6.9897918 9.49882167,6.65194085 9.3254658,6.43199762 C9.17687505,6.24347485 8.96219947,6.13574755 8.68143906,6.10881572 L8.53555178,6.10208277 Z M12.9906874,9.98963615 L12.9906874,5.01710505 L11.6921538,5.01710505 L11.6921538,9.98963615 L12.9906874,9.98963615 Z"/>
  </g>
</svg>
