<svg xmlns="http://www.w3.org/2000/svg" width="16" height="16" viewBox="0 0 16 16">
  <g fill="none" fill-rule="evenodd" transform="translate(0 2)">
    <g fill-rule="nonzero" transform="translate(0 3)">
      <path fill="#CFDDEC" d="M5.32713888,0.456838055 L6.00196857,1.5 L6.00196857,1.5 L11,1.5 C11.5522847,1.5 12,1.94771525 12,2.5 L12,8 C12,8.55228475 10.5522847,10 10,10 L1,10 C0.44771525,10 0,9.55228475 0,9 L0,1 C0,0.44771525 0.44771525,0 1,0 L4.48751093,0 C4.82675911,-3.95385788e-16 5.14287218,0.171995796 5.32713888,0.456838055 Z"/>
      <path fill="#9FB2C9" d="M5.32713888,0.456838055 L6.00196857,1.5 L6.00196857,1.5 L11,1.5 C11.5522847,1.5 12,1.94771525 12,2.5 L12,8 C12,8.55228475 10.5522847,10 10,10 L1,10 C0.44771525,10 0,9.55228475 0,9 L0,1 C0,0.44771525 0.44771525,0 1,0 L4.48751093,0 C4.82675911,-3.95385788e-16 5.14287218,0.171995796 5.32713888,0.456838055 Z M5.06343996,2.0433808 L4.38808282,1 L4.38808282,1 L1,1 L1,9 L10,9 C10.5522847,9 11,8.55228475 11,8 L11,2.5 L11,2.5 L5.9029263,2.5 C5.56377063,2.5 5.24773064,2.32809735 5.06343996,2.0433808 Z"/>
    </g>
    <g transform="translate(2)">
      <rect width="13" height="8" x=".5" y=".5" fill="#B6E87B" stroke="#5CB533" rx="1"/>
      <path fill="#238400" fill-opacity=".726" fill-rule="nonzero" d="M4.30236958,5.33043785 C4.60853496,5.33043785 4.84750066,5.26509134 5.01926667,5.13439832 C5.19103269,5.0037053 5.27691569,4.82486222 5.27691569,4.59786908 C5.27691569,4.43392958 5.23111142,4.29549816 5.13950288,4.1825748 C5.04789434,4.06965145 4.87853908,3.9570147 4.6314371,3.84466456 C4.44460389,3.75982874 4.32617575,3.7010742 4.27615266,3.66840094 C4.22612958,3.63572769 4.18966697,3.601908 4.16676484,3.56694189 C4.1438627,3.53197577 4.13241163,3.4909909 4.13241163,3.44398727 C4.13241163,3.36832289 4.16073796,3.30698888 4.21739061,3.25998525 C4.27404326,3.21298162 4.3554061,3.1894798 4.46147915,3.1894798 C4.55067694,3.1894798 4.64138145,3.20037089 4.73359267,3.22215306 C4.8258039,3.24393523 4.94242398,3.28234064 5.08345292,3.33736928 L5.08345292,3.33736928 L5.26425925,2.92293483 C5.12805181,2.86675976 4.99756991,2.82319542 4.87281355,2.79224181 C4.74805718,2.7612882 4.61697259,2.74581139 4.47955978,2.74581139 C4.19991266,2.74581139 3.98083566,2.80943826 3.82232878,2.93669199 C3.6638219,3.06394572 3.58456846,3.2387763 3.58456846,3.46118372 C3.58456846,3.57926601 3.60867597,3.68244471 3.65689099,3.77071982 C3.70510601,3.85899493 3.7695936,3.93637896 3.85035376,4.0028719 C3.93111392,4.06936484 4.05225416,4.13872386 4.21377448,4.21094895 C4.38614318,4.28890619 4.50035251,4.34565447 4.55640247,4.3811938 C4.61245243,4.41673313 4.65494192,4.4537055 4.68387093,4.49211091 C4.71279995,4.53051631 4.72726445,4.57436726 4.72726445,4.62366375 C4.72726445,4.71193886 4.69441797,4.7784318 4.628725,4.82314257 C4.56303204,4.86785334 4.4687114,4.89020873 4.3457631,4.89020873 C4.24330618,4.89020873 4.13030223,4.87473192 4.00675123,4.84377831 C3.88320024,4.8128247 3.73222696,4.75951571 3.55383138,4.68385133 L3.55383138,4.68385133 L3.55383138,5.17910909 C3.77079898,5.27999493 4.02031171,5.33043785 4.30236958,5.33043785 Z M7.57436144,5.33043785 L7.57436144,4.87786304 L6.48566684,4.87786304 L6.48566684,4.21137592 L7.49864395,4.21137592 L7.49864395,3.76233685 L6.48566684,3.76233685 L6.48566684,3.19485046 L7.57436144,3.19485046 L7.57436144,2.74581139 L5.85127713,2.74581139 L5.85127713,5.33043785 L7.57436144,5.33043785 Z M9.45060879,5.33043785 C9.61653543,5.33043785 9.77895208,5.31983338 9.93785875,5.29862442 C10.0967654,5.27741547 10.266202,5.2404431 10.4461686,5.18770732 L10.4461686,3.88421639 L9.33573651,3.88421639 L9.33573651,4.32788481 L9.86606357,4.32788481 L9.86606357,4.85237654 C9.73842769,4.87530514 9.61270636,4.88676944 9.48889956,4.88676944 C9.25149683,4.88676944 9.07057298,4.81483096 8.946128,4.67095399 C8.82168302,4.52707702 8.75946053,4.31871337 8.75946053,4.04586302 C8.75946053,3.78447698 8.83668024,3.57639993 8.99111965,3.42163188 C9.14555905,3.26686383 9.35105281,3.1894798 9.60760092,3.1894798 C9.82841098,3.1894798 10.0409247,3.23533701 10.2451421,3.32705141 L10.4423395,2.90057944 C10.1755806,2.79740074 9.89861072,2.74581139 9.61143,2.74581139 C9.15321721,2.74581139 8.79487949,2.85930796 8.53641684,3.0863011 C8.2779542,3.31329425 8.14872287,3.62970893 8.14872287,4.03554515 C8.14872287,4.45284568 8.26008517,4.77298626 8.48280977,4.9959669 C8.70553438,5.21894753 9.02813405,5.33043785 9.45060879,5.33043785 Z"/>
    </g>
    <g fill-rule="nonzero" transform="translate(0 6.5)">
      <path fill="#ABBCC9" d="M13.2417921,0 C13.7940768,0 14.2417921,0.44771525 14.2417921,1 C14.2417921,1.1697752 14.1985676,1.33675526 14.1161916,1.48520662 L11.6191297,5.98520662 C11.4428319,6.30291604 11.108076,6.5 10.7447301,6.5 L1,6.5 C0.44771525,6.5 -2.39808173e-14,6.05228475 -2.39808173e-14,5.5 C-2.39808173e-14,5.30688169 0.0559184064,5.11789448 0.161000211,4.95586826 L3.07946679,0.455868257 C3.26383937,0.171583142 3.57962845,0 3.91846658,0 L13.2417921,0 Z"/>
      <path fill="#7392AA" d="M13.2417921,0 C13.7940768,0 14.2417921,0.44771525 14.2417921,1 C14.2417921,1.1697752 14.1985676,1.33675526 14.1161916,1.48520662 L11.6191297,5.98520662 C11.4428319,6.30291604 11.108076,6.5 10.7447301,6.5 L1,6.5 C0.44771525,6.5 -2.39808173e-14,6.05228475 -2.39808173e-14,5.5 C-2.39808173e-14,5.30688169 0.0559184064,5.11789448 0.161000211,4.95586826 L3.07946679,0.455868257 C3.26383937,0.171583142 3.57962845,0 3.91846658,0 L13.2417921,0 Z M10.7447301,5.5 L13.2403367,1 L3.91846658,1 L1,5.5 L10.7447301,5.5 Z"/>
    </g>
  </g>
</svg>
