<svg xmlns="http://www.w3.org/2000/svg" width="16" height="16" viewBox="0 0 16 16">
  <defs>
    <linearGradient id="schema-x12-a" x1="0%" x2="100%" y1="50%" y2="50%">
      <stop offset="0%" stop-color="#5E1564"/>
      <stop offset="26.367%" stop-color="#4A4690"/>
      <stop offset="64.194%" stop-color="#3D66AA"/>
      <stop offset="100%" stop-color="#2E92CD"/>
    </linearGradient>
  </defs>
  <g fill="none" fill-rule="evenodd">
    <rect width="15" height="13" x=".5" y="1.5" fill="#FFF" stroke="#9AA5B2" rx="2"/>
    <path fill="url(#schema-x12-a)" fill-rule="nonzero" d="M4.11268805,9.99613665 L4.87531146,8.41461716 L5.56251351,9.99613665 L6.94389755,9.99613665 L5.61564366,7.43226364 L6.84649226,5.03559975 L5.46510822,5.03559975 L4.87531146,6.51958059 L4.21009333,5.03559975 L2.82870929,5.03559975 L4.02413779,7.43226364 L2.73130401,9.99613665 L4.11268805,9.99613665 Z M9.00775199,9.99613665 L9.00775199,5.03559975 L7.82117852,5.03559975 L7.5729352,5.57817699 L7.5729352,6.62323392 L7.82117852,6.27412546 L7.82117852,9.99613665 L9.00775199,9.99613665 Z M13.268696,9.99613665 L13.268696,9.05680262 L11.3263073,9.05680262 L12.8899302,7.2441534 C13.1230168,6.9585045 13.268696,6.55441582 13.268696,6.19909647 C13.268696,5.76017256 13.0550332,5.46058957 12.753963,5.26551228 C12.4334689,5.04953384 12.0352792,4.97986338 11.5691059,4.97986338 C11.1029326,4.97986338 10.6367594,5.08436907 10.3259772,5.30034751 C10.015195,5.51632594 9.85009194,5.75320551 9.85009194,6.19212942 L9.85009194,6.45687718 L11.1514923,6.45687718 L11.1514923,6.15729419 C11.1514923,5.92738166 11.3360193,5.81590893 11.5691059,5.81590893 C11.8021926,5.81590893 11.9672956,5.93434871 11.9672956,6.16426124 C11.9672956,6.49171241 11.8507523,6.7773613 11.7050731,6.96547155 L9.92778749,9.0986049 L9.92778749,9.99613665 L13.268696,9.99613665 Z"/>
  </g>
</svg>
