<?xml version="1.0" encoding="UTF-8"?>
<svg width="16px" height="16px" viewBox="0 0 16 16" version="1.1" xmlns="http://www.w3.org/2000/svg" xmlns:xlink="http://www.w3.org/1999/xlink">
    <title>PRJaddCodeLibrary</title>
    <g id="PRJaddCodeLibrary" stroke="none" stroke-width="1" fill="none" fill-rule="evenodd">
        <path d="M14,11 L14,13 L16,13 L16,14 L14,14 L14,16 L13,16 L13,14 L11,14 L11,13 L13,13 L13,11 L14,11 Z M15,0 L15,10 L14,10 L14,1 L7,1 L7,6 L10.5,6 C11.2309651,6 11.8398119,6.52285085 11.9729528,7.21496507 L11.9931334,7.35553999 L12,7.5 L12,11 L11,11 L11,7.5 C11,7.25454011 10.8231248,7.05039163 10.5898756,7.00805567 L10.5,7 L5,7 L4,6 L1.5,6 C1.25454011,6 1.05039163,6.17687516 1.00805567,6.41012437 L1,6.5 L1,12.5 C1,12.7454599 1.17687516,12.9496084 1.41012437,12.9919443 L1.5,13 L9,13 L9,14 L1.5,14 C0.720303883,14 0.0795513218,13.4051119 0.00686657806,12.64446 L0,12.5 L0,6.5 C0,5.72030388 0.594888083,5.07955132 1.35553999,5.00686658 L1.5,5 L4,5 C4.22101374,5 4.43448403,5.07316447 4.60802951,5.20608063 L4.70710678,5.29289322 L5.415,6 L6,6 L6,0 L15,0 Z M13,4 L13,5 L9,5 L9,4 L13,4 Z M11,2 L11,3 L8,3 L8,2 L11,2 Z" id="Combined-Shape" fill="#35617D" fill-rule="nonzero"></path>
    </g>
</svg>