<?xml version="1.0" encoding="UTF-8"?>
<svg width="16px" height="16px" viewBox="0 0 16 16" version="1.1" xmlns="http://www.w3.org/2000/svg" xmlns:xlink="http://www.w3.org/1999/xlink">
    <title>PRJiconLibraryClosed</title>
    <g id="PRJiconLibraryClosed" stroke="none" stroke-width="1" fill="none" fill-rule="evenodd">
        <g id="folder-closed" transform="translate(1.000000, 3.000000)" fill-rule="nonzero">
            <path d="M5.32713888,0.45683805 L6.00196857,1.5 L6.00196857,1.5 L12,1.5 C12.5522847,1.5 13,1.94771525 13,2.5 L13,9 C13,9.5522847 12.5522847,10 12,10 L1,10 C0.44771525,10 0,9.5522847 0,9 L0,1 C0,0.44771525 0.44771525,0 1,0 L4.48751093,0 C4.82675911,0 5.14287218,0.1719958 5.32713888,0.45683805 Z" id="Path" fill="#A5D4EF"></path>
            <path d="M5.32713888,0.45683805 L6.00196857,1.5 L6.00196857,1.5 L12,1.5 C12.5522847,1.5 13,1.94771525 13,2.5 L13,9 C13,9.5522847 12.5522847,10 12,10 L1,10 C0.44771525,10 0,9.5522847 0,9 L0,1 C0,0.44771525 0.44771525,0 1,0 L4.48751093,0 C4.82675911,0 5.14287218,0.1719958 5.32713888,0.45683805 Z M5.06343996,2.0433808 L4.38808282,1 L4.38808282,1 L1,1 L1,9 L12,9 L12,2.5 L5.9029263,2.5 C5.56377063,2.5 5.24773064,2.32809735 5.06343996,2.0433808 Z" id="Shape" fill="#3194BA"></path>
        </g>
    </g>
</svg>