<?xml version="1.0" encoding="UTF-8"?>
<svg width="16px" height="16px" viewBox="0 0 16 16" version="1.1" xmlns="http://www.w3.org/2000/svg" xmlns:xlink="http://www.w3.org/1999/xlink">
    <title>tree_item_warning</title>
    <g id="tree_item_warning" stroke="none" stroke-width="1" fill="none" fill-rule="evenodd">
        <path d="M7.99944612,1.92618204 C8.79589365,1.92618204 9.53141027,2.35250598 9.92748291,3.04395725 L9.92748291,3.04395725 L14.1252159,10.3876464 C14.5611936,11.1503283 14.5580459,12.0874647 14.1169546,12.8472006 C13.6758634,13.6069365 12.8635795,14.0743005 11.9853281,14.073818 L11.9853281,14.073818 L4.01314557,14.073818 C2.65331196,14.0725527 1.55126457,12.9705052 1.5500003,11.6097311 C1.55049777,11.180962 1.6627226,10.7597238 1.87550373,10.3877295 L1.87550373,10.3877295 L6.07161186,3.04360331 C6.46748198,2.35250598 7.2029986,1.92618204 7.99944612,1.92618204 Z M7.99944612,2.82618204 C7.52563401,2.82618204 7.08807011,3.07980509 6.85280975,3.49051452 L6.85280975,3.49051452 L2.6568385,10.8344015 C2.52160438,11.0708245 2.4503157,11.338408 2.44999981,11.6098348 C2.45080262,12.4732659 3.15055148,13.1730148 4.01356411,13.173818 L4.01356411,13.173818 L11.9855755,13.173818 C12.5431374,13.1741242 13.0586743,12.8774996 13.3386242,12.3953137 C13.6185741,11.9131278 13.6205718,11.3183502 13.3438629,10.8342867 L13.3438629,10.8342867 L9.146328,3.49094365 C8.91082214,3.07980509 8.47325824,2.82618204 7.99944612,2.82618204 Z M8,10.3689925 C8.44873136,10.3689925 8.8125,10.7327612 8.8125,11.1814925 C8.8125,11.6302239 8.44873136,11.9939925 8,11.9939925 C7.55126864,11.9939925 7.1875,11.6302239 7.1875,11.1814925 C7.1875,10.7327612 7.55126864,10.3689925 8,10.3689925 Z M8.8125,5.39805933 L8.65,9.29805933 L7.35,9.29805933 L7.1875,5.39805933 L8.8125,5.39805933 Z" id="Combined-Shape" fill="#6B7A86" fill-rule="nonzero"></path>
    </g>
</svg>