<svg xmlns="http://www.w3.org/2000/svg" width="16" height="16" viewBox="0 0 16 16">
  <g fill="none" fill-rule="evenodd">
    <polygon fill="#6B7A86" points="8 2 11 5 14 2 15 3 12 6 15 9 14 10 11 7 8 10 7 9 10 6 7 3" transform="matrix(1 0 0 -1 0 12)"/>
    <polygon fill="#9AA5B2" points="6 7 5 7 5 6 2 6 2 8 4 8 4 9 1 9 1 5 6 5"/>
    <polygon fill="#9AA5B2" points="8 12 9 12 9 11 12 11 12 13 10 13 10 14 13 14 13 10 8 10" transform="matrix(1 0 0 -1 0 24)"/>
    <polygon fill="#9AA5B2" fill-rule="nonzero" points="11 7 11 10 10 10 10 8 5 8 5 11 7 11 7 12 4 12 4 7" transform="matrix(1 0 0 -1 0 19)"/>
  </g>
</svg>
