<svg xmlns="http://www.w3.org/2000/svg" width="16" height="16" viewBox="0 0 16 16">
  <g fill="none" fill-rule="evenodd">
    <rect width="13" height="3" x="1.5" y="10.5" fill="#E2E5E8" stroke="#9AA5B2"/>
    <path fill="#6B7A86" d="M8.50022915,5 L8.50022915,8.085 L9.58522915,7 L10.2952291,7.705 L8.00022915,10 L5.70522915,7.705 L6.41522915,7 L7.50022915,8.085 L7.50022915,5 L8.50022915,5 Z" transform="matrix(1 0 0 -1 0 15)"/>
    <path fill="#9AA5B2" fill-rule="nonzero" d="M13,3 L13,7 C13,7.55228475 12.5522847,8 12,8 L11,8 L11,8 L11,7 L12,7 L12,3 L4,3 L4,7 L5,7 L5,8 L4,8 C3.44771525,8 3,7.55228475 3,7 L3,3 C3,2.44771525 3.44771525,2 4,2 L12,2 C12.5522847,2 13,2.44771525 13,3 Z"/>
  </g>
</svg>
