<svg xmlns="http://www.w3.org/2000/svg" width="24" height="24" viewBox="0 0 24 24">
  <path fill="#6B7A86" fill-rule="evenodd" d="M11.14,6.35 L11.14,4.26 C10.34,4.47 9.59,4.8 8.91,5.22 L10.37,6.68 C10.62,6.56 10.87,6.44 11.14,6.35 L11.14,6.35 Z M4,5.41 L6.36,7.77 C5.59,8.99 5.14,10.44 5.14,12 C5.14,14.21 6.05,16.2 7.5,17.64 L5.14,20 L11.14,20 L11.14,14 L8.9,16.24 C7.82,15.15 7.14,13.66 7.14,12 C7.14,11 7.39,10.06 7.82,9.23 L15.9,17.31 C15.65,17.44 15.4,17.56 15.13,17.65 L15.13,19.74 C15.93,19.53 16.68,19.2 17.36,18.78 L19.72,21.14 L20.99,19.87 L5.28,4.14 L4,5.41 L4,5.41 Z M21.14,4 L15.14,4 L15.14,10 L17.38,7.76 C18.46,8.85 19.14,10.34 19.14,12 C19.14,13 18.89,13.94 18.46,14.77 L19.92,16.23 C20.69,15.01 21.14,13.56 21.14,12 C21.14,9.79 20.23,7.8 18.78,6.36 L21.14,4 L21.14,4 Z" transform="matrix(-1 0 0 1 25.14 0)"/>
</svg>
