<?xml version="1.0" encoding="UTF-8"?>
<svg width="16px" height="16px" viewBox="0 0 16 16" version="1.1" xmlns="http://www.w3.org/2000/svg" xmlns:xlink="http://www.w3.org/1999/xlink">
    <title>LIBiconFolderClosedLockedDark</title>
    <g id="LIBiconFolderClosedLockedDark" stroke="none" stroke-width="1" fill="none" fill-rule="evenodd">
        <g id="Group" transform="translate(-0.005578, 3.000000)" fill-rule="nonzero">
            <g id="folder-closed" transform="translate(1.005402, 0.000000)">
                <path d="M4.48768744,0 C4.82693562,0 5.14304869,0.1719958 5.32731539,0.45683805 L6.00214508,1.5 L12.0001765,1.5 C12.5524612,1.5 13.0001765,1.94771525 13.0001765,2.5 L13.0001765,9 C13.0001765,9.5522847 12.5524612,10 12.0001765,10 L4.744,10 L4.74459802,7.95435686 L4.73814441,7.82655163 C4.69546941,7.40633823 4.44465544,7.04765613 4.09042224,6.85522511 L4.01459802,6.81866977 L4.01480576,6.63171699 L4.00733899,6.45714484 C3.88858494,5.19043638 2.78806288,4.26088315 1.49307306,4.26166977 L1.32901859,4.26675725 C0.835802173,4.29710039 0.378182541,4.46179463 7.77156117e-15,4.72375865 L0.000176513335,1 C0.000176513335,0.44771525 0.447891763,0 1.00017651,0 L4.48768744,0 Z" id="Combined-Shape" fill="#1A6E8A"></path>
                <path d="M4.38825933,1 L5.06361647,2.0433808 C5.24790715,2.32809735 5.56394714,2.5 5.90310281,2.5 L5.90310281,2.5 L12.0001765,2.5 L12.0001765,9 L4.74400044,9 L4.74459802,7.95435686 L4.73814441,7.82655163 C4.69546941,7.40633823 4.44465544,7.04765613 4.09042224,6.85522511 L4.01459802,6.81866977 L4.01480576,6.63171699 L4.00733899,6.45714484 C3.88858494,5.19043638 2.78806288,4.26088315 1.49307306,4.26166977 L1.32901859,4.26675725 C1.21735161,4.27362711 1.10750929,4.28738374 1.00000044,4.3075968 L1.00017651,1 L4.38825933,1 Z" id="Combined-Shape" fill="#4A90E2"></path>
            </g>
            <path d="M4.39141986,7.45299865 L4.21160111,7.45299865 L4.21089015,6.63236566 C4.21012843,5.7383526 3.41590198,5.01107563 2.43961304,5.0116705 C1.46337609,5.01232191 0.66911593,5.73966211 0.66976594,6.63367517 L0.671238602,7.45435577 L0.607151521,7.45435577 C0.271538383,7.4550068 -0.00076378574,7.70435277 1.60960279e-06,8.01168241 L1.60960279e-06,10.4549864 C1.60960279e-06,10.762316 0.273007406,11.0116705 0.608620544,11.0116705 L4.39284848,11.0096705 C4.72846162,11.0096705 5.00076379,10.7603283 5.00000161,10.4529867 L5.00000161,8.00908756 C5.00000161,7.70175792 4.72699259,7.45305853 4.39137946,7.45305853 L4.39141986,7.45299865 Z M1.32363289,7.4543472 L1.32216023,6.6336666 C1.32216023,6.06898291 1.8230189,5.60967891 2.43967034,5.60903606 C3.05632178,5.60903606 3.55789546,6.06838768 3.55789546,6.63236899 L3.55936812,7.4530496 L1.32363289,7.4543472 Z" id="Shape-Copy-3" fill="#E0E0E0"></path>
        </g>
    </g>
</svg>