<?xml version="1.0" encoding="UTF-8"?>
<svg width="12px" height="14px" viewBox="0 0 14 14" version="1.1" xmlns="http://www.w3.org/2000/svg" xmlns:xlink="http://www.w3.org/1999/xlink">
    <title>button_git_pull</title>
    <g id="button_git_pull" stroke="none" stroke-width="1" fill="none" fill-rule="evenodd">
        <path d="M11.1438341,2.90618328 C12.8590999,2.92785082 14.2366821,4.32734124 14.2313325,6.04273543 C14.2258887,7.75812963 12.839528,9.1489245 11.1241598,9.15979903 L10.2496988,9.15935109 L10.2496988,8.40935109 L11.1194053,8.4098141 C12.423343,8.40154782 13.4771906,7.34433327 13.4813168,6.0403828 C13.4852248,4.79075038 12.52366,3.76166298 11.2959488,3.66357885 L11.1343607,3.65612345 L10.7436368,3.65118776 L10.5237933,3.32814237 C9.80912917,2.27799108 8.54851638,1.73996377 7.29581558,1.95044717 C6.1090464,2.14985251 5.13512206,2.98648157 4.7534245,4.11646916 L4.69535688,4.30745775 L4.56476799,4.78941018 L4.06974277,4.85484446 C3.13791908,4.97801639 2.46129803,5.80274214 2.52257331,6.74067181 C2.58062358,7.62923676 3.28209289,8.33089945 4.15441863,8.40305346 L4.30130723,8.40917445 L5.74969879,8.40835109 L5.74969879,9.15835109 L4.30123857,9.15917445 C2.96635119,9.15791094 1.86119193,8.12161373 1.77416873,6.78956535 C1.68714552,5.45751697 2.64808321,4.2862409 3.97145988,4.11131203 C4.38026973,2.60255506 5.6299877,1.46983242 7.17153988,1.21081514 C8.71309205,0.951797856 10.2643806,1.61388507 11.1438341,2.90618328 Z" id="Path" fill="#6B7A86" fill-rule="nonzero"></path>
        <path d="M8,7.16758369 L11.6426079,10.289819 C11.921438,10.5288163 11.9537289,10.9485983 11.7147317,11.2274284 C11.4996342,11.4783755 11.138101,11.5296259 10.8646782,11.3631375 L10.7771223,11.2995522 L8.66487304,9.48920407 L8.66494855,15.1210514 L7.33505145,15.1210514 L7.33497593,9.48730422 L5.22287766,11.2995522 C4.97193056,11.5146497 4.60681242,11.5100038 4.36206927,11.3036565 L4.28526829,11.2274284 C4.07017078,10.9764813 4.07481667,10.6113632 4.28116398,10.36662 L4.35739209,10.289819 L8,7.16758369 Z" id="Path-Copy-6" fill="#6B7A86" fill-rule="nonzero" transform="translate(8.000000, 11.144318) scale(1, -1) translate(-8.000000, -11.144318) "></path>
    </g>
</svg>