<?xml version="1.0" encoding="UTF-8"?>
<svg width="16px" height="16px" viewBox="0 0 16 16" version="1.1" xmlns="http://www.w3.org/2000/svg" xmlns:xlink="http://www.w3.org/1999/xlink">
    <title>button_code_library copy</title>
    <g id="button_code_library-copy" stroke="none" stroke-width="1" fill="none" fill-rule="evenodd">
        <path d="M16,1 L16,12 L14,12 L14,14.5 C14,15.2796961 13.4051119,15.9204487 12.64446,15.9931334 L12.5,16 L2.5,16 C1.72030388,16 1.07955132,15.4051119 1.00686658,14.64446 L1,14.5 L1,7.5 C1,6.72030388 1.59488808,6.07955132 2.35553999,6.00686658 L2.5,6 L6,6 C6.22101374,6 6.43448403,6.07316447 6.60802951,6.20608063 L6.70710678,6.29289322 L7,6.585 L7,1 L16,1 Z M6,7 L2.5,7 C2.25454011,7 2.05039163,7.17687516 2.00805567,7.41012437 L2,7.5 L2,14.5 C2,14.7454599 2.17687516,14.9496084 2.41012437,14.9919443 L2.5,15 L12.5,15 C12.7454599,15 12.9496084,14.8231248 12.9919443,14.5898756 L13,14.5 L13,8.5 C13,8.25454011 12.8231248,8.05039163 12.5898756,8.00805567 L12.5,8 L7,8 L6,7 Z M15,2 L8,2 L8,7 L12.5,7 C13.2309651,7 13.8398119,7.52285085 13.9729528,8.21496507 L13.9931334,8.35553999 L14,8.5 L14,11 L15,11 L15,2 Z M14,5 L14,6 L10,6 L10,5 L14,5 Z M11,3 L11,4 L9,4 L9,3 L11,3 Z" id="Combined-Shape" fill="#6B7A86" fill-rule="nonzero"></path>
    </g>
</svg>