<?xml version="1.0" encoding="UTF-8"?>
<svg width="16px" height="16px" viewBox="0 0 16 16" version="1.1" xmlns="http://www.w3.org/2000/svg" xmlns:xlink="http://www.w3.org/1999/xlink">
    <title>EDIiconDatabaseTracked</title>
    <g id="EDIiconDatabaseTracked" stroke="none" stroke-width="1" fill="none" fill-rule="evenodd">
        <g id="noun-database-5079138-copy" transform="translate(2.000000, 1.000000)" fill-rule="nonzero">
            <path d="M5.99947271,0 C4.4005349,0 2.9563339,0.28593597 1.87637693,0.774667834 C1.33639845,1.01897787 0.886839466,1.31087493 0.553774559,1.66836593 C0.220737243,2.02585694 0,2.46942585 0,2.95138563 L0,11.050828 C0,11.201482 0.0220952462,11.3480116 0.0618671308,11.4892193 C0.0620827083,11.4900237 0.0622982858,11.4908282 0.0626216107,11.4917475 C0.0627293857,11.4923221 0.0633760906,11.4927817 0.0633760906,11.4933563 C0.28303448,12.2989172 1.04289761,12.8804873 2.03632557,13.2976386 C2.04925939,13.3030395 2.06251659,13.3083257 2.07555885,13.3137269 C2.08181013,13.3163699 2.08806141,13.3191278 2.09442058,13.321771 C2.15283869,13.3456734 2.21222528,13.3690021 2.27247551,13.3917542 C2.29661865,13.4008324 2.32129983,13.4093363 2.34565819,13.4182995 C2.40073489,13.4384095 2.45667247,13.4578318 2.51315085,13.4770213 C2.52694693,13.4817329 2.54085061,13.4867891 2.55464669,13.4915007 C2.60034482,13.5067844 2.64604571,13.5211484 2.69271508,13.5357429 C2.7415394,13.5510265 2.79079691,13.5661967 2.84059248,13.5807881 C2.87238692,13.5900964 2.90429173,13.5991746 2.93641175,13.608138 C2.97337972,13.6185953 3.01056567,13.6287079 3.04807445,13.6387066 C3.09420577,13.6510025 3.14076753,13.6631835 3.18765212,13.6749058 C3.21772206,13.6823754 3.24779475,13.6901894 3.2781875,13.697429 C3.32906192,13.7096099 3.38036402,13.7213313 3.43209931,13.7328221 C3.46939286,13.741096 3.50679127,13.7490251 3.54451527,13.7569542 C3.58223926,13.7648834 3.62028608,13.7726977 3.65844052,13.7802821 C3.70888174,13.7902796 3.75964854,13.7999326 3.81084303,13.8092408 C3.84328588,13.8151015 3.87615918,13.8205024 3.90892486,13.8261334 C3.95774918,13.8345223 4.00657626,13.843141 4.05604623,13.8510701 C4.0945235,13.8571606 4.13343395,13.8630213 4.17223404,13.868767 C4.22580145,13.8766961 4.27936886,13.8848552 4.3336923,13.8920948 C4.36268613,13.8960018 4.39211041,13.8989898 4.42121186,13.9025521 C4.48254094,13.9103662 4.54397487,13.9182956 4.60605722,13.9250753 C4.62976937,13.9277184 4.65391306,13.9299017 4.67773337,13.9324299 C4.73981571,13.9388652 4.80200567,13.9453004 4.86484129,13.9509314 C4.90331855,13.9543789 4.94222901,13.9574816 4.9810291,13.9605841 C5.04063367,13.9652957 5.10034309,13.9696623 5.16059333,13.9734546 C5.16781474,13.9739142 5.17525166,13.9737993 5.18247308,13.974259 C5.35352237,13.9849461 5.52682318,13.9928752 5.70230928,13.9967822 C5.80103678,13.9989656 5.89965666,14 5.99955957,14 C6.09946249,14 6.19884943,13.9989657 6.29758244,13.9967822 C6.35955718,13.9954032 6.42099388,13.9925304 6.48242781,13.990347 C6.5092656,13.9893127 6.53642566,13.9890829 6.56315694,13.9878188 C6.65585003,13.9839118 6.7478947,13.9792002 6.83929923,13.9733394 C6.84048484,13.9732245 6.84199377,13.9734544 6.84317924,13.9733394 C6.9021354,13.9695471 6.96055351,13.9650656 7.01897162,13.9604689 C7.05777171,13.9573662 7.09668217,13.9542635 7.13515943,13.9508162 C7.37454345,13.9296718 7.60864081,13.901976 7.83682794,13.8679626 C7.87034689,13.8630212 7.9038686,13.8572755 7.93717233,13.8518743 C7.99020169,13.8434854 8.04258264,13.8344072 8.09485598,13.825329 C8.12632759,13.8199281 8.15801718,13.8148717 8.18916597,13.8092407 C8.24036321,13.7999325 8.29112726,13.7902797 8.34156848,13.7802819 C8.37972291,13.7726976 8.41776973,13.7648832 8.45549373,13.7569541 C8.49311011,13.749025 8.53061889,13.7410959 8.56790969,13.732822 C8.61964498,13.7213303 8.67094983,13.7096092 8.72182149,13.6974289 C8.75221701,13.6900743 8.78228694,13.68249 8.81235687,13.6749056 C8.85924146,13.6631842 8.90580322,13.6510033 8.95193455,13.6387064 C8.98944332,13.6287089 9.02662651,13.6184814 9.06359724,13.6081379 C9.09571727,13.5990597 9.12761932,13.5900963 9.15941652,13.580788 C9.20921208,13.5661939 9.25846684,13.5510255 9.30729392,13.5357427 C9.42606987,13.498511 9.54150441,13.4595553 9.65434805,13.4182991 C9.67881456,13.4094506 9.70338759,13.400832 9.72753072,13.3917538 C9.80782941,13.3614176 9.88672366,13.3299283 9.96368094,13.2976388 C11.0240475,12.8524519 11.8214056,12.2199587 11.9766115,11.3276433 L11.9751025,11.3276433 C11.9909465,11.2370909 12,11.1449293 12,11.050929 L12,2.95148659 C12,2.87460778 11.9933175,2.79933816 11.982647,2.72464513 C11.9809225,2.68856066 11.9748867,2.65282333 11.9645397,2.61846277 C11.890601,2.26579636 11.7038159,1.94160685 11.4492286,1.6683404 C11.1161913,1.31084939 10.6635971,1.01896116 10.1236187,0.774642298 C9.0436341,0.285916318 7.59860533,0 5.99969511,0 L5.99947271,0 Z" id="Path-Copy" fill="#E0F5F5"></path>
            <path d="M5.99947271,0 C4.4005349,0 2.9563339,0.28593597 1.87637693,0.774667834 C1.33639845,1.01897787 0.886839466,1.31087493 0.553774559,1.66836593 C0.220737243,2.02585694 0,2.46942585 0,2.95138563 L0,11.050828 C0,11.201482 0.0220952462,11.3480116 0.0618671308,11.4892193 C0.0620827083,11.4900237 0.0622982858,11.4908282 0.0626216107,11.4917475 C0.0627293857,11.4923221 0.0633760906,11.4927817 0.0633760906,11.4933563 C0.28303448,12.2989172 1.04289761,12.8804873 2.03632557,13.2976386 C2.04925939,13.3030395 2.06251659,13.3083257 2.07555885,13.3137269 C2.08181013,13.3163699 2.08806141,13.3191278 2.09442058,13.321771 C2.15283869,13.3456734 2.21222528,13.3690021 2.27247551,13.3917542 C2.29661865,13.4008324 2.32129983,13.4093363 2.34565819,13.4182995 C2.40073489,13.4384095 2.45667247,13.4578318 2.51315085,13.4770213 C2.52694693,13.4817329 2.54085061,13.4867891 2.55464669,13.4915007 C2.60034482,13.5067844 2.64604571,13.5211484 2.69271508,13.5357429 C2.7415394,13.5510265 2.79079691,13.5661967 2.84059248,13.5807881 C2.87238692,13.5900964 2.90429173,13.5991746 2.93641175,13.608138 C2.97337972,13.6185953 3.01056567,13.6287079 3.04807445,13.6387066 C3.09420577,13.6510025 3.14076753,13.6631835 3.18765212,13.6749058 C3.21772206,13.6823754 3.24779475,13.6901894 3.2781875,13.697429 C3.32906192,13.7096099 3.38036402,13.7213313 3.43209931,13.7328221 C3.46939286,13.741096 3.50679127,13.7490251 3.54451527,13.7569542 C3.58223926,13.7648834 3.62028608,13.7726977 3.65844052,13.7802821 C3.70888174,13.7902796 3.75964854,13.7999326 3.81084303,13.8092408 C3.84328588,13.8151015 3.87615918,13.8205024 3.90892486,13.8261334 C3.95774918,13.8345223 4.00657626,13.843141 4.05604623,13.8510701 C4.0945235,13.8571606 4.13343395,13.8630213 4.17223404,13.868767 C4.22580145,13.8766961 4.27936886,13.8848552 4.3336923,13.8920948 C4.36268613,13.8960018 4.39211041,13.8989898 4.42121186,13.9025521 C4.48254094,13.9103662 4.54397487,13.9182956 4.60605722,13.9250753 C4.62976937,13.9277184 4.65391306,13.9299017 4.67773337,13.9324299 C4.73981571,13.9388652 4.80200567,13.9453004 4.86484129,13.9509314 C4.90331855,13.9543789 4.94222901,13.9574816 4.9810291,13.9605841 C5.04063367,13.9652957 5.10034309,13.9696623 5.16059333,13.9734546 C5.16781474,13.9739142 5.17525166,13.9737993 5.18247308,13.974259 C5.35352237,13.9849461 5.52682318,13.9928752 5.70230928,13.9967822 C5.80103678,13.9989656 5.89965666,14 5.99955957,14 C6.09946249,14 6.19884943,13.9989657 6.29758244,13.9967822 C6.35955718,13.9954032 6.42099388,13.9925304 6.48242781,13.990347 C6.5092656,13.9893127 6.53642566,13.9890829 6.56315694,13.9878188 C6.65585003,13.9839118 6.7478947,13.9792002 6.83929923,13.9733394 C6.84048484,13.9732245 6.84199377,13.9734544 6.84317924,13.9733394 C6.9021354,13.9695471 6.96055351,13.9650656 7.01897162,13.9604689 C7.05777171,13.9573662 7.09668217,13.9542635 7.13515943,13.9508162 C7.37454345,13.9296718 7.60864081,13.901976 7.83682794,13.8679626 C7.87034689,13.8630212 7.9038686,13.8572755 7.93717233,13.8518743 C7.99020169,13.8434854 8.04258264,13.8344072 8.09485598,13.825329 C8.12632759,13.8199281 8.15801718,13.8148717 8.18916597,13.8092407 C8.24036321,13.7999325 8.29112726,13.7902797 8.34156848,13.7802819 C8.37972291,13.7726976 8.41776973,13.7648832 8.45549373,13.7569541 C8.49311011,13.749025 8.53061889,13.7410959 8.56790969,13.732822 C8.61964498,13.7213303 8.67094983,13.7096092 8.72182149,13.6974289 C8.75221701,13.6900743 8.78228694,13.68249 8.81235687,13.6749056 C8.85924146,13.6631842 8.90580322,13.6510033 8.95193455,13.6387064 C8.98944332,13.6287089 9.02662651,13.6184814 9.06359724,13.6081379 C9.09571727,13.5990597 9.12761932,13.5900963 9.15941652,13.580788 C9.20921208,13.5661939 9.25846684,13.5510255 9.30729392,13.5357427 C9.42606987,13.498511 9.54150441,13.4595553 9.65434805,13.4182991 C9.67881456,13.4094506 9.70338759,13.400832 9.72753072,13.3917538 C9.80782941,13.3614176 9.88672366,13.3299283 9.96368094,13.2976388 C11.0240475,12.8524519 11.8214056,12.2199587 11.9766115,11.3276433 L11.9751025,11.3276433 C11.9909465,11.2370909 12,11.1449293 12,11.050929 L12,2.95148659 C12,2.87460778 11.9933175,2.79933816 11.982647,2.72464513 C11.9809225,2.68856066 11.9748867,2.65282333 11.9645397,2.61846277 C11.890601,2.26579636 11.7038159,1.94160685 11.4492286,1.6683404 C11.1161913,1.31084939 10.6635971,1.01896116 10.1236187,0.774642298 C9.0436341,0.285916318 7.59860533,0 5.99969511,0 L5.99947271,0 Z M5.99947271,0.823737534 C7.51036396,0.823737534 8.87154017,1.10206099 9.82098623,1.53160032 C10.2956541,1.74637734 10.6655545,1.99838026 10.8991221,2.24914173 C11.0605804,2.42243308 11.1554284,2.5863047 11.198635,2.74383962 C11.0824472,3.15075335 10.5693959,3.64912853 9.68139752,4.02203472 C8.74044984,4.41712229 7.4367205,4.66959002 5.99950031,4.66959002 C4.56222493,4.66959002 3.26238608,4.41712229 2.32146599,4.02203472 C1.43344006,3.64912853 0.917604719,3.15075335 0.801193416,2.74383962 C0.844413768,2.58628999 0.939261802,2.42241543 1.10070626,2.24914173 C1.33426834,1.99839791 1.70417429,1.74638323 2.17884214,1.53160032 C3.12817784,1.10203452 4.48849869,0.823737534 5.9995279,0.823737534 L5.99947271,0.823737534 Z M0.773150957,4.04445145 C1.11295718,4.33679566 1.54604365,4.58192353 2.03621829,4.78773386 C3.09669519,5.23292077 4.47856552,5.49318435 5.99955549,5.49318435 C7.52054546,5.49318435 8.903078,5.23290018 9.96344453,4.78773386 C10.4528742,4.58226478 10.8862642,4.33784001 11.2264203,4.04606946 L11.2264203,5.46664905 C11.222109,5.4792898 11.2183366,5.4921603 11.2151031,5.50526055 C11.1422432,5.92400043 10.6222028,6.46317877 9.68125515,6.85826635 C8.74030746,7.25335392 7.43657812,7.50582165 5.99935793,7.50582165 C4.56208256,7.50582165 3.26224371,7.25335392 2.32132362,6.85826635 C1.38037593,6.46317877 0.857311445,5.92400043 0.784468155,5.50526055 C0.781342516,5.4921603 0.777570116,5.4792898 0.773150957,5.46664905 L0.773150957,4.04445145 Z M0.773191517,6.88078605 C1.11295718,7.17313026 1.54604365,7.41905242 2.03621829,7.62486274 C3.09669519,8.07004966 4.47856552,8.32951894 5.99955549,8.32951894 C7.52054546,8.32951894 8.903078,8.07004084 9.96344453,7.62486274 C10.4528742,7.41939367 10.8862642,7.17417461 11.2264203,6.88240405 L11.2264203,8.25391395 C11.2147797,8.28229789 11.2061571,8.3119474 11.2007681,8.34239827 C11.1279083,8.76113815 10.6048327,9.29952219 9.66391265,9.69460977 C8.72296496,10.0896973 7.42301575,10.3421651 5.98587833,10.3421651 C4.58632144,10.3421651 3.31570268,10.1027973 2.38096323,9.72517537 C1.44627897,9.34756225 0.893359768,8.82218109 0.784508715,8.40917778 C0.781167581,8.39906524 0.777395182,8.38918246 0.773191517,8.3794153 L0.773191517,6.88078605 Z M11.2263927,9.70502972 L11.2263927,11.0507986 C11.2263927,11.0932021 11.2229436,11.1358351 11.2158301,11.1787005 L11.2150757,11.1787005 C11.1490062,11.5582552 10.7158232,12.0335665 9.93474447,12.4134742 C9.89712808,12.4316309 9.8599449,12.4496734 9.82081922,12.4673685 C9.81446006,12.4703562 9.8076699,12.4725397 9.80120285,12.4754126 C9.74785066,12.499315 9.69406803,12.5233321 9.63823806,12.5461989 C9.61398704,12.5561964 9.58898055,12.5653896 9.56429937,12.5751577 C9.53756946,12.58573 9.51083956,12.5969917 9.48357024,12.6073354 C9.44800119,12.6208955 9.41135605,12.633651 9.37492613,12.64675 C9.33192099,12.6622635 9.2893463,12.6776628 9.24515746,12.6926014 C9.2274811,12.6984621 9.2094808,12.7036332 9.19159005,12.7094939 C9.15526774,12.7214451 9.11916064,12.7340859 9.08219267,12.7456931 C9.04673123,12.756725 9.01040892,12.7671823 8.97430183,12.7778709 C8.93517615,12.7893622 8.89572764,12.8013137 8.8558487,12.8124609 C8.81995683,12.8224584 8.78374212,12.8317666 8.74720459,12.8414197 C8.72112145,12.8483147 8.69514647,12.8555543 8.66873802,12.8623343 C8.62228387,12.8741704 8.57507645,12.8856621 8.52765105,12.8969243 C8.49273042,12.9051982 8.45737659,12.9131273 8.42202552,12.9210564 C8.38344065,12.9297898 8.34496063,12.9385235 8.30583771,12.9467974 C8.2678985,12.9548416 8.22963646,12.9624259 8.1911592,12.9701252 C8.15268194,12.9777096 8.1139867,12.9854089 8.07497139,12.9926485 C8.04101924,12.9990837 8.00663666,13.0050595 7.97236168,13.0111499 C7.83709666,13.0349373 7.69956632,13.0564276 7.55892083,13.0755024 C7.53995122,13.0781455 7.52065878,13.0803288 7.50158157,13.082857 C7.44445753,13.0903266 7.38679268,13.0979109 7.32880777,13.1045759 C7.30035474,13.1077937 7.27146851,13.1103216 7.2427975,13.1134244 C7.0949201,13.1291679 6.944885,13.1427276 6.79238316,13.152839 C6.78570061,13.1532986 6.77869497,13.1531837 6.77201242,13.1536434 C6.60613666,13.1643305 6.43853363,13.1723746 6.26801411,13.1761666 C6.17920048,13.1782351 6.08931076,13.1793844 5.99942103,13.1793844 C5.90974653,13.1793844 5.82082529,13.1781203 5.73233725,13.1761666 C5.55492797,13.1722596 5.37946117,13.1643305 5.20723094,13.1528388 C5.20604533,13.1527239 5.20529085,13.1529537 5.2041053,13.1528388 C4.94758379,13.1357165 4.69765129,13.1098616 4.4549231,13.077225 C4.45416864,13.0771101 4.45255191,13.0773399 4.45179746,13.077225 C3.63760814,12.9674801 2.90912005,12.7753345 2.32126918,12.5285151 C1.38023872,12.1334275 0.857174229,11.5975735 0.784413716,11.1787159 L0.783659236,11.1787159 C0.776437817,11.1358535 0.773096683,11.0932205 0.773096683,11.050814 L0.773096683,9.72916813 C1.12964251,10.0326472 1.58684453,10.2839676 2.10701184,10.4941612 C3.15573448,10.9178434 4.50471496,11.1666338 5.98564113,11.1666338 C7.50654832,11.1666338 8.88861179,10.9063497 9.94897832,10.4611833 C10.4460786,10.2524959 10.8845179,10.0027876 11.2263927,9.70502972 L11.2263927,9.70502972 Z" id="Shape" fill="#02848E"></path>
        </g>
        <path d="M4.05900339,6.25024814 C3.83285032,6.25116746 3.64967736,6.43434189 3.64876334,6.66048614 C3.64842067,6.76976918 3.69139838,6.87468656 3.76827718,6.95214196 C3.84527072,7.02970916 3.9498439,7.07349239 4.05901222,7.07395493 C4.16887186,7.07441095 4.27424816,7.03097414 4.35193009,6.95328928 C4.42949728,6.87572208 4.47293632,6.77022811 4.472481,6.66048614 C4.47213267,6.55120309 4.42823524,6.44662991 4.35078277,6.3697511 C4.27321558,6.29275757 4.16829821,6.24978039 4.05901222,6.25023568 L4.05900339,6.25024814 Z" id="Path" fill="#013134" fill-rule="nonzero"></path>
        <path d="M4.05900339,9.05198683 C3.83285032,9.05290616 3.64967736,9.23608058 3.64876334,9.46222483 C3.64842067,9.57150788 3.69139838,9.67642525 3.76827718,9.75388065 C3.84527072,9.83144785 3.9498439,9.87523108 4.05901222,9.87569362 C4.16887186,9.87614967 4.27424816,9.83271283 4.35193009,9.75502797 C4.42949728,9.67746077 4.47293632,9.5719668 4.472481,9.46222483 C4.47213267,9.35294178 4.42823524,9.2483686 4.35078277,9.17148979 C4.27321558,9.09449626 4.16829821,9.05151908 4.05901222,9.05197437 L4.05900339,9.05198683 Z" id="Path" fill="#013134" fill-rule="nonzero"></path>
        <path d="M4.05900339,11.9993166 C3.83285032,12.0002359 3.64967736,12.1834104 3.64876334,12.4095546 C3.64842067,12.5188377 3.69139838,12.623755 3.76827718,12.7012104 C3.84527072,12.7787776 3.9498439,12.8225609 4.05901222,12.8230234 C4.16887186,12.8234795 4.27424816,12.7800426 4.35193009,12.7023578 C4.42949728,12.6247906 4.47293632,12.5192966 4.472481,12.4095546 C4.47213267,12.3002716 4.42823524,12.1956984 4.35078277,12.1188196 C4.27321558,12.041826 4.16829821,11.9988489 4.05901222,11.9993042 L4.05900339,11.9993166 Z" id="Path" fill="#013134" fill-rule="nonzero"></path>
        <g id="Group-2-Copy" transform="translate(7.000000, 7.000000)">
            <circle id="Oval-Copy-3" fill="#5CB533" cx="4.5" cy="4.5" r="4.5"></circle>
            <path d="M5,2 L5,4 L7,4 L7,5 L5,5 L5,7 L4,7 L4,5 L2,5 L2,4 L4,4 L4,2 L5,2 Z" id="Combined-Shape-Copy-3" fill="#FFFFFF"></path>
        </g>
    </g>
</svg>