<?xml version="1.0" encoding="UTF-8"?>
<svg width="16px" height="16px" viewBox="0 0 16 16" version="1.1" xmlns="http://www.w3.org/2000/svg" xmlns:xlink="http://www.w3.org/1999/xlink">
    <title>EDIiconDatabaseTable</title>
    <g id="EDIiconDatabaseTable" stroke="none" stroke-width="1" fill="none" fill-rule="evenodd">
        <rect id="Rectangle" fill="#202D79" x="1" y="3" width="14" height="11" rx="1.5"></rect>
        <rect id="Rectangle" fill="#F4F5FA" x="2" y="5" width="3" height="2"></rect>
        <rect id="Rectangle-Copy-3" fill="#F4F5FA" x="2" y="8" width="3" height="2"></rect>
        <path d="M2,11 L5,11 L5,13 L2.5,13 C2.22385763,13 2,12.7761424 2,12.5 L2,11 L2,11 Z" id="Rectangle-Copy-6" fill="#F4F5FA"></path>
        <rect id="Rectangle-Copy" fill="#F4F5FA" x="6" y="5" width="4" height="2"></rect>
        <rect id="Rectangle-Copy-4" fill="#F4F5FA" x="6" y="8" width="4" height="2"></rect>
        <rect id="Rectangle-Copy-7" fill="#F4F5FA" x="6" y="11" width="4" height="2"></rect>
        <rect id="Rectangle-Copy-2" fill="#F4F5FA" x="11" y="5" width="3" height="2"></rect>
        <rect id="Rectangle-Copy-5" fill="#F4F5FA" x="11" y="8" width="3" height="2"></rect>
        <path d="M11,11 L14,11 L14,12.5 C14,12.7761424 13.7761424,13 13.5,13 L11,13 L11,13 L11,11 Z" id="Rectangle-Copy-8" fill="#F4F5FA"></path>
        <path d="M2.5,2 L13.5,2 C14.3284271,2 15,2.67157288 15,3.5 L15,4 L15,4 L1,4 L1,3.5 C1,2.67157288 1.67157288,2 2.5,2 Z" id="Rectangle-Copy-9" fill="#5D6AC4"></path>
    </g>
</svg>