<?xml version="1.0" encoding="UTF-8"?>
<svg width="12px" height="16px" viewBox="0 0 12 16" version="1.1" xmlns="http://www.w3.org/2000/svg" xmlns:xlink="http://www.w3.org/1999/xlink">
    <title>TBLwarning</title>
    <g id="TBLwarning" stroke="none" stroke-width="1" fill="none" fill-rule="evenodd">
        <g id="Group" transform="translate(0.493530, 3.000000)" fill-rule="nonzero">
            <path d="M1.65129523,10 L9.35660924,10 C10.6247467,10 11.4218698,8.61115424 10.7938289,7.52415459 L6.92909457,0.833333333 C6.30105368,-0.277777778 4.70687235,-0.277777778 4.07885303,0.833333333 L0.214118729,7.52415459 C-0.401866433,8.62320997 0.383112432,10 1.6512521,10 L1.65129523,10 Z" id="Path" fill="#EEC102"></path>
            <path d="M5.50831162,9.23578803 C5.02223869,9.23578803 4.6229955,8.86719737 4.6229955,8.41844347 C4.6229955,7.96968957 5.02223869,7.60109892 5.50831162,7.60109892 C5.99438454,7.60109892 6.39362774,7.96968957 6.37629899,8.43452764 C6.39361503,8.86705427 5.9770558,9.23575941 5.50831162,9.23575941 L5.50831162,9.23578803 Z" id="Path-Copy-6" fill="#7F650A"></path>
            <path d="M5.27554784,2.38361288 C5.68712363,2.30017115 6.11581651,2.46705462 6.28723242,2.78693694 C6.33866638,2.89822488 6.3729955,3.00951032 6.3729955,3.13467292 C6.35589096,3.4824089 6.32156154,3.84402948 6.28723242,4.19176546 C6.25290331,4.73423359 6.20146935,5.29056148 6.16714023,5.83302961 C6.15003569,6.01388212 6.15003569,6.16688099 6.15003569,6.34765402 C6.13293116,6.63980192 5.85853984,6.86227843 5.49839189,6.86227843 C5.13822863,6.86227843 4.86395705,6.65367658 4.84674809,6.36153862 C4.79531413,5.51306283 4.7266559,4.66458704 4.67522194,3.81611125 C4.6581174,3.59353787 4.64089283,3.37095952 4.62378798,3.13452389 C4.60680286,2.78708597 4.86409178,2.48105347 5.27555427,2.38366256 L5.27554784,2.38361288 Z" id="Path-Copy-7" fill="#7F650A"></path>
        </g>
    </g>
</svg>