<?xml version="1.0" encoding="UTF-8"?>
<svg width="16px" height="16px" viewBox="0 0 16 16" version="1.1" xmlns="http://www.w3.org/2000/svg" xmlns:xlink="http://www.w3.org/1999/xlink">
    <title>TRANSiconLabelCommit</title>
    <g id="TRANSiconLabelCommit" stroke="none" stroke-width="1" fill="none" fill-rule="evenodd">
        <path d="M8.75,1.03491805 L8.75124955,5.09483501 C10.0445359,5.42830149 11,6.60257045 11,8 C11,9.39742955 10.0445359,10.5716985 8.75124955,10.905165 L8.75,15.004492 L7.25,15.004492 L7.24875045,10.905165 C5.95546411,10.5716985 5,9.39742955 5,8 C5,6.60257045 5.95546411,5.42830149 7.24875045,5.09483501 L7.25,1.03491805 L8.75,1.03491805 Z M8,6.25 C7.89430873,6.25 7.79080583,6.25936949 7.69027657,6.27732318 C7.68286127,6.2786491 7.67583071,6.27995104 7.66881503,6.28129487 L7.69027657,6.27732318 C7.64362995,6.28565388 7.59762358,6.2958328 7.5523359,6.3077815 L7.66881503,6.28129487 C7.60984113,6.29259112 7.55191878,6.30684741 7.49520858,6.32390318 L7.5523359,6.3077815 C7.50605891,6.31999122 7.46053236,6.33404887 7.41583997,6.34987076 L7.49520858,6.32390318 C7.4490791,6.33777677 7.40375164,6.35350265 7.35931264,6.3709944 L7.41583997,6.34987076 C7.36962525,6.36623157 7.32430248,6.38447885 7.2799642,6.40452004 L7.35931264,6.3709944 C6.70974307,6.62667313 6.25,7.25964719 6.25,8 C6.25,8.7618725 6.73685802,9.41003321 7.41642988,9.65033796 C7.44193824,9.65936848 7.46832097,9.66800612 7.49497147,9.67602549 L7.41642988,9.65033796 C7.46088662,9.6660584 7.5061681,9.68003337 7.55219198,9.69218052 L7.49497147,9.67602549 C7.55186042,9.69314386 7.60996955,9.70744498 7.6691367,9.71876672 L7.55219198,9.69218052 C7.59740632,9.70411402 7.64333717,9.71428343 7.68990645,9.72261068 L7.6691367,9.71876672 C7.72540173,9.72953312 7.78262355,9.73760525 7.84066273,9.74284367 L8,9.75 L8,9.75 C8.10575971,9.75 8.20932821,9.74061837 8.30991871,9.72264193 C8.31713873,9.7213509 8.32416929,9.72004896 8.33118497,9.71870513 L8.30991871,9.72264193 C8.35659375,9.71430068 8.4026276,9.70410891 8.44794167,9.69214524 L8.33118497,9.71870513 C8.39119126,9.70721113 8.45010885,9.69265254 8.50776857,9.67519852 L8.44794167,9.69214524 C8.49226936,9.68044199 8.53590825,9.66704313 8.57878477,9.65202226 L8.50776857,9.67519852 C8.554933,9.6609215 8.60125581,9.64470718 8.64664442,9.62664814 L8.57878477,9.65202226 C8.62624281,9.63539634 8.67276683,9.61678325 8.71825707,9.59628276 L8.64664442,9.62664814 C9.29306594,9.36945249 9.75,8.73808758 9.75,8 C9.75,7.23623981 9.26072641,6.58675559 8.57851525,6.34788335 C8.55544014,6.33979945 8.53186951,6.33210198 8.50808476,6.32489722 L8.57851525,6.34788335 C8.53568229,6.33288564 8.49208877,6.31950657 8.44780802,6.30781948 L8.50808476,6.32489722 C8.45028787,6.30738968 8.39122662,6.2927915 8.33107142,6.28127312 L8.44780802,6.30781948 C8.40259368,6.29588598 8.35666283,6.28571657 8.31009355,6.27738932 L8.33107142,6.28127312 C8.27477232,6.2704931 8.21751502,6.26241067 8.15943922,6.25716554 L8,6.25 L8,6.25 Z" id="Combined-Shape" fill="#6B7A86" fill-rule="nonzero"></path>
    </g>
</svg>