<?xml version="1.0" encoding="UTF-8"?>
<svg width="8px" height="11px" viewBox="0 0 8 11" version="1.1" xmlns="http://www.w3.org/2000/svg" xmlns:xlink="http://www.w3.org/1999/xlink">
    <title>PRJsearchResultsToggle</title>
    <g id="PRJsearchResultsToggle" stroke="none" stroke-width="1" fill="none" fill-rule="evenodd">
        <path d="M3.52834481,10.9129306 C3.75471132,11.1241586 4.17971149,11.1255937 4.40880389,10.9157111 L7.86936715,7.7424472 C8.06989704,7.55884475 8.03564584,7.28698396 7.79351659,7.1349536 C7.55091332,6.98319231 7.19216388,7.00911372 6.99210803,7.19271617 L3.98332965,9.96863815 L1.01117287,7.19549666 C0.813013288,7.01054881 0.45473791,6.98247477 0.210238371,7.13280096 C-0.0336685848,7.28276837 -0.0707642492,7.55462916 0.127395338,7.7396667 L3.52834481,10.9129306 Z" id="arrow-down" fill="#9AA5B2" fill-rule="nonzero"></path>
        <path d="M3.52834481,3.87680994 C3.75471132,4.08803797 4.17971149,4.08947306 4.40880389,3.87959044 L7.86936715,0.706326561 C8.06989704,0.522724111 8.03564584,0.250863324 7.79351659,0.0988329585 C7.55091332,-0.0529283255 7.19216388,-0.0270069241 6.99210803,0.156595528 L3.98332965,2.93251751 L1.01117287,0.159376024 C0.813013288,-0.0255718292 0.45473791,-0.0536458729 0.210238371,0.0966803164 C-0.0336685848,0.246647732 -0.0707642492,0.51850852 0.127395338,0.703546064 L3.52834481,3.87680994 Z" id="arrow-up" fill="#9AA5B2" fill-rule="nonzero" transform="translate(4.000000, 2.018060) scale(1, -1) translate(-4.000000, -2.018060) "></path>
    </g>
</svg>