<?xml version="1.0" encoding="UTF-8"?>
<svg width="16px" height="16px" viewBox="0 0 16 16" version="1.1" xmlns="http://www.w3.org/2000/svg" xmlns:xlink="http://www.w3.org/1999/xlink">
    <title>button_git_commit</title>
    <g id="button_git_commit" stroke="none" stroke-width="1" fill="none" fill-rule="evenodd">
        <path d="M8,2.875 C10.8304593,2.875 13.125,5.16954066 13.125,8 C13.125,10.8304593 10.8304593,13.125 8,13.125 C5.16954066,13.125 2.875,10.8304593 2.875,8 C2.875,5.16954066 5.16954066,2.875 8,2.875 Z M8,3.625 C5.58375422,3.625 3.625,5.58375422 3.625,8 C3.625,10.4162458 5.58375422,12.375 8,12.375 C10.4162458,12.375 12.375,10.4162458 12.375,8 C12.375,5.58375422 10.4162458,3.625 8,3.625 Z M8.625,5.5 L8.625,7.375 L10.5,7.375 L10.5,8.625 L8.625,8.625 L8.625,10.5 L7.375,10.5 L7.375,8.624 L5.5,8.625 L5.5,7.375 L7.375,7.374 L7.375,5.5 L8.625,5.5 Z" id="Combined-Shape" fill="#6B7A86" fill-rule="nonzero"></path>
    </g>
</svg>