<?xml version="1.0" encoding="UTF-8"?>
<svg width="16px" height="16px" viewBox="0 0 16 16" version="1.1" xmlns="http://www.w3.org/2000/svg" xmlns:xlink="http://www.w3.org/1999/xlink">
    <title>icon-word-wrap</title>
    <g id="icon-word-wrap" stroke="none" stroke-width="1" fill="none" fill-rule="evenodd">
        <polygon id="Path-4-Copy" fill="#6B7A86" fill-rule="nonzero" points="14 4 14 5 2 5 2 4"></polygon>
        <polygon id="Path-4-Copy-3" fill="#6B7A86" fill-rule="nonzero" points="7 10 7 11 2 11 2 10"></polygon>
        <path d="M12,7 C13.1045695,7 14,7.8954305 14,9 C14,10.0543618 13.1841222,10.9181651 12.1492623,10.9945143 L12,11 L10.5,11 L10.5,10 L12,10 C12.5522847,10 13,9.55228475 13,9 C13,8.48716416 12.6139598,8.06449284 12.1166211,8.00672773 L12,8 L2,8 L2,7 L12,7 Z" id="Path-5" fill="#6B7A86" fill-rule="nonzero"></path>
        <polygon id="Path-4" fill="#6B7A86" points="11 12.5 11 8.5 9 10.5"></polygon>
    </g>
</svg>