<?xml version="1.0" encoding="UTF-8"?>
<svg width="16px" height="16px" viewBox="0 0 16 16" version="1.1" xmlns="http://www.w3.org/2000/svg" xmlns:xlink="http://www.w3.org/1999/xlink">
    <title>LIBiconFolderOpenLocked</title>
    <g id="LIBiconFolderOpenLocked" stroke="none" stroke-width="1" fill="none" fill-rule="evenodd">
        <g id="Group" transform="translate(-0.018839, 3.000000)" fill-rule="nonzero">
            <g id="folder-open" transform="translate(1.017666, 0.000000)">
                <path d="M4.48868407,0 C4.82793225,0 5.14404532,0.1719958 5.32831202,0.45683805 L6.00314171,1.5 L11.0011731,1.5 C11.5534578,1.5 12.0011731,1.94771525 12.0011731,2.5 L12.0011731,8 C12.0011731,8.5522847 10.5534578,10 10.0011731,10 L4.732,10 L4.73233419,7.90635268 L4.72588058,7.77854744 C4.68320559,7.35833405 4.43239161,6.99965195 4.07815842,6.80722093 L4.00233419,6.77066559 L4.00254194,6.58371281 L3.99507517,6.40914066 C3.87632111,5.1424322 2.77579905,4.21287897 1.48080924,4.21366559 L1.31675477,4.21875307 C0.828857714,4.24876896 0.375793763,4.4102536 4.02455846e-15,4.66731256 L0.0011731438,1 C0.0011731438,0.44771525 0.448888394,0 1.00117314,0 L4.48868407,0 Z" id="Combined-Shape" fill="#3294BA"></path>
                <path d="M4.38925596,1 L5.0646131,2.0433808 C5.24890378,2.32809735 5.56494377,2.5 5.90409944,2.5 L5.90409944,2.5 L11.0011731,2.5 L11.0011731,8 C11.0011731,8.5522847 10.5534578,9 10.0011731,9 L10.0011731,9 L4.73184045,9 L4.73233419,7.90635268 L4.72588058,7.77854744 C4.68320559,7.35833405 4.43239161,6.99965195 4.07815842,6.80722093 L4.00233419,6.77066559 L4.00254194,6.58371281 L3.99507517,6.40914066 C3.87632111,5.1424322 2.77579905,4.21287897 1.48080924,4.21366559 L1.31675477,4.21875307 C1.20927504,4.22536532 1.10348571,4.23835756 0.999840453,4.25734604 L1.00117314,1 L4.38925596,1 Z" id="Combined-Shape" fill="#A5D5F0"></path>
                <path d="M13.3026285,3.5 C13.8549132,3.5 14.3026285,3.94771525 14.3026285,4.5 C14.3026285,4.6697752 14.2594041,4.83675526 14.177028,4.98520662 L11.6799661,9.4852066 C11.5036683,9.802916 11.1689124,10 10.8055666,10 L4.73211266,10 L4.73233419,7.90635268 L4.72588058,7.77854744 C4.68320559,7.35833405 4.43239161,6.99965195 4.07815842,6.80722093 L4.00233419,6.77066559 L4.00254194,6.58371281 L3.99507517,6.40914066 C3.91877425,5.59526518 3.43717813,4.92057471 2.75911266,4.54240731 L3.14030324,3.95586826 C3.32467582,3.67158314 3.64046491,3.5 3.97930303,3.5 L13.3026285,3.5 Z" id="Combined-Shape" fill="#2D8CA8"></path>
                <path d="M13.3011731,4.5 L10.8055666,9 L4.73228365,9 L4.73233419,7.90635268 L4.72588058,7.77854744 C4.68320559,7.35833405 4.43239161,6.99965195 4.07815842,6.80722093 L4.00233419,6.77066559 L4.00254194,6.58371281 L3.99507517,6.40914066 C3.95245744,5.95455213 3.78339739,5.54338597 3.52428365,5.20305888 L3.97930303,4.5 L13.3011731,4.5 Z" id="Combined-Shape" fill="#70BCDC"></path>
            </g>
            <path d="M4.39141986,7.40499447 L4.21160111,7.40499447 L4.21089015,6.58436148 C4.21012843,5.69034842 3.41590198,4.96307145 2.43961304,4.96366632 C1.46337609,4.96431772 0.66911593,5.69165793 0.66976594,6.58567099 L0.671238602,7.40635159 L0.607151521,7.40635159 C0.271538383,7.40700262 -0.00076378574,7.65634859 1.60960279e-06,7.96367822 L1.60960279e-06,10.4069822 C1.60960279e-06,10.7143118 0.273007406,10.9636663 0.608620544,10.9636663 L4.39284848,10.9616663 C4.72846162,10.9616663 5.00076379,10.7123241 5.00000161,10.4049826 L5.00000161,7.96108337 C5.00000161,7.65375374 4.72699259,7.40505435 4.39137946,7.40505435 L4.39141986,7.40499447 Z M1.32363289,7.40634302 L1.32216023,6.58566241 C1.32216023,6.02097873 1.8230189,5.56167473 2.43967034,5.56103188 C3.05632178,5.56103188 3.55789546,6.0203835 3.55789546,6.58436481 L3.55936812,7.40504542 L1.32363289,7.40634302 Z" id="Shape-Copy-3" fill="#1D2122"></path>
        </g>
    </g>
</svg>