<svg xmlns="http://www.w3.org/2000/svg" width="16" height="16" viewBox="0 0 16 16">
  <g fill="none" fill-rule="evenodd">
    <g fill-rule="nonzero" transform="translate(0 5)">
      <path fill="#CFDDEC" d="M5.32713888,0.456838055 L6.00196857,1.5 L6.00196857,1.5 L12,1.5 C12.5522847,1.5 13,1.94771525 13,2.5 L13,9 C13,9.55228475 12.5522847,10 12,10 L1,10 C0.44771525,10 0,9.55228475 0,9 L0,1 C0,0.44771525 0.44771525,0 1,0 L4.48751093,0 C4.82675911,-3.95385788e-16 5.14287218,0.171995796 5.32713888,0.456838055 Z"/>
      <path fill="#9FB2C9" d="M5.32713888,0.456838055 L6.00196857,1.5 L6.00196857,1.5 L12,1.5 C12.5522847,1.5 13,1.94771525 13,2.5 L13,9 C13,9.55228475 12.5522847,10 12,10 L1,10 C0.44771525,10 0,9.55228475 0,9 L0,1 C0,0.44771525 0.44771525,0 1,0 L4.48751093,0 C4.82675911,-3.95385788e-16 5.14287218,0.171995796 5.32713888,0.456838055 Z M5.06343996,2.0433808 L4.38808282,1 L4.38808282,1 L1,1 L1,9 L12,9 L12,2.5 L5.9029263,2.5 C5.56377063,2.5 5.24773064,2.32809735 5.06343996,2.0433808 Z"/>
    </g>
    <rect width="13" height="8" x=".5" y=".5" fill="#FFF6B2" stroke="#EEC102" rx="1" transform="translate(2 2)"/>
    <path fill="#D0A901" fill-rule="nonzero" d="M8.48334675,4.67807958 C8.84596613,4.67807958 9.12331078,4.79476656 9.31538069,5.02814053 C9.50745059,5.26151449 9.60348555,5.59713993 9.60348555,6.03501685 C9.60348555,6.47169081 9.50664358,6.80731625 9.31295964,7.04189317 C9.11927569,7.27647009 8.84166204,7.39375855 8.48011869,7.39375855 C8.11857533,7.39375855 7.84096168,7.27647009 7.64727774,7.04189317 C7.4535938,6.80731625 7.35675183,6.47048785 7.35675183,6.03140797 C7.35675183,5.5923281 7.4538628,5.25700339 7.64808475,5.02543387 C7.84230671,4.79386435 8.12072737,4.67807958 8.48334675,4.67807958 Z M6.40662207,4.73831458 C6.65406172,4.73831458 6.90266306,4.79743832 7.15242609,4.91568579 L7.15242609,4.91568579 L6.97817281,5.34964252 L6.83484949,5.28678768 L6.83484949,5.28678768 L6.69065491,5.23254308 C6.59423477,5.19925011 6.49955715,5.18260362 6.40662207,5.18260362 C6.20332659,5.18260362 6.0459178,5.25808683 5.9343957,5.40905326 C5.82287361,5.56001969 5.76711256,5.77039687 5.76711256,6.04018479 C5.76711256,6.60157326 5.9802824,6.8822675 6.40662207,6.8822675 C6.5855221,6.8822675 6.80217701,6.8380682 7.05658679,6.74966961 L7.05658679,6.74966961 L7.05658679,7.19740275 L6.89518469,7.25390753 C6.72920845,7.3023402 6.54950976,7.32655654 6.35608863,7.32655654 C5.98551,7.32655654 5.702058,7.21548428 5.50573265,6.99333976 C5.30940729,6.77119524 5.21124462,6.45232888 5.21124462,6.03674069 C5.21124462,5.774989 5.25945469,5.54566927 5.35587483,5.3487815 C5.45229498,5.15189372 5.59082633,5.00092729 5.77146889,4.8958822 C5.95211145,4.79083712 6.16382918,4.73831458 6.40662207,4.73831458 Z M8.48334675,5.14362455 C8.2842827,5.14362455 8.13417765,5.21850872 8.03303159,5.36827706 C7.93188553,5.5180454 7.8813125,5.740292 7.8813125,6.03501685 C7.8813125,6.3297417 7.93134752,6.55168756 8.03141756,6.70085442 C8.13148759,6.85002128 8.28105464,6.92460471 8.48011869,6.92460471 C8.87932281,6.92460471 9.07892487,6.62807542 9.07892487,6.03501685 C9.07892487,5.44075532 8.88039883,5.14362455 8.48334675,5.14362455 Z M10.5307305,7.32655654 L10.5307305,6.12272307 C10.5307305,5.98463629 10.5202429,5.70905284 10.4992676,5.29597273 L10.5141711,5.29597273 L11.0970637,7.32655654 L11.5673521,7.32655654 L12.1916433,5.29951342 L12.2065468,5.29951342 C12.1932993,5.62525659 12.1858475,5.8258955 12.1841916,5.90143015 C12.1825356,5.9769648 12.1817077,6.04364773 12.1817077,6.10147895 L12.1817077,7.32655654 L12.6602757,7.32655654 L12.6602757,4.73831458 L11.961467,4.73831458 L11.3537352,6.71755843 L11.3437995,6.71755843 L10.7708426,4.73831458 L10.0156751,4.73831458 L10.0156751,7.32655654 L10.5307305,7.32655654 Z"/>
    <rect width="12" height="7" x=".5" y="7.5" fill="#CFDDEC" stroke="#9FB2C9" rx="1"/>
  </g>
</svg>
