<svg xmlns="http://www.w3.org/2000/svg" width="16" height="16" viewBox="0 0 16 16">
  <g fill="none" fill-rule="evenodd" transform="translate(0 3)">
    <rect width="15" height="9" x=".5" y=".5" fill="#FFF6B2" stroke="#EEC102" rx="1"/>
    <path fill="#D0A901" fill-rule="nonzero" d="M7.30081741,2.90690979 C7.86122774,2.90690979 8.28985017,3.08724375 8.58668472,3.44791167 C8.88351927,3.8085796 9.03193655,4.32727212 9.03193655,5.00398926 C9.03193655,5.67884728 8.88227207,6.1975398 8.58294311,6.56006684 C8.28361415,6.92259388 7.85457598,7.10385739 7.2958286,7.10385739 C6.73708121,7.10385739 6.30804304,6.92259388 6.00871408,6.56006684 C5.70938512,6.1975398 5.55972064,5.67698816 5.55972064,4.99841192 C5.55972064,4.31983567 5.70980086,3.80160792 6.00996128,3.44372867 C6.31012171,3.08584942 6.74040709,2.90690979 7.30081741,2.90690979 Z M4.09134208,3 C4.47374783,3 4.8579489,3.09137281 5.24394531,3.27411843 L5.24394531,3.27411843 L4.97464549,3.94477711 L4.75314639,3.84763806 L4.75314639,3.84763806 L4.53030079,3.76380572 C4.38128822,3.71235307 4.23496865,3.68662675 4.09134208,3.68662675 C3.77715896,3.68662675 3.53389145,3.80328232 3.36153957,4.03659348 C3.18918768,4.26990464 3.10301174,4.59503216 3.10301174,5.01197605 C3.10301174,5.87957418 3.43245519,6.31337325 4.09134208,6.31337325 C4.36782323,6.31337325 4.70265267,6.24506542 5.09583041,6.10844977 L5.09583041,6.10844977 L5.09583041,6.8003992 L4.8974103,6.87225549 C4.62681784,6.9574185 4.33209612,7 4.01324513,7 C3.44053418,7 3.00247314,6.82834331 2.69906201,6.48502994 C2.39565088,6.14171657 2.24394531,5.64892437 2.24394531,5.00665336 C2.24394531,4.60212908 2.3184516,4.24772677 2.46746416,3.94344644 C2.61647673,3.63916611 2.83057009,3.40585496 3.10974424,3.24351297 C3.38891838,3.08117099 3.71611766,3 4.09134208,3 Z M7.30081741,3.62638652 C6.99317376,3.62638652 6.76119382,3.74211631 6.60487759,3.97357588 C6.44856135,4.20503544 6.37040324,4.54850657 6.37040324,5.00398926 C6.37040324,5.45947194 6.44772988,5.80247829 6.60238318,6.0330083 C6.75703647,6.26353832 6.98818494,6.37880332 7.2958286,6.37880332 C7.91277884,6.37880332 8.22125395,5.92053197 8.22125395,5.00398926 C8.22125395,4.08558743 7.91444177,3.62638652 7.30081741,3.62638652 Z M10.4649478,7 L10.4649478,5.13953488 C10.4649478,4.92612859 10.4487397,4.500228 10.4163234,3.86183311 L10.439356,3.86183311 L11.3401878,7 L12.0669952,7 L13.0318064,3.86730506 L13.0548391,3.86730506 C13.0343656,4.37072503 13.0228493,4.68080255 13.0202901,4.79753762 C13.017731,4.91427269 13.0164514,5.01732786 13.0164514,5.10670315 L13.0164514,7 L13.7560547,7 L13.7560547,3 L12.6760803,3 L11.7368608,6.05882353 L11.7215057,6.05882353 L10.8360291,3 L9.66895512,3 L9.66895512,7 L10.4649478,7 Z"/>
  </g>
</svg>
