<svg xmlns="http://www.w3.org/2000/svg" width="16" height="16" viewBox="0 0 16 16">
  <g fill="none" fill-rule="evenodd" transform="translate(0 2)">
    <g fill-rule="nonzero" transform="translate(0 3)">
      <path fill="#CFDDEC" d="M5.32713888,0.456838055 L6.00196857,1.5 L6.00196857,1.5 L11,1.5 C11.5522847,1.5 12,1.94771525 12,2.5 L12,8 C12,8.55228475 10.5522847,10 10,10 L1,10 C0.44771525,10 0,9.55228475 0,9 L0,1 C0,0.44771525 0.44771525,0 1,0 L4.48751093,0 C4.82675911,-3.95385788e-16 5.14287218,0.171995796 5.32713888,0.456838055 Z"/>
      <path fill="#9FB2C9" d="M5.32713888,0.456838055 L6.00196857,1.5 L6.00196857,1.5 L11,1.5 C11.5522847,1.5 12,1.94771525 12,2.5 L12,8 C12,8.55228475 10.5522847,10 10,10 L1,10 C0.44771525,10 0,9.55228475 0,9 L0,1 C0,0.44771525 0.44771525,0 1,0 L4.48751093,0 C4.82675911,-3.95385788e-16 5.14287218,0.171995796 5.32713888,0.456838055 Z M5.06343996,2.0433808 L4.38808282,1 L4.38808282,1 L1,1 L1,9 L10,9 C10.5522847,9 11,8.55228475 11,8 L11,2.5 L11,2.5 L5.9029263,2.5 C5.56377063,2.5 5.24773064,2.32809735 5.06343996,2.0433808 Z"/>
    </g>
    <rect width="13" height="8" x=".5" y=".5" fill="#FFF6B2" stroke="#EEC102" rx="1" transform="translate(2)"/>
    <path fill="#D0A901" fill-rule="nonzero" d="M8.48334675,2.67807958 C8.84596613,2.67807958 9.12331078,2.79476656 9.31538069,3.02814053 C9.50745059,3.26151449 9.60348555,3.59713993 9.60348555,4.03501685 C9.60348555,4.47169081 9.50664358,4.80731625 9.31295964,5.04189317 C9.11927569,5.27647009 8.84166204,5.39375855 8.48011869,5.39375855 C8.11857533,5.39375855 7.84096168,5.27647009 7.64727774,5.04189317 C7.4535938,4.80731625 7.35675183,4.47048785 7.35675183,4.03140797 C7.35675183,3.5923281 7.4538628,3.25700339 7.64808475,3.02543387 C7.84230671,2.79386435 8.12072737,2.67807958 8.48334675,2.67807958 Z M6.40662207,2.73831458 C6.65406172,2.73831458 6.90266306,2.79743832 7.15242609,2.91568579 L7.15242609,2.91568579 L6.97817281,3.34964252 L6.83484949,3.28678768 L6.83484949,3.28678768 L6.69065491,3.23254308 C6.59423477,3.19925011 6.49955715,3.18260362 6.40662207,3.18260362 C6.20332659,3.18260362 6.0459178,3.25808683 5.9343957,3.40905326 C5.82287361,3.56001969 5.76711256,3.77039687 5.76711256,4.04018479 C5.76711256,4.60157326 5.9802824,4.8822675 6.40662207,4.8822675 C6.5855221,4.8822675 6.80217701,4.8380682 7.05658679,4.74966961 L7.05658679,4.74966961 L7.05658679,5.19740275 L6.89518469,5.25390753 C6.72920845,5.3023402 6.54950976,5.32655654 6.35608863,5.32655654 C5.98551,5.32655654 5.702058,5.21548428 5.50573265,4.99333976 C5.30940729,4.77119524 5.21124462,4.45232888 5.21124462,4.03674069 C5.21124462,3.774989 5.25945469,3.54566927 5.35587483,3.3487815 C5.45229498,3.15189372 5.59082633,3.00092729 5.77146889,2.8958822 C5.95211145,2.79083712 6.16382918,2.73831458 6.40662207,2.73831458 Z M8.48334675,3.14362455 C8.2842827,3.14362455 8.13417765,3.21850872 8.03303159,3.36827706 C7.93188553,3.5180454 7.8813125,3.740292 7.8813125,4.03501685 C7.8813125,4.3297417 7.93134752,4.55168756 8.03141756,4.70085442 C8.13148759,4.85002128 8.28105464,4.92460471 8.48011869,4.92460471 C8.87932281,4.92460471 9.07892487,4.62807542 9.07892487,4.03501685 C9.07892487,3.44075532 8.88039883,3.14362455 8.48334675,3.14362455 Z M10.5307305,5.32655654 L10.5307305,4.12272307 C10.5307305,3.98463629 10.5202429,3.70905284 10.4992676,3.29597273 L10.5141711,3.29597273 L11.0970637,5.32655654 L11.5673521,5.32655654 L12.1916433,3.29951342 L12.2065468,3.29951342 C12.1932993,3.62525659 12.1858475,3.8258955 12.1841916,3.90143015 C12.1825356,3.9769648 12.1817077,4.04364773 12.1817077,4.10147895 L12.1817077,5.32655654 L12.6602757,5.32655654 L12.6602757,2.73831458 L11.961467,2.73831458 L11.3537352,4.71755843 L11.3437995,4.71755843 L10.7708426,2.73831458 L10.0156751,2.73831458 L10.0156751,5.32655654 L10.5307305,5.32655654 Z"/>
    <g fill-rule="nonzero" transform="translate(0 6.5)">
      <path fill="#ABBCC9" d="M13.2417921,0 C13.7940768,0 14.2417921,0.44771525 14.2417921,1 C14.2417921,1.1697752 14.1985676,1.33675526 14.1161916,1.48520662 L11.6191297,5.98520662 C11.4428319,6.30291604 11.108076,6.5 10.7447301,6.5 L1,6.5 C0.44771525,6.5 -2.39808173e-14,6.05228475 -2.39808173e-14,5.5 C-2.39808173e-14,5.30688169 0.0559184064,5.11789448 0.161000211,4.95586826 L3.07946679,0.455868257 C3.26383937,0.171583142 3.57962845,0 3.91846658,0 L13.2417921,0 Z"/>
      <path fill="#7392AA" d="M13.2417921,0 C13.7940768,0 14.2417921,0.44771525 14.2417921,1 C14.2417921,1.1697752 14.1985676,1.33675526 14.1161916,1.48520662 L11.6191297,5.98520662 C11.4428319,6.30291604 11.108076,6.5 10.7447301,6.5 L1,6.5 C0.44771525,6.5 -2.39808173e-14,6.05228475 -2.39808173e-14,5.5 C-2.39808173e-14,5.30688169 0.0559184064,5.11789448 0.161000211,4.95586826 L3.07946679,0.455868257 C3.26383937,0.171583142 3.57962845,0 3.91846658,0 L13.2417921,0 Z M10.7447301,5.5 L13.2403367,1 L3.91846658,1 L1,5.5 L10.7447301,5.5 Z"/>
    </g>
  </g>
</svg>
