<svg xmlns="http://www.w3.org/2000/svg" width="16" height="16" viewBox="0 0 16 16">
  <g fill="none" fill-rule="evenodd">
    <g transform="translate(1 1)">
      <path fill="#E5F3FA" d="M8,0 L8,3 L5,3 C4.48716416,3 4.06449284,3.38604019 4.00672773,3.88337887 L4,4 L4,9 L4,9 L0,9 L0,0 L8,0 Z"/>
      <path fill="#2590CD" fill-opacity=".502" fill-rule="nonzero" d="M8,0 L8,3 L7,3 L7,1 L1,1 L1,8 L4,8 L4,9 L4,9 L0,9 L0,0 L8,0 Z"/>
      <rect width="4" height="1" x="2" y="2" fill="#2590CD" fill-opacity=".5"/>
      <rect width="2" height="1" x="2" y="4" fill="#2590CD" fill-opacity=".5"/>
    </g>
    <g transform="translate(6 5)">
      <rect width="1" height="2" x="1" y="4" fill="#9AA5B2"/>
      <rect width="1" height="3" x="1" y="7" fill="#9AA5B2"/>
      <rect width="3" height="1" x="2" y="5" fill="#9AA5B2"/>
      <rect width="3" height="1" x="2" y="9" fill="#9AA5B2"/>
      <rect width="5" height="2" x=".5" y=".5" fill="#5CB533" stroke="#5CB533" rx="1"/>
      <rect width="5" height="2" x="4.5" y="4.5" fill="#EEC102" stroke="#EEC102" rx="1"/>
      <rect width="5" height="2" x="4.5" y="8.5" fill="#EEC102" stroke="#EEC102" rx="1"/>
    </g>
  </g>
</svg>
