<svg xmlns="http://www.w3.org/2000/svg" width="16" height="16" viewBox="0 0 16 16">
  <g fill="none" fill-rule="evenodd">
    <rect width="15" height="13" x=".5" y="1.5" fill="#FFF" stroke="#9AA5B2" rx="2"/>
    <path fill="#DE3617" fill-rule="nonzero" d="M3.69945659,10 L3.69945659,8.27359781 L6.01304687,8.27359781 L6.01304687,10 L6.71024715,10 L6.71024715,6 L6.01304687,6 L6.01304687,7.56771546 L3.69945659,7.56771546 L3.69945659,6 L3,6 L3,10 L3.69945659,10 Z M10.4370185,10 L10.4370185,9.2995896 L8.73420339,9.2995896 L8.73420339,6 L8.00217633,6 L8.00217633,10 L10.4370185,10 Z M11.9558858,10 L13.537392,6.53150685 L13.537392,6 L10.537392,6 L10.537392,6.71232877 L12.5993558,6.71232877 L11.029289,10 L11.9558858,10 Z"/>
  </g>
</svg>
