<?xml version="1.0" encoding="UTF-8"?>
<svg width="16px" height="16px" viewBox="0 0 16 16" version="1.1" xmlns="http://www.w3.org/2000/svg" xmlns:xlink="http://www.w3.org/1999/xlink">
    <title>EDIschemaHLTracked</title>
    <g id="EDIschemaHLTracked" stroke="none" stroke-width="1" fill="none" fill-rule="evenodd">
        <g id="EDIschemaHL7" transform="translate(0.500000, 1.500000)" fill-rule="nonzero">
            <rect id="Rectangle" stroke="#9AA5B2" fill="#FFFFFF" x="0" y="0" width="15" height="13" rx="2"></rect>
            <path d="M3.19945659,8.5 L3.19945659,6.77359781 L5.51304687,6.77359781 L5.51304687,8.5 L6.21024715,8.5 L6.21024715,4.5 L5.51304687,4.5 L5.51304687,6.06771546 L3.19945659,6.06771546 L3.19945659,4.5 L2.5,4.5 L2.5,8.5 L3.19945659,8.5 Z M9.9370185,8.5 L9.9370185,7.7995896 L8.23420339,7.7995896 L8.23420339,4.5 L7.50217633,4.5 L7.50217633,8.5 L9.9370185,8.5 Z M11.4558858,8.5 L13.037392,5.03150685 L13.037392,4.5 L10.037392,4.5 L10.037392,5.21232877 L12.0993558,5.21232877 L10.529289,8.5 L11.4558858,8.5 Z" id="Shape" fill="#DE3617"></path>
        </g>
        <circle id="Oval-Copy-4" fill="#5CB533" cx="11.5" cy="11.5" r="4.5"></circle>
        <path d="M12,9 L12,11 L14,11 L14,12 L12,12 L12,14 L11,14 L11,12 L9,12 L9,11 L11,11 L11,9 L12,9 Z" id="Combined-Shape-Copy-4" fill="#FFFFFF"></path>
    </g>
</svg>