<svg xmlns="http://www.w3.org/2000/svg" width="16" height="16" viewBox="0 0 16 16">
  <g fill="none" fill-rule="evenodd" transform="translate(0 3)">
    <rect width="15" height="9" x=".5" y=".5" fill="#B6E87B" stroke="#5CB533" rx="1"/>
    <path fill="#238400" fill-opacity=".726" fill-rule="nonzero" d="M4.08604407,7 C4.53025533,7 4.87696747,6.89886893 5.12618048,6.69660679 C5.37539349,6.49434464 5.5,6.21756487 5.5,5.86626747 C5.5,5.61255267 5.4335432,5.39831448 5.30062959,5.22355289 C5.16771598,5.04879131 4.9220007,4.87447328 4.56348374,4.7005988 C4.29240993,4.56930583 4.12058412,4.47837658 4.0480063,4.42781104 C3.97542847,4.37724551 3.92252536,4.32490574 3.88929696,4.27079175 C3.85606856,4.21667776 3.83945435,4.15324906 3.83945435,4.08050566 C3.83945435,3.96340652 3.88055264,3.86848525 3.96274921,3.79574185 C4.04494579,3.72299845 4.16299405,3.68662675 4.31689402,3.68662675 C4.4463099,3.68662675 4.57791186,3.70348193 4.7116999,3.73719228 C4.84548793,3.77090264 5.01469045,3.83033932 5.21930745,3.91550233 L5.21930745,3.91550233 L5.48163694,3.27411843 C5.28401539,3.18718119 5.09470094,3.11976048 4.9136936,3.07185629 C4.73268625,3.0239521 4.54249738,3 4.34312697,3 C3.9373907,3 3.6195348,3.09846973 3.38955929,3.29540918 C3.15958377,3.49234864 3.04459601,3.76291861 3.04459601,4.1071191 C3.04459601,4.28986472 3.07957328,4.44954535 3.14952781,4.58616101 C3.21948234,4.72277667 3.31304652,4.84253715 3.43022036,4.94544245 C3.54739419,5.04834775 3.72315495,5.15568862 3.95750262,5.26746507 C4.20759007,5.38811266 4.37329486,5.47593701 4.454617,5.53093812 C4.53593914,5.58593923 4.59758657,5.64315813 4.63955929,5.70259481 C4.681532,5.76203149 4.70251836,5.82989576 4.70251836,5.90618762 C4.70251836,6.04280328 4.65486184,6.14570858 4.55954879,6.21490353 C4.46423575,6.28409847 4.3273872,6.31869594 4.14900315,6.31869594 C4.00034977,6.31869594 3.83639384,6.29474385 3.65713536,6.24683965 C3.47787688,6.19893546 3.25883176,6.1164338 3,5.99933466 L3,5.99933466 L3,6.76580173 C3.31479538,6.92193391 3.67681007,7 4.08604407,7 Z M8.83333333,7 L8.83333333,6.2995896 L7.25376089,6.2995896 L7.25376089,5.26812585 L8.72347585,5.26812585 L8.72347585,4.57318741 L7.25376089,4.57318741 L7.25376089,3.69493844 L8.83333333,3.69493844 L8.83333333,3 L6.33333333,3 L6.33333333,7 L8.83333333,7 Z M11.5555556,7 C11.7962963,7 12.0319444,6.98358838 12.2625,6.95076514 C12.4930556,6.91794189 12.7388889,6.860723 13,6.77910845 L13,4.76180971 L11.3888889,4.76180971 L11.3888889,5.44843646 L12.1583333,5.44843646 L12.1583333,6.26014637 C11.9731481,6.29563096 11.7907407,6.31337325 11.6111111,6.31337325 C11.2666667,6.31337325 11.0041667,6.20204036 10.8236111,5.97937458 C10.6430556,5.7567088 10.5527778,5.43424263 10.5527778,5.01197605 C10.5527778,4.60745176 10.6648148,4.28542914 10.8888889,4.04590818 C11.112963,3.80638723 11.4111111,3.68662675 11.7833333,3.68662675 C12.1037037,3.68662675 12.412037,3.75759592 12.7083333,3.89953426 L12.9944444,3.23952096 C12.6074074,3.07984032 12.2055556,3 11.7888889,3 C11.1240741,3 10.6041667,3.1756487 10.2291667,3.52694611 C9.85416667,3.87824351 9.66666667,4.36793081 9.66666667,4.99600798 C9.66666667,5.64182746 9.82824074,6.13728099 10.1513889,6.4823686 C10.474537,6.8274562 10.9425926,7 11.5555556,7 Z"/>
  </g>
</svg>
