<svg xmlns="http://www.w3.org/2000/svg">
	<symbol id="DETexportIcon" viewBox="0 0 16 16">
			<path d="M14.5,2 C15.3284271,2 16,2.67157288 16,3.5 L16,13.5 C16,14.3284271 15.3284271,15 14.5,15 L1.5,15 C0.671572875,15 -8.8817842e-16,14.3284271 -8.8817842e-16,13.5 L-0.000533009451,7.95233923 C0.294873604,8.39632584 0.630147479,8.80334315 0.99950996,9.16612833 L1,13.5 C1,13.7454599 1.17687516,13.9496084 1.41012437,13.9919443 L1.5,14 L2,14 L1.99960386,9.98279167 C2.24466886,10.1470878 2.49956497,10.2944552 2.76316513,10.4234773 L2.99946699,10.532 L3,14 L14.5,14 C14.7454599,14 14.9496084,13.8231248 14.9919443,13.5898756 L15,13.5 L15,4 L3,4 L2.99946699,5.591 L2.77348859,5.47907183 C2.50677853,5.33707374 2.24826252,5.17004211 1.99999933,4.97924942 L2,4 L1,4 L0.999466991,4.012 L0.964934492,3.97184301 L0.110175299,2.93468984 C0.333392595,2.38646071 0.871564929,2 1.5,2 L14.5,2 Z M10,11 L10,12 L7,12 L7,11 L10,11 Z M0,4.7931798 C1.1238129,6.15788568 2.622493,7.07553274 4.29852236,7.28729745 L4.29852236,7.28729745 L4.29852236,5.69331075 L7.46103668,8.41951942 L4.29852236,11.117481 L4.29852236,9.68729745 C2.20841516,9.16965039 0.532385797,7.26376804 0,4.7931798 Z M13,9 L13,10 L9,10 L9,9 L13,9 Z M14,7 L14,8 L9,8 L9,7 L14,7 Z M10,5 L10,6 L7,6 L7,5 L10,5 Z" id="Combined-Shape" fill-rule="nonzero"></path>
	</symbol>
</svg>