<svg xmlns="http://www.w3.org/2000/svg">
	<symbol id="DETresubmitIcon" viewBox="0 0 16 16">
        <path d="M10.953939,1 C11.0850235,1 11.2113034,1.05195902 11.3070492,1.1453609 L14.838151,4.60053499 C14.9418417,4.70257481 15.000474,4.84480426 14.9999971,4.99355303 L14.9999971,14.4616275 C14.9999971,14.6043569 14.9455666,14.7413299 14.8487228,14.8423697 C14.751762,14.9432813 14.6203146,15 14.4832168,15 L4.51677429,15 C4.3798026,15 4.24835518,14.9432845 4.15139138,14.8423697 C4.0545506,14.7413331 3.99999711,14.6043601 3.99999711,14.4616275 L4.00028606,14.4616211 L3.99928463,13.7712029 C4.33275762,13.5314158 4.67821574,13.3205074 5.03339587,13.1398997 L5.03399765,13.9231524 L13.9633451,13.9231524 L13.9633451,5.53201531 L10.9541574,5.53201531 C10.8170658,5.53201531 10.6856184,5.47529981 10.5887745,5.37426001 C10.4918138,5.27334841 10.4373831,5.13637544 10.4373831,4.99351777 L10.4373831,2.07681238 L5.03399765,2.07681238 L5.03304372,6.33849328 C4.67731584,6.51079852 4.33269007,6.70678658 4.00055587,6.92472121 L4.00028606,1.53837253 C4.00028606,1.39564307 4.05483358,1.2586701 4.15167743,1.1576303 C4.24863817,1.0567187 4.38008558,1 4.51706034,1 L10.953939,1 Z M7.14074623,5.69331075 L11,9.08826873 L7.14074623,12.4832267 L7.14074623,10.7017141 C4.74641857,11.0042351 2.60544699,12.3151595 1,14.2647393 C1.76055114,10.7353276 4.15487879,8.01263848 7.14074623,7.27314268 L7.14074623,5.69331075 Z M3,5 L3,6 L1,6 L1,5 L3,5 Z M11.4709655,2.78390189 L11.4709655,4.45498177 L13.1762601,4.45498177 L11.4709655,2.78390189 Z M3,3 L3,4 L0,4 L0,3 L3,3 Z" id="Combined-Shape" fill-rule="nonzero"></path>
	</symbol>
</svg>