<?xml version="1.0" encoding="UTF-8"?>
<svg width="16px" height="16px" viewBox="0 0 16 16" version="1.1" xmlns="http://www.w3.org/2000/svg" xmlns:xlink="http://www.w3.org/1999/xlink">
    <title>RPOiconNewWindowHover</title>
    <g id="RPOiconNewWindowHover" stroke="none" stroke-width="1" fill="none" fill-rule="evenodd">
        <path d="M11.8680654,3.20004286 L7.48441329,7.58375372 C7.22712886,7.8410416 7.22671101,8.25936376 7.48451794,8.51706681 C7.74169792,8.77425023 8.16011893,8.77487701 8.41781854,8.51706681 L12.7995957,4.13523094 L12.7995957,5.60069107 C12.7995957,5.93111669 13.0682772,6.20023036 13.3996359,6.20023036 C13.7302714,6.20023036 13.9995689,5.93175954 13.9995689,5.60069107 L13.9995689,2.59964643 C13.9995689,2.43453808 13.9325017,2.28470282 13.8240005,2.1761145 C13.7152905,2.06740297 13.565567,2.00012589 13.4000457,2.00012589 L10.3990413,2.00012589 C10.0686201,2.00012589 9.79951002,2.26870385 9.79951002,2.60006696 C9.79951002,2.93081401 10.0679772,3.20011518 10.3990413,3.20011518 L11.8680654,3.20004286 Z M13.9997857,9.19998929 L13.9997857,6.34787189 L13.9997857,12.5045134 C13.9997857,13.3304703 13.4047544,14 12.669744,14 L3.33004174,14 C2.59543314,14 2,13.3291042 2,12.5045134 L2,3.49548665 C2,2.66952974 2.59503136,2 3.33004174,2 L9.73489877,2 L6.80005357,2 C7.13141225,2 7.40009375,2.26857796 7.40009375,2.59994107 C7.40009375,2.93130418 7.13141225,3.19998929 6.80005357,3.19998929 L3.54191201,3.19998929 C3.35106806,3.19998929 3.20029464,3.37922161 3.20029464,3.60019107 L3.20029464,12.3997554 C3.20029464,12.6167606 3.35326176,12.7999571 3.54191201,12.7999571 L12.4584094,12.7999571 C12.6492534,12.7999571 12.8000268,12.6207248 12.8000268,12.3997554 L12.8000268,9.1999625 C12.8000268,8.86859939 13.0687083,8.59991429 13.400067,8.59991429 C13.7314256,8.59991429 14,8.86859939 14,9.1999625 L13.9997857,9.19998929 Z" id="icon_new_window" fill="#2590CD" fill-rule="nonzero"></path>
    </g>
</svg>