<?xml version="1.0" encoding="UTF-8"?>
<svg xmlns="http://www.w3.org/2000/svg" width="14px" height="14px" viewBox="0 0 16 16" version="1.1">
    <g id="surface1">
        <path style=" stroke:none;fill-rule:nonzero;fill:#6B7A86;fill-opacity:1;" d="M 14.589844 8.015625 C 14.605469 7.644531 14.910156 7.347656 15.285156 7.347656 C 15.660156 7.347656 15.964844 7.644531 15.984375 8.015625 C 15.980469 11.257812 14.019531 14.179688 11.019531 15.40625 C 8.015625 16.632812 4.570312 15.917969 2.300781 13.605469 L 2.300781 15.210938 C 2.300781 15.597656 1.988281 15.910156 1.601562 15.910156 C 1.21875 15.910156 0.90625 15.597656 0.90625 15.210938 L 0.90625 11.628906 C 0.910156 11.246094 1.21875 10.9375 1.601562 10.9375 L 5.226562 10.9375 C 5.480469 10.925781 5.722656 11.058594 5.855469 11.277344 C 5.988281 11.496094 5.988281 11.773438 5.855469 11.992188 C 5.722656 12.210938 5.480469 12.34375 5.226562 12.332031 L 3.011719 12.332031 C 4.8125 14.414062 7.714844 15.15625 10.296875 14.195312 C 12.875 13.234375 14.582031 10.773438 14.585938 8.023438 Z M 13.898438 0.699219 C 13.886719 0.441406 14.015625 0.199219 14.238281 0.0703125 C 14.457031 -0.0625 14.730469 -0.0625 14.953125 0.0703125 C 15.171875 0.199219 15.304688 0.441406 15.292969 0.699219 L 15.292969 4.316406 C 15.292969 4.699219 14.984375 5.007812 14.601562 5.011719 L 11.011719 5.011719 C 10.757812 5.023438 10.515625 4.890625 10.382812 4.671875 C 10.25 4.453125 10.25 4.175781 10.382812 3.957031 C 10.515625 3.738281 10.757812 3.605469 11.011719 3.617188 L 12.910156 3.617188 C 11.085938 1.582031 8.195312 0.882812 5.644531 1.859375 C 3.09375 2.835938 1.410156 5.285156 1.410156 8.015625 C 1.421875 8.273438 1.292969 8.515625 1.074219 8.644531 C 0.851562 8.777344 0.578125 8.777344 0.355469 8.644531 C 0.136719 8.515625 0.0078125 8.273438 0.015625 8.015625 C 0.0195312 5.191406 1.515625 2.574219 3.953125 1.140625 C 6.390625 -0.292969 9.402344 -0.332031 11.875 1.042969 C 12.632812 1.460938 13.3125 2 13.898438 2.640625 Z M 13.898438 0.699219 "/>
    </g>
</svg>
