<svg xmlns="http://www.w3.org/2000/svg">
	<symbol id="LOGiconDownload" viewBox="0 0 16 16">
        <path d="M12.3617742,11.8550326 C12.9640096,11.8550326 13.4522178,12.3432408 13.4522178,12.9454762 C13.4522178,13.5477115 12.9640096,14.0359197 12.3617742,14.0359197 L3.63822579,14.0359197 C3.03599044,14.0359197 2.54778223,13.5477115 2.54778223,12.9454762 C2.54778223,12.3432408 3.03599044,11.8550326 3.63822579,11.8550326 L12.3617742,11.8550326 Z M8.76331049,1.03591972 L8.7632238,8.08424652 L11.1879257,6.00610422 L11.2884332,5.93311315 C11.6023019,5.74199712 12.0173145,5.80082864 12.2642301,6.08889687 C12.5385808,6.40897268 12.5015133,6.89085058 12.1814375,7.16520128 L12.1814375,7.16520128 L8,10.7492906 L3.8185625,7.16520128 L3.73105842,7.07703958 C3.49418736,6.79609302 3.48885423,6.3769651 3.73576986,6.08889687 L3.73576986,6.08889687 L3.82393155,6.00139279 C4.10487811,5.76452173 4.52400603,5.7591886 4.81207426,6.00610422 L4.81207426,6.00610422 L7.23660282,8.0864274 L7.23668951,1.03591972 L8.76331049,1.03591972 Z" id="Combined-Shape" fill-rule="nonzero"></path>
	</symbol>
</svg>