<svg xmlns="http://www.w3.org/2000/svg" width="24" height="24" viewBox="0 0 24 24">
  <path fill="#9AA5B2" fill-rule="evenodd" d="M12,1 L16,5 L12,9 L12,6 L11.7753032,6.00414409 C8.56911674,6.12259298 6,8.76522727 6,12 C6,12.6996277 6.11995858,13.3752638 6.34325665,14.0003175 L6.35,14 C7.14354839,16.2548387 9.24823101,17.8915713 11.7486707,17.9948206 L12,18 L12.2246968,17.9958559 C15.4308833,17.877407 18,15.2347727 18,12 L20,12 C20,15.5310553 17.7152035,18.526013 14.5426135,19.5878704 C14.1123323,19.8289379 13.2926595,20 12,20 C9.14504739,20 6.65331652,18.5061041 5.24225501,16.2581803 L5.07780612,15.9929519 C4.39663265,14.8208673 4,13.4578571 4,12 C4,7.66339623 7.44618014,4.13539338 11.7507268,4.00380502 L12,4 L12,1 Z"/>
</svg>
