<?xml version="1.0" encoding="UTF-8"?>
<svg xmlns="http://www.w3.org/2000/svg" class="DOCicon" viewBox="0 0 24 24" width="20" height="20" fill="none" stroke="currentColor" stroke-width="2" stroke-linecap="round" stroke-linejoin="round" role="img" aria-hidden="true" focusable="false">
   <!-- Reprocess loop (two chasing arrows) -->
   <path d="M6 15c0 2.2 1.8 4 4 4h2"></path>
   <polyline points="11 21 12 19 10 19"></polyline>
   <path d="M18 9c0-2.2-1.8-4-4-4h-2"></path>
   <polyline points="13 3 12 5 14 5"></polyline>

   <!-- Document with dog-ear (Feather-style file) -->
   <path d="M14 2H6a2 2 0 0 0-2 2v16a2 2 0 0 0 2 2h12a2 2 0 0 0 2-2V8z"></path>
   <polyline points="14 2 14 8 20 8"></polyline>
</svg>