<svg xmlns="http://www.w3.org/2000/svg">
   <symbol id="CORiconDashboard" viewBox="0 0 24 24">
      <path fill-rule="evenodd" d="M20,4 L4,4 C2.9,4 2.01,4.9 2.01,6 L2,18 C2,19.1 2.9,20 4,20 L20,20 C21.1,20 22,19.1 22,18 L22,6 C22,4.9 21.1,4 20,4 L20,4 Z M15,18 L7,18 L7,15 L15,15 L15,18 L15,18 Z M6,18 L4,18 L4,15 L6,15 L6,18 L6,18 Z M15,14 L7,14 L7,11 L15,11 L15,14 L15,14 Z M15,10 L7,10 L7,8 L15,8 L15,10 L15,10 Z M6,14 L4,14 L4,11 L6,11 L6,14 L6,14 Z M6,10 L4,10 L4,8 L6,8 L6,10 L6,10 Z M20,14 L16,14 L16,11 L20,11 L20,14 L20,14 Z M20,10 L16,10 L16,8 L20,8 L20,10 L20,10 Z M20,18 L16,18 L16,15 L20,15 L20,18 L20,18 Z"/>
   </symbol>
</svg>