<svg xmlns="http://www.w3.org/2000/svg">
	<symbol id="CORiconSettings" viewBox="0 0 24 24">
		<g transform="translate(2 2)">
			<path d="M11.503133,20.0000015 L8.49935198,20.0000015 C8.11752521,20.0000015 7.79720874,19.7120063 7.75698966,19.3323414 L7.5345795,17.2383115 C7.22409802,17.1326575 6.92078062,17.0070217 6.62652908,16.8621921 L4.99004806,18.1855752 C4.69346262,18.4244255 4.26459849,18.4016979 3.99492431,18.1328389 L1.87083266,16.0089583 C1.60194693,15.7393109 1.57921713,15.3104894 1.8180911,15.0139334 L3.14210325,13.375625 C2.99701089,13.0814509 2.87119424,12.7781582 2.76544891,12.4676648 L0.667728039,12.2437842 C0.288214549,12.2035892 0,11.8835917 0,11.5019931 L0,8.49801304 C0,8.11641445 0.288214549,7.79641701 0.667728039,7.75622199 L2.76196598,7.53383393 C2.86771131,7.22334053 2.99352796,6.92004783 3.13862032,6.62587374 L1.81460817,4.98756528 C1.5757342,4.69100931 1.598464,4.26218778 1.86734972,3.9925404 L3.99144138,1.86865981 C4.26111555,1.5998008 4.68997969,1.57707326 4.98656513,1.81592349 L6.62503639,3.13930657 C6.91928794,2.99447697 7.22260534,2.86884126 7.53308682,2.76318717 L7.75549698,0.669157318 C7.79506383,0.288332316 8.11644018,-0.000770192023 8.49935198,1.54140962e-06 L11.503133,1.54140962e-06 C11.8849598,1.54140962e-06 12.2052763,0.287999838 12.2454954,0.667664781 L12.4674079,2.76169463 C12.7780517,2.86734691 13.0815348,2.99298239 13.3759559,3.13781403 L15.0139296,1.81443095 C15.3105151,1.57558072 15.7393792,1.59830826 16.0090534,1.86716727 L18.133145,3.99104787 C18.4020308,4.26069525 18.4247606,4.68951677 18.1858866,4.98607274 L16.8618744,6.6243812 C17.0067581,6.91864985 17.1325691,7.22192888 17.2385288,7.5323414 L19.3327667,7.75472946 C19.712083,7.79516075 20,8.11509299 20,8.4965205 L20,11.5005006 C20.00073,11.8818154 19.7138522,12.2023486 19.334757,12.2437842 L17.240519,12.4661722 C17.1345594,12.7765848 17.0087484,13.0798638 16.8638647,13.3741324 L18.1878768,15.0124409 C18.4267508,15.3089969 18.404021,15.7378184 18.1351353,16.0074658 L16.0110436,18.1328389 C15.7413695,18.4016979 15.3125053,18.4244255 15.0159199,18.1855752 L13.3779462,16.8621921 C13.083525,17.0070238 12.780042,17.1326593 12.4693982,17.2383115 L12.2474856,19.3323414 C12.2071878,19.7127645 11.8857206,20.0011109 11.503133,20.0000015 Z M9.16956783,18.5074658 L10.8309269,18.5074658 L11.0344297,16.5890578 C11.0671168,16.28166 11.2859614,16.0262349 11.5847332,15.9467693 C12.1104374,15.8065965 12.6151005,15.5969546 13.0853798,15.3233862 C13.3534692,15.1671909 13.6902434,15.1931397 13.931235,15.3885603 L15.4318816,16.6009981 L16.6066252,15.4263712 L15.3920767,13.9303513 C15.1966367,13.6893837 15.1706853,13.352643 15.3268961,13.0845802 C15.5999164,12.6146534 15.8089172,12.1103573 15.9483508,11.5850777 C16.0278899,11.2861796 16.2835832,11.0673183 16.5912008,11.034829 L18.5093018,10.8308489 L18.5093018,9.16965483 L16.5912008,8.96567473 C16.2835832,8.93318534 16.0278899,8.71432413 15.9483508,8.41542597 C15.8089589,7.88997469 15.5999571,7.38550872 15.3268961,6.91542597 C15.1706853,6.64736321 15.1966367,6.31062249 15.3920767,6.06965483 L16.604635,4.56915732 L15.4298914,3.39453045 L13.9292447,4.60696826 C13.6882531,4.80238883 13.351479,4.82833767 13.0833896,4.67214239 C12.6133185,4.39934632 12.1089993,4.19037749 11.5837381,4.05074936 C11.2849663,3.97128375 11.0661217,3.71585859 11.0334346,3.4084608 L10.8319221,1.4925404 L9.16956783,1.4925404 L8.96606502,3.41094836 C8.93330638,3.71848299 8.71423102,3.97394657 8.41526402,4.05323692 C7.89037852,4.19349996 7.38654943,4.40314298 6.91710521,4.67662 C6.64901581,4.83281528 6.31224163,4.80686644 6.07125002,4.61144588 L4.57209609,3.39701801 L3.39785006,4.57164488 L4.61090591,6.07214239 C4.8061868,6.3132172 4.83193967,6.64995193 4.67558896,6.91791354 C4.40298282,7.38804521 4.19400552,7.89228459 4.05413417,8.41741602 C3.97466067,8.71615814 3.71921013,8.93498094 3.41178179,8.96766478 L1.49318319,9.17164488 L1.49318319,10.8323414 L3.41178179,11.0363215 C3.71921013,11.0690053 3.97466067,11.2878281 4.05413417,11.5865703 C4.1939729,12.1111618 4.40277933,12.6148907 4.6750914,13.0845802 C4.8314421,13.3525418 4.80568924,13.6892765 4.61040835,13.9303513 L3.39785006,15.4283613 L4.57259365,16.6029882 L6.07373783,15.3905504 C6.31472944,15.1951298 6.65150362,15.1691809 6.91959302,15.3253762 C7.38945286,15.5982434 7.89361747,15.8072175 8.41874696,15.9467693 C8.71771396,16.0260596 8.93678931,16.2815232 8.96954795,16.5890578 L9.16956783,18.5074658 Z"/>
			<path d="M10.0009937,14.5452767 C7.49052375,14.545002 5.4555828,12.509892 5.45576599,9.99967145 C5.45594918,7.48945091 7.49118713,5.45463791 10.0016571,5.45472949 C12.5121271,5.45482106 14.5472166,7.48978255 14.5472166,10.0000031 C14.5444739,12.5093458 12.5105861,14.5428089 10.0009937,14.5452767 Z M10.0009937,6.94726677 C8.31491127,6.94754153 6.94826845,8.31441977 6.94845163,10.0003347 C6.94863481,11.6862496 8.31557464,13.0528309 10.0016571,13.0527394 C11.6877396,13.0526478 13.054531,11.685918 13.054531,10.0000031 C13.0526111,8.31462497 11.6865396,6.94891182 10.0009937,6.94726677 L10.0009937,6.94726677 Z"/>
		</g>
	</symbol>
</svg>