<svg xmlns="http://www.w3.org/2000/svg">
	<symbol id="CORiconHelp" viewBox="0 0 24 24">
		<g stroke="none" stroke-width="1" fill-rule="evenodd">
      	<path d="M12,2.25 C17.3847763,2.25 21.75,6.61522369 21.75,12 C21.75,17.3847763 17.3847763,21.75 12,21.75 C6.61522369,21.75 2.25,17.3847763 2.25,12 C2.25,6.61522369 6.61522369,2.25 12,2.25 Z M12,4.25 C7.71979319,4.25 4.25,7.71979319 4.25,12 C4.25,16.2802068 7.71979319,19.75 12,19.75 C16.2802068,19.75 19.75,16.2802068 19.75,12 C19.75,7.71979319 16.2802068,4.25 12,4.25 Z M12.9686014,14.8530012 L12.9686014,16.5996347 L11.1485799,16.5996347 L11.1485799,14.8530012 L12.9686014,14.8530012 Z M11.9118147,7.36282014 C12.7146968,7.33285391 13.5063028,7.55902706 14.1721639,8.0086342 C14.7838734,8.46959305 15.1163509,9.21212606 15.0528195,9.97543157 C15.069902,10.4452084 14.936172,10.9081198 14.6712021,11.2964149 C14.4156323,11.6084565 14.1194515,11.8848918 13.7905466,12.11836 L13.7905466,12.11836 L13.3502188,12.4412671 C13.1351774,12.6135893 12.9808854,12.8501704 12.909891,13.1164363 C12.8493185,13.3463131 12.8197017,13.5832469 12.8218255,13.8209607 L12.8218255,13.8209607 L11.1779351,13.8209607 C11.1753252,13.3436267 11.244597,12.86862 11.3834214,12.4119119 C11.5774397,12.0449254 11.8599526,11.7321432 12.2053666,11.5019012 L12.2053666,11.5019012 L12.7755597,11.0450016 C12.8582143,10.9707564 12.9327983,10.8877631 12.9979566,10.7973767 C13.1526322,10.5841224 13.2349334,10.326931 13.232798,10.0634971 C13.2391718,9.7586178 13.1464658,9.45989873 12.9686014,9.21219677 C12.7924703,8.95778517 12.4695632,8.83057937 11.9998803,8.83057937 C11.6065288,8.79398036 11.2243229,8.973842 11.001804,9.30026232 C10.8128245,9.58821744 10.7109012,9.92456451 10.7082522,10.2689834 L10.7082522,10.2689834 L8.9469411,10.2689834 C8.98608135,9.13391628 9.38726887,8.32175617 10.1505037,7.8325031 C10.6789685,7.50689523 11.2913911,7.34358255 11.9118147,7.36282014 Z" fill-rule="nonzero"></path>
		</g>
	</symbol>
</svg>