<svg xmlns="http://www.w3.org/2000/svg">
   <symbol id="LOGicontrash" viewBox="0 0 16 16">
      <path d="M6.09 6.333v6c0 .188-.138.334-.317.334h-.637a.322.322 0 0 1-.318-.334v-6c0-.187.14-.333.318-.333h.637c.179 0 .318.146.318.333Zm2.546 0v6c0 .188-.139.334-.318.334h-.636a.322.322 0 0 1-.318-.334v-6c0-.187.139-.333.318-.333h.636c.18 0 .318.146.318.333Zm2.546 0v6c0 .188-.14.334-.318.334h-.637a.322.322 0 0 1-.318-.334v-6c0-.187.14-.333.318-.333h.637c.179 0 .318.146.318.333Zm1.273 7.542V4h-8.91v9.875c0 .5.269.792.319.792h8.272c.05 0 .319-.292.319-.792ZM5.773 2.667h4.454l-.477-1.22a.382.382 0 0 0-.169-.114H6.429a.334.334 0 0 0-.17.115l-.486 1.219ZM15 3v.667c0 .187-.14.333-.318.333h-.955v9.875c0 1.146-.716 2.125-1.59 2.125H3.863c-.875 0-1.591-.937-1.591-2.083V4h-.955A.322.322 0 0 1 1 3.667V3c0-.188.14-.333.318-.333h3.073l.696-1.74C5.286.417 5.882 0 6.409 0h3.182c.527 0 1.123.417 1.322.927l.696 1.74h3.073c.179 0 .318.145.318.333Z" fill-rule="evenodd"/>
   </symbol>
</svg>