<svg xmlns="http://www.w3.org/2000/svg">
	<symbol id="LOGiconClear" viewBox="0 0 16 16">
			<path d="M8,14 C11.3137743,14 14,11.3137743 14,8 C14,4.6862257 11.3137743,2 8,2 C4.6862257,2 2,4.6862257 2,8 C2,11.3137743 4.6862257,14 8,14 Z M8.74868433,8 L10.49198,9.74329562 C10.6987804,9.95009611 10.6987804,10.2851732 10.49198,10.49198 C10.2851795,10.6987868 9.95010242,10.6987804 9.74329562,10.49198 L8,8.74868433 L6.25670438,10.49198 C6.04990389,10.6987804 5.71482684,10.6987804 5.50802004,10.49198 C5.30121325,10.2851795 5.30121955,9.95010242 5.50802004,9.74329562 L7.25131567,8 L5.50802004,6.25670438 C5.30121955,6.04990389 5.30121955,5.71482684 5.50802004,5.50802004 C5.71482053,5.30121325 6.04989758,5.30121955 6.25670438,5.50802004 L8,7.25131567 L9.74329562,5.50802004 C9.95009611,5.30121955 10.2851732,5.30121955 10.49198,5.50802004 C10.6987868,5.71482053 10.6987804,6.04989758 10.49198,6.25670438 L8.74868433,8 Z" id="Shape" fill-rule="nonzero"></path>
	</symbol>
</svg>