<svg xmlns="http://www.w3.org/2000/svg" width="16" height="16" viewBox="0 0 16 16">
  <g fill="none" fill-rule="evenodd" transform="translate(1 1)">
    <path fill="#E5F3FA" d="M8,0 L8,6 L5,6 C4.48716416,6 4.06449284,6.38604019 4.00672773,6.88337887 L4,7 L4,9 L0,9 L0,0 L8,0 Z"/>
    <path fill="#2590CD" fill-opacity=".502" fill-rule="nonzero" d="M8,0 L8,6 L7,6 L7,1 L1,1 L1,8 L4,8 L4,9 L0,9 L0,0 L8,0 Z"/>
    <rect width="4" height="1" x="2" y="2" fill="#2590CD" fill-opacity=".5"/>
    <rect width="4" height="1" x="2" y="4" fill="#2590CD" fill-opacity=".5"/>
    <path fill="#52B026" fill-rule="nonzero" d="M6.90820312,7 L6.90820312,14 L5.09179688,14 L5.09179688,7 L6.90820312,7 Z M10.270404,7 L10.654148,7.01117191 C11.6514101,7.07075543 12.4402308,7.36867305 13.0206101,7.90492476 C13.6735367,8.50820793 14,9.35088919 14,10.4329685 C14,11.5852713 13.6611707,12.4678523 12.983512,13.0807114 C12.3736191,13.6322845 11.5199918,13.9356498 10.4226298,13.9908071 L10.0478153,14 L8.24063868,14 L8.24063868,7 L10.270404,7 Z M10.3519793,8.4 L9.70457597,8.4 L9.70457597,12.6 L10.186747,12.6 C11.7289157,12.6 12.5,11.8926471 12.5,10.4779412 C12.5,9.17922794 11.8706971,8.48928653 10.6120912,8.40811696 L10.3519793,8.4 Z"/>
  </g>
</svg>
