<svg xmlns="http://www.w3.org/2000/svg">
   <symbol id="DASHiconDragSplitter" viewBox="0 0 16 16">
      <g fill-rule="nonzero"><path d="M.207 8.573a.833.833 0 0 1 0-1.1l4.335-4.3c.184-.2.553-.2.737 0l.092.1c.185.3.185.7-.092 1l-3.78 3.7 3.78 3.7c.277.3.277.7.092 1-.092.3-.46.4-.737.2h-.092l-4.335-4.3ZM15.793 8.573c.276-.3.276-.8 0-1.1l-4.335-4.3a.529.529 0 0 0-.737 0l-.092.1c-.185.3-.185.7.092 1l3.78 3.7-3.78 3.7c-.277.3-.277.7-.092 1 .092.3.46.4.737.2h.092l4.335-4.3Z"/></g>
   </symbol>
</svg>