<svg xmlns="http://www.w3.org/2000/svg" width="20" height="16" viewBox="0 0 20 16">
  <g fill="none" fill-rule="evenodd">
    <path fill="#6B7A86" d="M11.0057176,10.8050314 L10.3733562,10.8050314 L10.1492281,10.5889079 C10.9336764,9.67638651 11.4059463,8.49170955 11.4059463,7.20297313 C11.4059463,4.32933105 9.07661521,2 6.20297313,2 C3.32933105,2 1,4.32933105 1,7.20297313 C1,10.0766152 3.32933105,12.4059463 6.20297313,12.4059463 C7.49170955,12.4059463 8.67638651,11.9336764 9.58890795,11.1492281 L9.80503145,11.3733562 L9.80503145,12.0057176 L13.8073185,16 L15,14.8073185 L11.0057176,10.8050314 L11.0057176,10.8050314 Z M6.25,10.75 C4.31333333,10.75 2.75,9.18666667 2.75,7.25 C2.75,5.31333333 4.31333333,3.75 6.25,3.75 C8.18666667,3.75 9.75,5.31333333 9.75,7.25 C9.75,9.18666667 8.18666667,10.75 6.25,10.75 L6.25,10.75 Z"/>
    <polygon fill="#6B7A86" points="17 6 20 9.75 14 9.75" transform="rotate(-180 17 7.875)"/>
  </g>
</svg>
