<?xml version="1.0" encoding="UTF-8"?>
<svg width="153px" height="19px" viewBox="0 0 153 19" version="1.1" xmlns="http://www.w3.org/2000/svg" xmlns:xlink="http://www.w3.org/1999/xlink">
    <title>READONLY</title>
    <g id="Page-1" stroke="none" stroke-width="1" fill="none" fill-rule="evenodd" opacity="0.799405053">
        <path d="M4.392,17.8846154 L4.392,12.5086154 L7.296,12.5086154 L10.896,17.8846154 L15.216,17.8846154 L11.112,11.8846154 C13.248,11.0926154 14.712,9.38861538 14.712,6.67661538 L14.712,6.62861538 C14.712,5.04461538 14.208,3.72461538 13.272,2.78861538 C12.168,1.68461538 10.512,1.08461538 8.376,1.08461538 L0.696,1.08461538 L0.696,17.8846154 L4.392,17.8846154 Z M8.136,9.24461538 L4.392,9.24461538 L4.392,4.42061538 L8.064,4.42061538 C9.864,4.42061538 10.968,5.23661538 10.968,6.82061538 L10.968,6.86861538 C10.968,8.28461538 9.936,9.24461538 8.136,9.24461538 Z M31.84,17.8846154 L31.84,14.5966154 L22.72,14.5966154 L22.72,11.0686154 L30.64,11.0686154 L30.64,7.78061538 L22.72,7.78061538 L22.72,4.37261538 L31.72,4.37261538 L31.72,1.08461538 L19.048,1.08461538 L19.048,17.8846154 L31.84,17.8846154 Z M38.456,17.8846154 L39.992,14.1166154 L47.096,14.1166154 L48.632,17.8846154 L52.496,17.8846154 L45.296,0.964615385 L41.888,0.964615385 L34.688,17.8846154 L38.456,17.8846154 Z M45.776,10.8526154 L41.312,10.8526154 L43.544,5.40461538 L45.776,10.8526154 Z M62.64,17.8846154 C67.92,17.8846154 71.568,14.2126154 71.568,9.48461538 L71.568,9.43661538 C71.568,4.70861538 67.92,1.08461538 62.64,1.08461538 L56.088,1.08461538 L56.088,17.8846154 L62.64,17.8846154 Z M62.64,14.5486154 L59.784,14.5486154 L59.784,4.42061538 L62.64,4.42061538 C65.664,4.42061538 67.704,6.50861538 67.704,9.48461538 L67.704,9.53261538 C67.704,12.5086154 65.664,14.5486154 62.64,14.5486154 Z M92.216,18.1726154 C97.4,18.1726154 101.168,14.2606154 101.168,9.48461538 L101.168,9.43661538 C101.168,4.66061538 97.448,0.796615385 92.264,0.796615385 C87.08,0.796615385 83.312,4.70861538 83.312,9.48461538 L83.312,9.53261538 C83.312,14.3086154 87.032,18.1726154 92.216,18.1726154 Z M92.264,14.7646154 C89.288,14.7646154 87.176,12.3646154 87.176,9.48461538 L87.176,9.43661538 C87.176,6.55661538 89.24,4.20461538 92.216,4.20461538 C95.192,4.20461538 97.304,6.60461538 97.304,9.48461538 L97.304,9.53261538 C97.304,12.4126154 95.24,14.7646154 92.264,14.7646154 Z M109.104,17.8846154 L109.104,7.20461538 L117.24,17.8846154 L120.384,17.8846154 L120.384,1.08461538 L116.736,1.08461538 L116.736,11.4286154 L108.864,1.08461538 L105.456,1.08461538 L105.456,17.8846154 L109.104,17.8846154 Z M137.488,17.8846154 L137.488,14.5246154 L129.112,14.5246154 L129.112,1.08461538 L125.416,1.08461538 L125.416,17.8846154 L137.488,17.8846154 Z M146.576,17.8846154 L146.576,11.1886154 L153.032,1.08461538 L148.832,1.08461538 L144.752,7.82861538 L140.744,1.08461538 L136.424,1.08461538 L142.88,11.2606154 L142.88,17.8846154 L146.576,17.8846154 Z" id="READONLY" fill="#C9D0D5" fill-rule="nonzero"></path>
    </g>
</svg>