<?xml version="1.0" encoding="UTF-8"?>
<svg width="16px" height="16px" viewBox="0 0 16 16" version="1.1" xmlns="http://www.w3.org/2000/svg" xmlns:xlink="http://www.w3.org/1999/xlink">
    <title>TRANSiconLabelBranch</title>
    <g id="TRANSiconLabelBranch" stroke="none" stroke-width="1" fill="none" fill-rule="evenodd">
        <path d="M5.04122367,1.03491805 C6.14579317,1.03491805 7.04122367,1.93034855 7.04122367,3.03491805 C7.04122367,3.91150738 6.47727686,4.65637988 5.6924021,4.92651666 L5.69093463,8.62783797 L5.87877748,8.55721401 L9.80312101,7.28623267 C10.1186699,7.18403552 10.3425939,6.90930629 10.3842233,6.58671709 L10.3912237,6.47758578 L10.3910444,5.89194218 C9.60564912,5.62209385 9.04122367,4.87696124 9.04122367,4 C9.04122367,2.8954305 9.93665417,2 11.0412237,2 C12.1457932,2 13.0412237,2.8954305 13.0412237,4 C13.0412237,4.87658933 12.4772769,5.62146182 11.6924021,5.8915986 L11.6912237,6.47758578 C11.6912237,7.35493944 11.1591005,8.13822301 10.3571363,8.46679598 L10.2036699,8.52298673 L6.27932634,9.79396807 C5.96377749,9.89616521 5.73985341,10.1708944 5.69822408,10.4934836 L5.69122367,10.602615 L5.6924021,11.1128934 C6.47727686,11.3830302 7.04122367,12.1279026 7.04122367,13.004492 C7.04122367,14.1090615 6.14579317,15.004492 5.04122367,15.004492 C3.93665417,15.004492 3.04122367,14.1090615 3.04122367,13.004492 C3.04122367,12.1279026 3.60517049,11.3830302 4.39004525,11.1128934 L4.39004525,4.92651666 C3.60517049,4.65637988 3.04122367,3.91150738 3.04122367,3.03491805 C3.04122367,1.93034855 3.93665417,1.03491805 5.04122367,1.03491805 Z M5.04122367,12.004492 C4.48893892,12.004492 4.04122367,12.4522072 4.04122367,13.004492 C4.04122367,13.5567767 4.48893892,14.004492 5.04122367,14.004492 C5.59350842,14.004492 6.04122367,13.5567767 6.04122367,13.004492 C6.04122367,12.4522072 5.59350842,12.004492 5.04122367,12.004492 Z M11.0412237,3 C10.4889389,3 10.0412237,3.44771525 10.0412237,4 C10.0412237,4.55228475 10.4889389,5 11.0412237,5 C11.5935084,5 12.0412237,4.55228475 12.0412237,4 C12.0412237,3.44771525 11.5935084,3 11.0412237,3 Z M5.04122367,2.03491805 C4.48893892,2.03491805 4.04122367,2.4826333 4.04122367,3.03491805 C4.04122367,3.5872028 4.48893892,4.03491805 5.04122367,4.03491805 C5.59350842,4.03491805 6.04122367,3.5872028 6.04122367,3.03491805 C6.04122367,2.4826333 5.59350842,2.03491805 5.04122367,2.03491805 Z" id="Combined-Shape" fill="#6B7A86" fill-rule="nonzero"></path>
    </g>
</svg>