<svg xmlns="http://www.w3.org/2000/svg" width="16" height="16" viewBox="0 0 16 16">
  <path fill="#6B7A86" fill-rule="evenodd" d="M12,0 L12,2.187 L12.1878123,2 L15,4.81204286 L12,7.812 L12,15 L0,15 L0,0 L12,0 Z M11,1 L1,1 L1,14 L11,14 L11,8.812 L6.81218771,13 L4,13 L4,10.1879571 L4.187,10 L3,10 L3,9 L5.187,9 L7.187,7 L3,7 L3,6 L8.187,6 L11,3.187 L11,1 Z M12.1878123,3.19326259 L4.94,10.44 L6.559,12.059 L13.8072426,4.81204286 L12.1878123,3.19326259 Z M9,3 L9,4 L3,4 L3,3 L9,3 Z" transform="translate(1)"/>
</svg>
