<svg xmlns="http://www.w3.org/2000/svg" width="16" height="16" viewBox="0 0 16 16">
  <path fill="#6B7A86" d="M12,16 L0,16 L0,0 L12,0 L12,2 L15,2 C15.5522847,2 16,2.44771525 16,3 L16,11 C16,11.5522847 15.5522847,12 15,12 L12,12 L12,16 Z M15,3 L10,3 L10,11 L15,11 L15,3 Z M14,8.03325 L12.4997086,10.03325 L11,8.03325 L14,8.03325 Z M9,10 L9,5 L1,5 L1,10 L9,10 Z M8,8 L8,9 L3,9 L3,8 L8,8 Z M5,6 L5,7 L2,7 L2,6 L5,6 Z M12.4997086,4 L14,6 L11,6 L12.4997086,4 Z M10,12 C9.44771525,12 9,11.5522847 9,11 L1,11 L1,15 L11,15 L11,12 L10,12 Z M11,1 L1,1 L1,4 L9,4 L9,3 C9,2.44771525 9.44771525,2 10,2 L11,2 L11,1 Z"/>
</svg>
