<svg xmlns="http://www.w3.org/2000/svg" width="16" height="16" viewBox="0 0 16 16">
  <path fill="#6B7A86" d="M16,0 L16,1 L13,1 L13,15 L16,15 L16,16 L1,16 L1,0 L16,0 Z M12,1 L2,1 L2,15 L12,15 L12,1 Z M15,12 L15,13 L14,13 L14,12 L15,12 Z M10,10 L10,11 L7,11 L7,10 L10,10 Z M15,10 L15,11 L14,11 L14,10 L15,10 Z M6,8 L4.99980571,10 L4,8 L6,8 Z M11,8 L11,9 L7,9 L7,8 L11,8 Z M15,8 L15,9 L14,9 L14,8 L15,8 Z M15,6 L15,7 L14,7 L14,6 L15,6 Z M10,5 L10,6 L6,6 L6,5 L10,5 Z M5,3 L3.99980571,5 L3,3 L5,3 Z M15,4 L15,5 L14,5 L14,4 L15,4 Z M9,3 L9,4 L6,4 L6,3 L9,3 Z M15,2 L15,3 L14,3 L14,2 L15,2 Z"/>
</svg>
