<?xml version="1.0" encoding="UTF-8"?>
<svg width="16px" height="16px" viewBox="0 0 16 16" version="1.1" xmlns="http://www.w3.org/2000/svg" xmlns:xlink="http://www.w3.org/1999/xlink">
    <title>button_terminal</title>
    <g id="button_terminal" stroke="none" stroke-width="1" fill="none" fill-rule="evenodd">
        <path d="M15,2 C15.5522847,2 16,2.44771525 16,3 L16,13 C16,13.5522847 15.5522847,14 15,14 L1,14 C0.44771525,14 0,13.5522847 0,13 L0,3 C0,2.44771525 0.44771525,2 1,2 L15,2 Z M15,5 L1,5 L1,13 L15,13 L15,5 Z M3.44998186,5.96692552 L5.92729565,8.41250414 C6.13882713,8.62132584 6.16233063,8.94803961 5.99780614,9.18305955 L5.92729565,9.26648453 L3.44998186,11.7120631 L2.60694123,10.8580828 L4.651,8.839 L2.60694123,6.82090591 L3.44998186,5.96692552 Z M10.0554517,10.2635526 L10.0554517,11.4635526 L6.30336826,11.4635526 L6.30336826,10.2635526 L10.0554517,10.2635526 Z M15,3 L1,3 L1,4 L15,4 L15,3 Z" id="Combined-Shape" fill="#6B7A86" fill-rule="nonzero"></path>
    </g>
</svg>