<svg xmlns="http://www.w3.org/2000/svg" width="16" height="16" viewBox="0 0 16 16">
  <path fill="#6B7A86" fill-rule="evenodd" d="M13.8077006,3.60539188 C15.1392112,4.60916847 16,6.20406023 16,8 C16,11.0375661 13.5375661,13.5 10.5,13.5 L5.5,13.5 C5.33159535,13.5 5.16495847,13.4924313 5.00041096,13.4776155 L5,15 L3,13 L5,11 L5,12.471 L5.117362,12.4839607 C5.17400399,12.4887301 5.23094459,12.4924504 5.2881643,12.495102 L5.5,12.5 L10.5,12.5 C12.9852814,12.5 15,10.4852814 15,8 C15,6.48004977 14.2464328,5.1361046 13.0925242,4.32139039 L13.8077006,3.60539188 Z M11,1 L13,3 L11,5 L11,3.528 L10.882638,3.5160393 C10.825996,3.51126988 10.7690554,3.50754962 10.7118357,3.50489799 L10.5,3.5 L5.5,3.5 C3.01471863,3.5 1,5.51471863 1,8 C1,9.51995023 1.75356723,10.8638954 2.90747579,11.6786096 L2.19229938,12.3946081 C0.860788848,11.3908315 0,9.79593977 0,8 C0,4.96243388 2.46243388,2.5 5.5,2.5 L10.5,2.5 C10.6687442,2.5 10.8357134,2.50759925 11.0005843,2.52247419 L11,1 Z M7,4.5 L11,8 L7,11.5 L7,4.5 Z"/>
</svg>
