<?xml version="1.0" encoding="UTF-8"?>
<svg width="16px" height="16px" viewBox="0 0 16 16" version="1.1" xmlns="http://www.w3.org/2000/svg" xmlns:xlink="http://www.w3.org/1999/xlink">
    <title>button_git_commit</title>
    <g id="button_git_commit" stroke="none" stroke-width="1" fill="none" fill-rule="evenodd">
        <path d="M8,5.45793533 C10.8304593,5.45793533 13.125,7.75247599 13.125,10.5829353 C13.125,13.4133947 10.8304593,15.7079353 8,15.7079353 C5.16954066,15.7079353 2.875,13.4133947 2.875,10.5829353 C2.875,7.75247599 5.16954066,5.45793533 8,5.45793533 Z M8,6.20793533 C5.58375422,6.20793533 3.625,8.16668955 3.625,10.5829353 C3.625,12.9991811 5.58375422,14.9579353 8,14.9579353 C10.4162458,14.9579353 12.375,12.9991811 12.375,10.5829353 C12.375,8.16668955 10.4162458,6.20793533 8,6.20793533 Z M8.625,8.08293533 L8.625,9.95793533 L10.5,9.95793533 L10.5,11.2079353 L8.625,11.2079353 L8.625,13.0829353 L7.375,13.0829353 L7.375,11.2069353 L5.5,11.2079353 L5.5,9.95793533 L7.375,9.95693533 L7.375,8.08293533 L8.625,8.08293533 Z M11.2363297,2.74985928 C13.0020609,2.77151478 14.4201734,4.17022753 14.4146503,5.88466851 C14.411832,6.74927883 14.0474698,7.53138003 13.4604537,8.0956911 C13.3514336,7.85388042 13.2263526,7.62208353 13.0871384,7.40005 C13.4127957,7.02788584 13.6209514,6.5574946 13.6585159,6.04320329 L13.6646502,5.88224531 C13.6686568,4.63842678 12.6744764,3.60585931 11.3955102,3.50730195 L11.2271322,3.49980289 L10.842797,3.49508928 L10.6221789,3.18034595 C9.8830982,2.12594158 8.57243389,1.5828419 7.26791745,1.79564871 C6.03538799,1.99671223 5.02817311,2.83654725 4.63509014,3.9652041 L4.57532939,4.15592784 L4.44165073,4.63491675 L3.94840295,4.69821746 C2.9751147,4.82312394 2.27665416,5.64967821 2.33930449,6.5807299 C2.36603091,6.97791332 2.52752567,7.33910165 2.78005225,7.62305947 C2.65018857,7.85090402 2.53476488,8.08902765 2.43521067,8.33526694 C1.95376783,7.90983982 1.63659723,7.30875626 1.59099672,6.63108342 C1.50141318,5.29977524 2.4906229,4.12915002 3.85293502,3.95431836 C4.27377258,2.44639979 5.56025887,1.31430657 7.14716551,1.05543322 C8.73407215,0.796559876 10.3310016,1.45827918 11.2363297,2.74985928 Z" id="Combined-Shape" fill="#6B7A86" fill-rule="nonzero"></path>
    </g>
</svg>