<svg xmlns="http://www.w3.org/2000/svg" width="16" height="16" viewBox="0 0 16 16">
  <path fill="#6B7A86" d="M12.4643513,0 C13.3700281,0 14.1626678,0.608608112 14.3965266,1.48357124 L15.9321753,7.22907326 C15.9771984,7.39752366 16,7.57113853 16,7.74550202 L16,12 C16,13.1045695 15.1045695,14 14,14 L2,14 C0.8954305,14 0,13.1045695 0,12 L0,7.75111306 C0,7.57687911 0.0227676899,7.40339211 0.0677248324,7.23505814 L1.60368111,1.48394508 C1.8374077,0.608797731 2.63013565,0 3.53595627,0 L12.4643513,0 Z M12.4643513,1 L3.53595627,1 C3.12421963,1 2.75921549,1.25156931 2.60845276,1.62606476 L2.56981869,1.74197254 L1.03386242,7.4930856 C1.0188767,7.54919692 1.00882198,7.60645336 1.00378391,7.66420217 L1,7.75111306 L1,12 C1,12.5128358 1.38604019,12.9355072 1.88337887,12.9932723 L2,13 L14,13 C14.5128358,13 14.9355072,12.6139598 14.9932723,12.1166211 L15,12 L15,7.74550202 C15,7.68738086 14.994933,7.62942605 14.9848849,7.57229181 L14.9660876,7.48728764 L13.4304389,1.74178562 C13.3241395,1.34407511 12.9869388,1.05642865 12.5862839,1.00741616 L12.4643513,1 Z M13,7 C13.5522847,7 14,7.44771525 14,8 L14,11 C14,11.5522847 13.5522847,12 13,12 L3,12 C2.44771525,12 2,11.5522847 2,11 L2,8 C2,7.44771525 2.44771525,7 3,7 L13,7 Z M9,8 L3,8 L3,11 L9,11 L9,10 L4,10 L4,9 L9,9 L9,8 Z M13,8 L10,8 L10,11 L13,11 L13,8 Z" transform="translate(0 1)"/>
</svg>
