<?xml version="1.0" encoding="UTF-8"?>
<svg width="16px" height="16px" viewBox="0 0 16 16" version="1.1" xmlns="http://www.w3.org/2000/svg" xmlns:xlink="http://www.w3.org/1999/xlink">
    <title>PRJaddFileIcon</title>
    <g id="PRJaddFileIcon" stroke="none" stroke-width="1" fill="none" fill-rule="evenodd">
        <path d="M13,11 L13,13 L15,13 L15,14 L13,14 L13,16 L12,16 L12,14 L10,14 L10,13 L12,13 L12,11 L13,11 Z M13,3 L13,9 L12,9 L12,4 L4,4 L4,13 L8,13 L8,14 L3,14 L3,3 L13,3 Z M11,8 L11,9 L5,9 L5,8 L11,8 Z M11,6 L11,7 L5,7 L5,6 L11,6 Z" id="Combined-Shape-Copy-9" fill="#35617D" fill-rule="nonzero"></path>
    </g>
</svg>