<svg xmlns="http://www.w3.org/2000/svg" xmlns:xlink="http://www.w3.org/1999/xlink">
   <symbol id="SETiconHidePassword" viewBox="0 0 16 16">
		<path d="M14.535808,5.9546043 C14.7821007,5.58792173 15.2791159,5.49027685 15.6459356,5.73656959 C16.0127553,5.98286234 16.1104002,6.47987751 15.8639703,6.84669722 C15.0263775,8.09396652 14.1427393,9.1193063 13.2140844,9.9179166 L14.0925112,11.4387836 C14.3133573,11.8214088 14.182243,12.3106618 13.7996108,12.5314942 C13.444311,12.7366719 12.9971263,12.638235 12.7581912,12.3168092 L12.7067631,12.238731 L11.9156613,10.8682399 C10.9236469,11.4726575 9.88493584,11.8372144 8.800248,11.956802 L8.79998016,13.5994165 C8.79998016,14.0412527 8.44186894,14.3993639 8.00003273,14.3993639 C7.58967054,14.3993639 7.25165058,14.0905277 7.20529669,13.6926385 L7.19993959,13.5994233 L7.19993959,11.956946 C6.11525175,11.8373481 5.07636923,11.4726644 4.08425202,10.8682467 L3.29315024,12.2387378 L3.24185582,12.316816 C3.00279387,12.6382418 2.55559885,12.7366753 2.20029904,12.531501 C1.81767375,12.3106549 1.6865663,11.8214157 1.9075324,11.4387904 L2.78568487,9.91778631 C1.85702998,9.11917602 0.973528986,8.09383624 0.135936168,6.84670407 C-0.110356577,6.47988436 -0.0127219858,5.98288291 0.35397087,5.73657645 C0.720790581,5.49028371 1.21779203,5.5879183 1.46409849,5.95461115 C3.47730409,8.95232259 5.6496626,10.4007445 7.99992816,10.4007445 C10.3500909,10.4007445 12.522518,8.95245973 14.5357578,5.95461115 L14.535808,5.9546043 Z" id="eye-shut" fill="" fill-rule="nonzero"></path>
	</symbol>
</svg>