<svg xmlns="http://www.w3.org/2000/svg" xmlns:xlink="http://www.w3.org/1999/xlink">
    <symbol id="SETiconShowPassword" viewBox="0 0 16 16">
        <path d="M8,2.40012446 C10.9518251,2.40012446 13.5793725,4.15179987 15.8641963,7.55400678 C16.0452679,7.82374216 16.0452679,8.17623041 15.8641963,8.44599322 C13.579201,11.8483373 10.9516879,13.5998755 8,13.5998755 C5.04831208,13.5998755 2.42062753,11.8482001 0.135803702,8.44599322 C-0.0452679007,8.17625784 -0.0452679007,7.82376959 0.135803702,7.55400678 C2.42079896,4.15166272 5.04831208,2.40012446 8,2.40012446 Z M8,4.00004971 C5.7921484,4.00004971 3.74132702,5.27826876 1.83193568,7.918262 L1.77287106,8.00022629 L1.83193568,8.08219057 C3.67978352,10.6370515 5.6599756,11.916402 7.78674063,11.9962885 L7.99995886,12.0003065 C10.2078105,12.0003065 12.2586318,10.7220875 14.1680232,8.08209423 L14.2262821,8.00012994 L14.1680232,7.91816566 C12.3201753,5.36330473 10.3399833,4.08395425 8.21321822,4.0040677 L8,4.00004971 Z M8,4.80014949 C9.76734415,4.80014949 11.1999877,6.232793 11.1999877,8.00013714 C11.1999877,9.76748129 9.76734415,11.2001248 8,11.2001248 C6.23265585,11.2001248 4.80001234,9.76748129 4.80001234,8.00013714 C4.80001234,6.232793 6.23265585,4.80014949 8,4.80014949 Z M8,6.40007474 C7.11634507,6.40007474 6.3999376,7.11648221 6.3999376,8.00013714 C6.3999376,8.88379207 7.11634507,9.60019954 8,9.60019954 C8.88365493,9.60019954 9.6000624,8.88379207 9.6000624,8.00013714 C9.6000624,7.11648221 8.88365493,6.40007474 8,6.40007474 Z" id="eye" fill="" fill-rule="nonzero"></path>
	 </symbol>
</svg>