<?xml version="1.0" encoding="UTF-8"?>
<svg id="CARDcopyIcon" width="16px" height="16px" viewBox="0 0 16 16" version="1.1" xmlns="http://www.w3.org/2000/svg" xmlns:xlink="http://www.w3.org/1999/xlink">
    <title>icon-copy-1</title>
    <g id="icon-copy-1" stroke="none" stroke-width="1" fill="none" fill-rule="evenodd">
        <path d="M3,4 L3,5 C2.48716416,5 2.06449284,5.38604019 2.00672773,5.88337887 L2,6 L2,13 C2,13.5128358 2.38604019,13.9355072 2.88337887,13.9932723 L3,14 L10,14 C10.5128358,14 10.9355072,13.6139598 10.9932723,13.1166211 L11,13 L12,13 C12,14.1045695 11.1045695,15 10,15 L3,15 C1.8954305,15 1,14.1045695 1,13 L1,6 C1,4.8954305 1.8954305,4 3,4 Z M13,1 C14.1045695,1 15,1.8954305 15,3 L15,10 C15,11.1045695 14.1045695,12 13,12 L6,12 C4.8954305,12 4,11.1045695 4,10 L4,3 C4,1.8954305 4.8954305,1 6,1 L13,1 Z M13,2 L6,2 C5.48716416,2 5.06449284,2.38604019 5.00672773,2.88337887 L5,3 L5,10 C5,10.5128358 5.38604019,10.9355072 5.88337887,10.9932723 L6,11 L13,11 C13.5128358,11 13.9355072,10.6139598 13.9932723,10.1166211 L14,10 L14,3 C14,2.48716416 13.6139598,2.06449284 13.1166211,2.00672773 L13,2 Z" id="Combined-Shape" fill="#6B7A86" fill-rule="nonzero"></path>
    </g>
</svg>