<?xml version="1.0" encoding="UTF-8"?>
<svg width="44px" height="44px" viewBox="0 0 44 44" version="1.1" xmlns="http://www.w3.org/2000/svg" xmlns:xlink="http://www.w3.org/1999/xlink">
    <title>icon-create-integrations</title>
    <g id="icon-create-integrations" stroke="none" stroke-width="1" fill="none" fill-rule="evenodd">
        <g id="Group">
            <rect id="Rectangle" fill="#E5F3FA" x="0" y="0" width="44" height="44" rx="6"></rect>
            <path d="M22.5,28 L22.5,30 L27.8571429,30 C30.0662819,30 31.8571429,31.790861 31.8571429,34 C31.8571429,36.209139 30.0662819,38 27.8571429,38 L15.2857143,38 C13.0765753,38 11.2857143,36.209139 11.2857143,34 C11.2857143,31.790861 13.0765753,30 15.2857143,30 L20.5,30 L20.5,28 L22.5,28 Z M27.8571429,32 L15.2857143,32 C14.1811448,32 13.2857143,32.8954305 13.2857143,34 C13.2857143,35.0543618 14.1015921,35.9181651 15.1364519,35.9945143 L15.2857143,36 L27.8571429,36 C28.9617124,36 29.8571429,35.1045695 29.8571429,34 C29.8571429,32.9456382 29.0412651,32.0818349 28.0064052,32.0054857 L27.8571429,32 Z M22.5,18 L22.5,21 L25.5,21 L25.5,23 L22.5,23 L22.5,26 L20.5,26 L20.5,22.999 L17.5,23 L17.5,21 L20.5,20.999 L20.5,18 L22.5,18 Z M27.8571429,6 C30.0662819,6 31.8571429,7.790861 31.8571429,10 C31.8571429,12.209139 30.0662819,14 27.8571429,14 L22.5,14 L22.5,16 L20.5,16 L20.5,14 L15.2857143,14 C13.0765753,14 11.2857143,12.209139 11.2857143,10 C11.2857143,7.790861 13.0765753,6 15.2857143,6 L27.8571429,6 Z M27.8571429,8 L15.2857143,8 C14.1811448,8 13.2857143,8.8954305 13.2857143,10 C13.2857143,11.0543618 14.1015921,11.9181651 15.1364519,11.9945143 L15.2857143,12 L27.8571429,12 C28.9617124,12 29.8571429,11.1045695 29.8571429,10 C29.8571429,8.9456382 29.0412651,8.08183488 28.0064052,8.00548574 L27.8571429,8 Z" id="Combined-Shape" fill="#2590CD" fill-rule="nonzero"></path>
        </g>
    </g>
</svg>