<?xml version="1.0" encoding="UTF-8"?>
<svg width="16px" height="16px" viewBox="0 0 16 16" version="1.1" xmlns="http://www.w3.org/2000/svg" xmlns:xlink="http://www.w3.org/1999/xlink">
    <title>icon-match-case</title>
    <g id="icon-match-case" stroke="none" stroke-width="1" fill="none" fill-rule="evenodd">
        <path d="M3.80566406,11.5742188 L4.24511719,9.77246094 L6.17382812,9.77246094 L6.62304688,11.5742188 L8.06347656,11.5742188 L6.09570312,4.28417969 L4.33300781,4.28417969 L2.36523438,11.5742188 L3.80566406,11.5742188 Z M5.89550781,8.5859375 L4.53320312,8.5859375 L5.21191406,5.60253906 L5.89550781,8.5859375 Z M10.65625,11.7158203 C10.9817708,11.7158203 11.2796224,11.6507161 11.5498047,11.5205078 C11.819987,11.3902995 12.0413411,11.2047526 12.2138672,10.9638672 L12.2138672,10.9638672 L12.2138672,11.5742188 L13.6347656,11.5742188 L13.6347656,8.45410156 C13.6347656,7.52311198 13.4549154,6.87695312 13.0952148,6.515625 C12.7355143,6.15429688 12.1113281,5.97363281 11.2226562,5.97363281 C10.8580729,5.97363281 10.5130208,6.00455729 10.1875,6.06640625 C9.86197917,6.12825521 9.54134115,6.22428385 9.22558594,6.35449219 L9.22558594,6.35449219 L9.22558594,7.57519531 C9.57389323,7.38639323 9.90836589,7.24886068 10.2290039,7.16259766 C10.5496419,7.07633464 10.8808594,7.03320312 11.2226562,7.03320312 C11.5481771,7.03320312 11.7947591,7.09261068 11.9624023,7.21142578 C12.1300456,7.33024089 12.2138672,7.50520833 12.2138672,7.73632812 L12.2138672,7.73632812 L12.2138672,7.97558594 L11.2226562,7.97558594 C10.3567708,7.97558594 9.7171224,8.12776693 9.30371094,8.43212891 C8.89029948,8.73649089 8.68359375,9.20768229 8.68359375,9.84570312 C8.68359375,10.4348958 8.85693359,10.8938802 9.20361328,11.2226562 C9.55029297,11.5514323 10.0345052,11.7158203 10.65625,11.7158203 Z M11.0224609,10.7246094 C10.7718099,10.7246094 10.5732422,10.6513672 10.4267578,10.5048828 C10.2802734,10.3583984 10.2070312,10.1614583 10.2070312,9.9140625 C10.2070312,9.58203125 10.3128255,9.34765625 10.5244141,9.2109375 C10.7360026,9.07421875 11.108724,9.00585938 11.6425781,9.00585938 L11.6425781,9.00585938 L12.2138672,9.00585938 L12.2138672,9.10351562 C12.2138672,9.61458333 12.1097005,10.0125326 11.9013672,10.2973633 C11.6930339,10.582194 11.4000651,10.7246094 11.0224609,10.7246094 Z" id="Aa" fill="#9AA5B2" fill-rule="nonzero"></path>
    </g>
</svg>