<?xml version="1.0" encoding="UTF-8"?>
<svg width="16px" height="16px" viewBox="0 0 16 16" version="1.1" xmlns="http://www.w3.org/2000/svg" xmlns:xlink="http://www.w3.org/1999/xlink">
    <title>icon-refresh-search</title>
    <g id="icon-refresh-search" stroke="none" stroke-width="1" fill="none" fill-rule="evenodd">
        <path d="M4.26667169,6.88890542 L3.13331402,6.88890542 C3.33327513,5.95559749 3.8221858,5.13336032 4.4666328,4.46669762 C5.37778721,3.55555225 6.62219691,3 7.99998016,3 C9.48885511,3 10.8666582,3.66670238 11.7999952,4.75554511 L13,3.55555225 L13,6.88886574 L9.66665344,6.88886574 L11.0222144,5.53331825 C10.2888583,4.64441481 9.19998492,4.1111045 7.99998016,4.1111045 C6.93326958,4.1111045 5.9555276,4.55550661 5.24441367,5.24445093 C4.79992778,5.71111481 4.46665265,6.26666706 4.26661217,6.88886574 L4.26667169,6.88890542 Z M10.7555863,10.7555491 C10.0444724,11.466656 9.08891305,11.8888955 8.00001984,11.8888955 C6.82225723,11.8888955 5.71112187,11.3555852 4.97778563,10.4666817 L6.33334656,9.11113426 L3,9.11113426 L3,12.4444478 L4.20000476,11.2444549 C5.13332196,12.3333175 6.51112504,13 8.00001984,13 C9.37782293,13 10.6222525,12.4444478 11.5333672,11.5333024 C12.1778142,10.8888618 12.6667249,10.0444422 12.866686,9.11109458 L11.7111655,9.11109458 C11.5333692,9.73329325 11.2000921,10.2888455 10.7556062,10.7555094 L10.7555863,10.7555491 Z" id="Shape" fill="#6B7A86" fill-rule="nonzero"></path>
    </g>
</svg>