<?xml version="1.0" encoding="UTF-8"?>
<svg width="16px" height="16px" viewBox="0 0 16 16" version="1.1" xmlns="http://www.w3.org/2000/svg" xmlns:xlink="http://www.w3.org/1999/xlink">
    <title>icon-replace-one</title>
    <g id="icon-replace-one" stroke="none" stroke-width="1" fill="none" fill-rule="evenodd">
        <path d="M12.25,7.5 C13.0296961,7.5 13.6704487,8.09488808 13.7431334,8.85553999 L13.75,9 L13.75,14.5 C13.75,15.2796961 13.1551119,15.9204487 12.39446,15.9931334 L12.25,16 L3.75,16 C2.97030388,16 2.32955132,15.4051119 2.25686658,14.64446 L2.25,14.5 L2.25,9 C2.25,8.22030388 2.84488808,7.57955132 3.60553999,7.50686658 L3.75,7.5 L12.25,7.5 Z M12.25,8.5 L3.75,8.5 C3.50454011,8.5 3.30039163,8.67687516 3.25805567,8.91012437 L3.25,9 L3.25,14.5 C3.25,14.7454599 3.42687516,14.9496084 3.66012437,14.9919443 L3.75,15 L12.25,15 C12.4954599,15 12.6996084,14.8231248 12.7419443,14.5898756 L12.75,14.5 L12.75,9 C12.75,8.72385763 12.5261424,8.5 12.25,8.5 Z M8.36401367,9.73681641 C8.5690918,9.73681641 8.76676432,9.76074219 8.95703125,9.80859375 C9.08387587,9.84049479 9.2104673,9.88404225 9.33680556,9.93923611 L9.52612305,10.0307617 L9.52612305,10.9467773 L9.41407776,10.8582306 C9.29936218,10.7751312 9.17663574,10.708374 9.04589844,10.657959 C8.87158203,10.5907389 8.69099935,10.5571289 8.50415039,10.5571289 C8.17830404,10.5571289 7.92765299,10.6608073 7.75219727,10.8681641 C7.57674154,11.0755208 7.48901367,11.3706055 7.48901367,11.753418 C7.48901367,12.1362305 7.57674154,12.4301758 7.75219727,12.6352539 C7.92765299,12.840332 8.17830404,12.9428711 8.50415039,12.9428711 C8.69783529,12.9428711 8.87898763,12.9104004 9.04760742,12.845459 C9.17407227,12.7967529 9.29541016,12.7291412 9.41162109,12.6426239 L9.52612305,12.5498047 L9.52612305,13.4692383 L9.35332574,13.5590549 C9.23534252,13.6134892 9.11178928,13.6570367 8.98266602,13.6896973 C8.78898112,13.7386882 8.58048503,13.7631836 8.35717773,13.7631836 C7.76700846,13.7631836 7.30558268,13.5854492 6.97290039,13.2299805 C6.6402181,12.8745117 6.47387695,12.3823242 6.47387695,11.753418 C6.47387695,11.1222331 6.64135742,10.6283366 6.97631836,10.2717285 C7.3112793,9.91512044 7.7738444,9.73681641 8.36401367,9.73681641 Z M8.74954329,2.00205342 L8.74954329,3.00205342 L6.74954329,3.00205342 C6.23670745,3.00205342 5.81403613,3.38809361 5.75627102,3.8854323 L5.74954329,4.00205342 L5.74892036,4.97305342 L6.39339859,4.43565124 L7.52492036,4.43565124 L5.74892036,5.99705342 L5.74954329,6.00205342 L5.74292036,6.00205342 L5.25134515,6.43565124 L4.75892036,6.00205342 L4.74954329,6.00205342 L4.74892036,5.99305342 L3.02492036,4.47712814 L4.18539714,4.47712814 L4.74892036,4.96005342 L4.74954329,4.00205342 C4.74954329,2.94769163 5.56542108,2.0838883 6.60028095,2.00753916 L6.74954329,2.00205342 L8.74954329,2.00205342 Z M10.8668113,0.0150982195 L10.8668113,2.04878963 L10.943032,1.92799861 C11.0478497,1.77542049 11.1654278,1.65674861 11.2957664,1.57198299 C11.4586895,1.46602595 11.6426902,1.41304744 11.8477683,1.41304744 C12.3012188,1.41304744 12.6504213,1.58622452 12.8953757,1.93257869 C13.1403302,2.27893285 13.2628074,2.77567765 13.2628074,3.42281306 C13.2628074,4.0608339 13.1420392,4.55530004 12.9005027,4.9062115 C12.6589662,5.25712296 12.319448,5.43257869 11.881948,5.43257869 C11.6518048,5.43257869 11.4512839,5.37675187 11.2803855,5.26509822 C11.1094871,5.15344457 10.971629,4.98710343 10.8668113,4.76607478 L10.8668113,4.76607478 L10.8668113,5.33345759 L9.86876441,5.33345759 L9.86876441,0.0150982195 L10.8668113,0.0150982195 Z M11.5674949,2.24703181 C11.3510235,2.24703181 11.1801251,2.35184952 11.0547996,2.56148494 C10.929474,2.77112035 10.8668113,3.06050838 10.8668113,3.429649 C10.8668113,3.79878963 10.929474,4.08817765 11.0547996,4.29781306 C11.1801251,4.50744848 11.3510235,4.61226619 11.5674949,4.61226619 C11.7839662,4.61226619 11.9537253,4.50744848 12.0767722,4.29781306 C12.1998191,4.08817765 12.2613425,3.79878963 12.2613425,3.429649 C12.2613425,3.06050838 12.1998191,2.77112035 12.0767722,2.56148494 C11.9537253,2.35184952 11.7839662,2.24703181 11.5674949,2.24703181 Z" id="Combined-Shape-Copy-11" fill="#6B7A86" fill-rule="nonzero"></path>
    </g>
</svg>