<?xml version="1.0" encoding="UTF-8"?>
<svg width="16px" height="16px" viewBox="0 0 16 16" version="1.1" xmlns="http://www.w3.org/2000/svg" xmlns:xlink="http://www.w3.org/1999/xlink">
    <title>icon-replace-all</title>
    <g id="icon-replace-all" stroke="none" stroke-width="1" fill="none" fill-rule="evenodd">
        <path d="M13.5,6 C14.2796961,6 14.9204487,6.59488808 14.9931334,7.35553999 L15,7.5 L15,12.5 C15,13.2796961 14.4051119,13.9204487 13.64446,13.9931334 L13.5,14 L13,14 L13,14.5 C13,15.3284271 12.3284271,16 11.5,16 L11.5,16 L3,16 C2.17157288,16 1.5,15.3284271 1.5,14.5 L1.5,14.5 L1.5,9.5 C1.5,8.67157288 2.17157288,8 3,8 L3,8 L3.5,8 L3.5,7.5 C3.5,6.72030388 4.09488808,6.07955132 4.85553999,6.00686658 L5,6 L13.5,6 Z M11.5,9 L3,9 C2.72385763,9 2.5,9.22385763 2.5,9.5 L2.5,9.5 L2.5,14.5 C2.5,14.7761424 2.72385763,15 3,15 L3,15 L11.5,15 C11.7761424,15 12,14.7761424 12,14.5 L12,14.5 L12,9.5 C12,9.22385763 11.7761424,9 11.5,9 L11.5,9 Z M5.55078125,10.2802734 C6.08398437,10.2802734 6.45849609,10.3886719 6.67431641,10.6054688 C6.89013672,10.8222656 6.99804687,11.2099609 6.99804687,11.7685547 L6.99804687,11.7685547 L6.99804687,13.640625 L6.14550781,13.640625 L6.14550781,13.2744141 L6.06237793,13.3765869 C5.97375488,13.4725342 5.86865234,13.5498047 5.74707031,13.6083984 C5.58496094,13.6865234 5.40625,13.7255859 5.2109375,13.7255859 C4.83789062,13.7255859 4.54736328,13.6269531 4.33935547,13.4296875 C4.13134766,13.2324219 4.02734375,12.9570312 4.02734375,12.6035156 C4.02734375,12.2207031 4.15136719,11.9379883 4.39941406,11.7553711 C4.64746094,11.5727539 5.03125,11.4814453 5.55078125,11.4814453 L5.55078125,11.4814453 L6.14550781,11.4814453 L6.14550781,11.3378906 L6.13947266,11.2587305 C6.12337891,11.1585742 6.07509766,11.0799805 5.99462891,11.0229492 C5.89404297,10.9516602 5.74609375,10.9160156 5.55078125,10.9160156 C5.34570312,10.9160156 5.14697266,10.9418945 4.95458984,10.9936523 C4.76220703,11.0454102 4.56152344,11.1279297 4.35253906,11.2412109 L4.35253906,11.2412109 L4.35253906,10.5087891 L4.54296875,10.4375 C4.67057292,10.3945312 4.79947917,10.3606771 4.9296875,10.3359375 C5.125,10.2988281 5.33203125,10.2802734 5.55078125,10.2802734 Z M9.4765625,10.2744141 C9.65234375,10.2744141 9.82177734,10.2949219 9.98486328,10.3359375 C10.1479492,10.3769531 10.3105469,10.4404297 10.4726562,10.5263672 L10.4726562,10.5263672 L10.4726562,11.3115234 L10.3435872,11.2124023 C10.2548286,11.1518555 10.1606445,11.1023763 10.0610352,11.0639648 C9.91162109,11.0063477 9.75683594,10.9775391 9.59667969,10.9775391 C9.31738281,10.9775391 9.10253906,11.0664062 8.95214844,11.2441406 C8.80175781,11.421875 8.7265625,11.6748047 8.7265625,12.0029297 C8.7265625,12.3310547 8.80175781,12.5830078 8.95214844,12.7587891 C9.10253906,12.9345703 9.31738281,13.0224609 9.59667969,13.0224609 C9.76269531,13.0224609 9.91796875,12.9946289 10.0625,12.9389648 C10.2070312,12.8833008 10.34375,12.7988281 10.4726562,12.6855469 L10.4726562,12.6855469 L10.4726562,13.4736328 L10.3245443,13.5506185 C10.2234158,13.5972765 10.117513,13.6346029 10.0068359,13.6625977 C9.84082031,13.7045898 9.66210937,13.7255859 9.47070312,13.7255859 C8.96484375,13.7255859 8.56933594,13.5732422 8.28417969,13.2685547 C7.99902344,12.9638672 7.85644531,12.5419922 7.85644531,12.0029297 C7.85644531,11.4619141 8,11.0385742 8.28710937,10.7329102 C8.57421875,10.4272461 8.97070312,10.2744141 9.4765625,10.2744141 Z M6.14550781,12.0996094 L5.80273437,12.0996094 L5.65063477,12.1030273 C5.41056315,12.1144206 5.23763021,12.1542969 5.13183594,12.2226562 C5.00488281,12.3046875 4.94140625,12.4453125 4.94140625,12.6445312 C4.94140625,12.7929688 4.98535156,12.9111328 5.07324219,12.9990234 C5.16113281,13.0869141 5.28027344,13.1308594 5.43066406,13.1308594 C5.65722656,13.1308594 5.83300781,13.0454102 5.95800781,12.8745117 C6.08300781,12.7036133 6.14550781,12.4648438 6.14550781,12.1582031 L6.14550781,12.1582031 L6.14550781,12.0996094 Z M13.5,7 L5,7 C4.75454011,7 4.55039163,7.17687516 4.50805567,7.41012437 L4.5,7.5 L4.5,8 L11.5,8 C12.3284271,8 13,8.67157288 13,9.5 L13,9.5 L13,13 L13.5,13 C13.7454599,13 13.9496084,12.8231248 13.9919443,12.5898756 L14,12.5 L14,7.5 C14,7.25454011 13.8231248,7.05039163 13.5898756,7.00805567 L13.5,7 Z M6.00558528,1.00205342 L6.00558528,2.00205342 L4.00558528,2.00205342 C3.49274944,2.00205342 3.07007812,2.38809361 3.01231301,2.8854323 L3.00558528,3.00205342 L3.00496235,3.97305342 L3.64944057,3.43565124 L4.78096235,3.43565124 L3.00496235,4.99705342 L3.00558528,5.00205342 L2.99896235,5.00205342 L2.50738714,5.43565124 L2.01496235,5.00205342 L2.00558528,5.00205342 L2.00496235,4.99305342 L0.280962352,3.47712814 L1.44143913,3.47712814 L2.00496235,3.96005342 L2.00558528,3.00205342 C2.00558528,1.94769163 2.82146307,1.0838883 3.85632293,1.00753916 L4.00558528,1.00205342 L6.00558528,1.00205342 Z M8.33285408,1.18917576 C8.86605721,1.18917576 9.24056892,1.29757419 9.45638924,1.51437107 C9.67220955,1.73116794 9.78011971,2.11886326 9.78011971,2.67745701 L9.78011971,2.67745701 L9.78011971,4.54952732 L8.92758064,4.54952732 L8.92758064,4.18331638 L8.84445076,4.28548923 C8.75582771,4.3814365 8.65072517,4.45870701 8.52914314,4.51730076 C8.36703377,4.59542576 8.18832283,4.63448826 7.99301033,4.63448826 C7.61996346,4.63448826 7.32943611,4.53585544 7.1214283,4.33858982 C6.91342049,4.14132419 6.80941658,3.86593357 6.80941658,3.51241794 C6.80941658,3.12960544 6.93344002,2.8468906 7.18148689,2.66427341 C7.42953377,2.48165623 7.81332283,2.39034763 8.33285408,2.39034763 L8.33285408,2.39034763 L8.92758064,2.39034763 L8.92758064,2.24679294 L8.92154549,2.16763279 C8.90545174,2.06747654 8.85717049,1.98888279 8.77670174,1.93185154 C8.6761158,1.86056248 8.52816658,1.82491794 8.33285408,1.82491794 C8.12777596,1.82491794 7.92904549,1.85079685 7.73666267,1.90255466 C7.54427986,1.95431248 7.34359627,2.03683201 7.13461189,2.15011326 L7.13461189,2.15011326 L7.13461189,1.41769138 L7.32504158,1.34640232 C7.45264575,1.30343357 7.581552,1.2695794 7.71176033,1.24483982 C7.90707283,1.20773044 8.11410408,1.18917576 8.33285408,1.18917576 Z M11.4412525,-0.00906643048 L11.4412525,1.73409763 L11.5235584,1.60638157 C11.6090687,1.48717991 11.704192,1.39352146 11.8089283,1.32540623 C11.9485767,1.23458591 12.1062916,1.18917576 12.2820728,1.18917576 C12.6707447,1.18917576 12.9700611,1.33761326 13.180022,1.63448826 C13.389983,1.93136326 13.4949635,2.35714451 13.4949635,2.91183201 C13.4949635,3.45870701 13.3914478,3.88253513 13.1844166,4.18331638 C12.9773853,4.48409763 12.6863697,4.63448826 12.3113697,4.63448826 C12.1141041,4.63448826 11.9422291,4.58663669 11.7957447,4.49093357 C11.6492603,4.39523044 11.5310963,4.25265232 11.4412525,4.06319919 L11.4412525,4.06319919 L11.4412525,4.54952732 L10.5857838,4.54952732 L10.5857838,-0.00906643048 L11.4412525,-0.00906643048 Z M8.92758064,3.00851169 L8.58480721,3.00851169 L8.4327076,3.01192966 C8.19263598,3.02332289 8.01970304,3.06319919 7.91390877,3.13155857 C7.78695564,3.21358982 7.72347908,3.35421482 7.72347908,3.55343357 C7.72347908,3.70187107 7.76742439,3.82003513 7.85531502,3.90792576 C7.94320564,3.99581638 8.06234627,4.03976169 8.21273689,4.03976169 C8.43929939,4.03976169 8.61508064,3.95431248 8.74008064,3.78341404 C8.86508064,3.6125156 8.92758064,3.37374607 8.92758064,3.06710544 L8.92758064,3.06710544 L8.92758064,3.00851169 Z M12.0418385,1.90401951 C11.8562916,1.90401951 11.7098072,1.99386326 11.6023853,2.17355076 C11.4949635,2.35323826 11.4412525,2.60128513 11.4412525,2.91769138 C11.4412525,3.23409763 11.4949635,3.48214451 11.6023853,3.66183201 C11.7098072,3.84151951 11.8562916,3.93136326 12.0418385,3.93136326 C12.2273853,3.93136326 12.3728931,3.84151951 12.4783619,3.66183201 C12.5838306,3.48214451 12.636565,3.23409763 12.636565,2.91769138 C12.636565,2.60128513 12.5838306,2.35323826 12.4783619,2.17355076 C12.3728931,1.99386326 12.2273853,1.90401951 12.0418385,1.90401951 Z" id="Combined-Shape-Copy-12" fill="#6B7A86" fill-rule="nonzero"></path>
    </g>
</svg>