<?xml version="1.0" encoding="UTF-8"?>
<svg width="16px" height="16px" viewBox="0 0 16 16" version="1.1" xmlns="http://www.w3.org/2000/svg" xmlns:xlink="http://www.w3.org/1999/xlink">
    <title>icon-expand-all</title>
    <g id="icon-expand-all" stroke="none" stroke-width="1" fill="none" fill-rule="evenodd">
        <path d="M10,6 L3,6 L3,13 L10,13 L10,6 Z M7,7 L7,9 L9,9 L9,10 L7,10 L7,12 L6,12 L6,10 L4,10 L4,9 L6,9 L6,7 L7,7 Z M11,10 L13,10 L13,3 L6,3 L6,5 L10,5 C10.5522847,5 11,5.44771525 11,6 L11,10 Z M11,13 C11,13.5522847 10.5522847,14 10,14 L3,14 C2.44771525,14 2,13.5522847 2,13 L2,6 C2,5.44771525 2.44771525,5 3,5 L5,5 L5,3 C5,2.44771525 5.44771525,2 6,2 L13,2 C13.5522847,2 14,2.44771525 14,3 L14,10 C14,10.5522847 13.5522847,11 13,11 L11,11 L11,13 Z" id="Combined-Shape" fill="#6B7A86" fill-rule="nonzero"></path>
    </g>
</svg>