<?xml version="1.0" encoding="UTF-8"?>
<svg width="16px" height="16px" viewBox="0 0 16 16" version="1.1" xmlns="http://www.w3.org/2000/svg" xmlns:xlink="http://www.w3.org/1999/xlink">
    <title>icon-match-whole-word</title>
    <g id="icon-match-whole-word" stroke="none" stroke-width="1" fill="none" fill-rule="evenodd">
        <path d="M3,11.0166917 L3,12.0166917 L13,12.0166917 L13,11.0166917 L14,11.0166917 L14,13.0166917 L2,13.0166917 L2,11.0166917 L3,11.0166917 Z M9.70925229,3.62997295 L9.70925229,6.2577332 L9.80982087,6.10165749 C9.94812147,5.90450922 10.1032587,5.75117168 10.2752324,5.64164487 C10.4901997,5.50473635 10.7329774,5.43628209 11.0035655,5.43628209 C11.6018659,5.43628209 12.0626173,5.66004655 12.3858198,6.10757547 C12.7090223,6.55510439 12.8706235,7.19695507 12.8706235,8.03312752 C12.8706235,8.85752289 12.7112772,9.49642931 12.3925845,9.94984676 C12.0738918,10.4032642 11.6259182,10.6299729 11.0486635,10.6299729 C10.7450035,10.6299729 10.4804284,10.5578384 10.2549383,10.4135692 C10.0294482,10.2693 9.84755288,10.0543683 9.70925229,9.76877421 L9.70925229,9.76877421 L9.70925229,10.5018972 L8.39239009,10.5018972 L8.39239009,3.62997295 L9.70925229,3.62997295 Z M5.29175019,5.43628209 C6.09553567,5.43628209 6.66009929,5.59968903 6.98544104,5.92650292 C7.31078278,6.2533168 7.47345366,6.83775423 7.47345366,7.67981522 L7.47345366,7.67981522 L7.47345366,10.5018972 L6.18828015,10.5018972 L6.18828015,9.94984676 L6.08935271,10.074566 C5.9503832,10.2328499 5.78314871,10.3591002 5.58764924,10.4533168 C5.3432749,10.5710876 5.07387427,10.6299729 4.77944735,10.6299729 C4.21709193,10.6299729 3.77913189,10.4812874 3.46556722,10.1839162 C3.15200255,9.88654498 2.99522022,9.47140302 2.99522022,8.9384903 C2.99522022,8.36141354 3.18218131,7.93523057 3.5561035,7.6599414 C3.93002568,7.38465223 4.50857458,7.24700765 5.29175019,7.24700765 L5.29175019,7.24700765 L6.18828015,7.24700765 L6.18828015,7.03060386 L6.18196224,6.93031469 C6.16090254,6.77022005 6.08719358,6.64539531 5.96083536,6.55584045 C5.8092055,6.44837463 5.5861771,6.39464172 5.29175019,6.39464172 C4.98260192,6.39464172 4.68302253,6.43365328 4.39301202,6.51167642 C4.1030015,6.58969955 3.80047784,6.71409492 3.48544104,6.88486254 L3.48544104,6.88486254 L3.48544104,5.78076159 L3.77250728,5.67329576 C3.9648662,5.60852184 4.15918797,5.55748784 4.35547258,5.52019377 C4.6498995,5.46425265 4.96199204,5.43628209 5.29175019,5.43628209 Z M6.18828015,8.17886885 L5.67156091,8.17886885 L5.49731998,8.18176711 C5.10669827,8.19529235 4.82765975,8.25615591 4.66020444,8.3643578 C4.46882695,8.48801711 4.3731382,8.70000449 4.3731382,9.00031995 C4.3731382,9.22408441 4.43938425,9.40221269 4.57187637,9.53470481 C4.70436848,9.66719692 4.8839689,9.73344298 5.11067763,9.73344298 C5.45221286,9.73344298 5.71719708,9.6046312 5.90563031,9.34700765 C6.09406354,9.08938409 6.18828015,8.72944718 6.18828015,8.26719692 L6.18828015,8.26719692 L6.18828015,8.17886885 Z M10.8829174,6.51388462 C10.6032118,6.51388462 10.3823916,6.649321 10.2204568,6.92019377 C10.058522,7.19106653 9.9775546,7.56498872 9.9775546,8.04196033 C9.9775546,8.51893194 10.058522,8.89285412 10.2204568,9.16372689 C10.3823916,9.43459966 10.6032118,9.57003604 10.8829174,9.57003604 C11.162623,9.57003604 11.381971,9.43459966 11.5409615,9.16372689 C11.6999521,8.89285412 11.7794473,8.51893194 11.7794473,8.04196033 C11.7794473,7.56498872 11.6999521,7.19106653 11.5409615,6.92019377 C11.381971,6.649321 11.162623,6.51388462 10.8829174,6.51388462 Z" id="Combined-Shape" fill="#9AA5B2" fill-rule="nonzero"></path>
    </g>
</svg>