<svg xmlns="http://www.w3.org/2000/svg">
	<symbol id="DETrepositionIcon" viewBox="0 0 16 16">
		<path d="M12,13 L15,14.5 L12,16 L12,13 Z M11,14 L11,15 L9,15 L9,14 L11,14 Z M8,14 L8,15 L6,15 L6,14 L8,14 Z M5,14 L5,15 L3,15 L3,14 L5,14 Z M2,14 L2,15 L0,15 L0,14 L2,14 Z M15,7 C15.5522847,7 16,7.44771525 16,8 L16,11 C16,11.5522847 15.5522847,12 15,12 L14,12 C13.4477153,12 13,11.5522847 13,11 L13,8 C13,7.44771525 13.4477153,7 14,7 L15,7 Z M11,7 C11.5522847,7 12,7.44771525 12,8 L12,11 C12,11.5522847 11.5522847,12 11,12 L10,12 C9.44771525,12 9,11.5522847 9,11 L9,8 C9,7.44771525 9.44771525,7 10,7 L11,7 Z M7,7 C7.55228475,7 8,7.44771525 8,8 L8,11 C8,11.5522847 7.55228475,12 7,12 L6,12 C5.44771525,12 5,11.5522847 5,11 L5,8 C5,7.44771525 5.44771525,7 6,7 L7,7 Z M3,7 C3.55228475,7 4,7.44771525 4,8 L4,11 C4,11.5522847 3.55228475,12 3,12 L2,12 C1.44771525,12 1,11.5522847 1,11 L1,8 C1,7.44771525 1.44771525,7 2,7 L3,7 Z M15,7.8 L14,7.8 C13.9079525,7.8 13.8304286,7.86218267 13.8071442,7.94683208 L13.8,8 L13.8,11 C13.8,11.0920475 13.8621827,11.1695714 13.9468321,11.1928558 L14,11.2 L15,11.2 C15.0920475,11.2 15.1695714,11.1378173 15.1928558,11.0531679 L15.2,11 L15.2,8 C15.2,7.90795254 15.1378173,7.83042863 15.0531679,7.80714419 L15,7.8 Z M10.5,0.125 C11.893988,0.125 13.0341899,1.21158703 13.1198356,2.58399087 L13.125,2.75 L13.125,4.25 L11.875,4.25 L11.875,2.75 C11.875,2.03527856 11.3296859,1.44792205 10.6324217,1.38129436 L10.5,1.375 L6.5,1.375 C5.78527856,1.375 5.19792205,1.92031408 5.13129436,2.61757832 L5.125,2.75 L5.125,3 L7,3 L4.5,6 L2,3 L3.875,3 L3.875,2.75 C3.875,1.35601205 4.96158703,0.215810098 6.33399087,0.130164368 L6.5,0.125 L10.5,0.125 Z" fill-rule="nonzero"></path>
	</symbol>
</svg>