<?xml version="1.0" encoding="UTF-8"?>
<svg width="16px" height="16px" viewBox="0 0 16 16" version="1.1" xmlns="http://www.w3.org/2000/svg" xmlns:xlink="http://www.w3.org/1999/xlink">
    <title>EDIiconSegment</title>
    <g id="EDIiconSegment" stroke="none" stroke-width="1" fill="none" fill-rule="evenodd">
        <path d="M14.8934002,2.5 C15.4456849,2.5 15.8934002,2.94771525 15.8934002,3.5 C15.8934002,3.66661403 15.8517697,3.83058758 15.7722909,3.97702311 L13.7040536,7.78764499 C13.6229602,7.93705541 13.6233372,8.117433 13.7050545,8.26650311 L15.7622672,12.0193069 C16.0277467,12.5035992 15.8503638,13.1114094 15.3660715,13.3768889 C15.2187283,13.4576595 15.0534078,13.5 14.8853783,13.5 L4.04554757,13.5 C3.31505326,13.5 2.64266783,13.1017336 2.29162244,12.4611174 L0.123037435,8.50370718 C-0.0403510345,8.20554262 -0.0410502025,7.84478826 0.121181315,7.54599263 L2.29315227,3.54568828 C2.64303781,2.90127421 3.31751659,2.5 4.05078965,2.5 L14.8934002,2.5 Z" id="Path" fill="#B6E87B" fill-rule="nonzero"></path>
        <path d="M14.8934002,2.5 C15.4456849,2.5 15.8934002,2.94771525 15.8934002,3.5 C15.8934002,3.66661403 15.8517697,3.83058758 15.7722909,3.97702311 L13.7040536,7.78764499 C13.6229602,7.93705541 13.6233372,8.117433 13.7050545,8.26650311 L15.7622672,12.0193069 C16.0277467,12.5035992 15.8503638,13.1114094 15.3660715,13.3768889 C15.2187283,13.4576595 15.0534078,13.5 14.8853783,13.5 L4.04554757,13.5 C3.31505326,13.5 2.64266783,13.1017336 2.29162244,12.4611174 L0.123037435,8.50370718 C-0.0403510345,8.20554262 -0.0410502025,7.84478826 0.121181315,7.54599263 L2.29315227,3.54568828 C2.64303781,2.90127421 3.31751659,2.5 4.05078965,2.5 L14.8934002,2.5 Z M14.8934002,3.5 L4.05078965,3.5 C3.72489051,3.5 3.42221874,3.65852808 3.2361139,3.92005284 L3.17197096,4.02284414 L1,8.02314849 L3.16858501,11.9805587 C3.32460518,12.265277 3.6075745,12.4542522 3.92505515,12.4927316 L4.04554757,12.5 L14.8853783,12.5 L12.8281656,8.74719624 C12.6102529,8.34967596 12.5851466,7.87794534 12.7531212,7.46321683 L12.8251628,7.31062189 L14.8934002,3.5 Z" id="Rectangle" fill="#5CB533" fill-rule="nonzero"></path>
        <path d="M8.21279018,11.0869552 C9.57279018,11.0869552 10.4767902,10.3621177 10.4767902,9.14268508 L10.4767902,9.12563008 C10.4767902,8.0085275 9.67679018,7.56509747 8.38879018,7.26663495 C7.61279018,7.07902994 7.42079018,6.95964493 7.42079018,6.68676491 L7.42079018,6.66970991 C7.42079018,6.4565224 7.60479018,6.28597238 7.98079018,6.28597238 C8.47679018,6.28597238 9.03679018,6.4906324 9.54879018,6.87436992 L10.3247902,5.70610235 C9.71679018,5.18592481 8.97279018,4.91304479 8.02079018,4.91304479 C6.67679018,4.91304479 5.85279018,5.71462985 5.85279018,6.82320492 L5.85279018,6.84025992 C5.85279018,8.06822 6.77279018,8.42637503 7.96479018,8.71631005 C8.72479018,8.90391506 8.90879018,9.04035507 8.90879018,9.28765259 L8.90879018,9.30470759 C8.90879018,9.5605326 8.68479018,9.71402762 8.26879018,9.71402762 C7.62079018,9.71402762 7.00479018,9.4667301 6.45279018,8.99771757 L5.58879018,10.0977651 C6.27679018,10.7543827 7.22079018,11.0869552 8.21279018,11.0869552 Z" id="S" fill="#207900" fill-rule="nonzero"></path>
    </g>
</svg>