<?xml version="1.0" encoding="UTF-8"?>
<svg width="16px" height="16px" viewBox="0 0 16 16" version="1.1" xmlns="http://www.w3.org/2000/svg" xmlns:xlink="http://www.w3.org/1999/xlink">
    <title>EDIiconFolder</title>
    <g id="EDIiconFolder" stroke="none" stroke-width="1" fill="none" fill-rule="evenodd">
        <g id="folder-closed" transform="translate(0.000000, 2.000000)" fill="#FFED9E" fill-rule="nonzero">
            <path d="M7.32713888,0.45683805 L8.00196857,1.5 L15,1.5 C15.5522847,1.5 16,1.94771525 16,2.5 L16,11 C16,11.5522847 15.5522847,12 15,12 L1,12 C0.44771525,12 0,11.5522847 0,11 L0,1 C0,0.44771525 0.44771525,0 1,0 L6.48751093,0 C6.82675911,0 7.14287218,0.1719958 7.32713888,0.45683805 Z" id="Path"></path>
        </g>
        <path d="M7.32713888,2.45683805 L8.00196857,3.5 L15,3.5 C15.5522847,3.5 16,3.94771525 16,4.5 L16,13 C16,13.5522847 15.5522847,14 15,14 L1,14 C0.44771525,14 0,13.5522847 0,13 L0,3 C0,2.44771525 0.44771525,2 1,2 L6.48751093,2 C6.82675911,2 7.14287218,2.1719958 7.32713888,2.45683805 Z M7.06343996,4.0433808 L6.38808282,3 L1,3 L1,13 L15,13 L15,4.5 L7.9029263,4.5 C7.56377063,4.5 7.24773064,4.32809735 7.06343996,4.0433808 Z" id="Shape" fill="#D2AB34" fill-rule="nonzero"></path>
    </g>
</svg>