<svg xmlns="http://www.w3.org/2000/svg">
	<symbol id="CORiconLogs" viewBox="0 0 24 24">
		<g fill-rule="evenodd" transform="translate(3 2)">
			<path fill-rule="nonzero" d="M14.875,0 C16.0486051,0 17,0.8954305 17,2 L17,18 C17,19.1045695 16.0486051,20 14.875,20 L2.125,20 C0.951394907,20 0,19.1045695 0,18 L0,2 C0,0.8954305 0.951394907,0 2.125,0 L14.875,0 Z M15,2 L2,2 L2,18 L15,18 L15,2 Z"/>
			<path fill-rule="nonzero" d="M7 6L7 7C7 7.55228475 6.55228475 8 6 8L5 8C4.44771525 8 4 7.55228475 4 7L4 6C4 5.44771525 4.44771525 5 5 5L6 5C6.55228475 5 7 5.44771525 7 6zM6 6L5 6 5 7 6 7 6 6zM7 10L7 11C7 11.5522847 6.55228475 12 6 12L5 12C4.44771525 12 4 11.5522847 4 11L4 10C4 9.44771525 4.44771525 9 5 9L6 9C6.55228475 9 7 9.44771525 7 10zM6 10L5 10 5 11 6 11 6 10zM7 14L7 15C7 15.5522847 6.55228475 16 6 16L5 16C4.44771525 16 4 15.5522847 4 15L4 14C4 13.4477153 4.44771525 13 5 13L6 13C6.55228475 13 7 13.4477153 7 14zM6 14L5 14 5 15 6 15 6 14z"/>
			<rect width="5" height="1" x="8" y="5"/>
			<rect width="5" height="1" x="8" y="9"/>
			<rect width="5" height="1" x="8" y="13"/>
			<rect width="5" height="1" x="8" y="7"/>
			<rect width="5" height="1" x="8" y="11"/>
			<rect width="5" height="1" x="8" y="15"/>
		</g>	
	</symbol>
</svg>