<svg xmlns="http://www.w3.org/2000/svg">
	<symbol id="CORiconCluster" viewBox="0 0 24 24">
		<path
		d="M15,2 C16.6568542,2 18,3.34314575 18,5 C18,6.65685425 16.6568542,8 15,8 L14.502,8 L19.29,16 L21,16 C22.6568542,16 24,17.3431458 24,19 C24,20.6568542 22.6568542,22 21,22 L15,22 C13.3431458,22 12,20.6568542 12,19 C12,17.3431458 13.3431458,16 15,16 L17.541,16 L12.752,8 L11.06,8 L8.06,11 L9,11 C10.6568542,11 12,12.3431458 12,14 C12,15.6568542 10.6568542,17 9,17 L3,17 C1.34314575,17 0,15.6568542 0,14 C0,12.3431458 1.34314575,11 3,11 L6,11 L5.96966991,10.9696699 L8.94,7.998 L8.82372721,7.99490731 C7.24891996,7.90366088 6,6.59768088 6,5 C6,3.34314575 7.34314575,2 9,2 L15,2 Z M21,18 L15,18 C14.4477153,18 14,18.4477153 14,19 C14,19.5128358 14.3860402,19.9355072 14.8833789,19.9932723 L15,20 L21,20 C21.5522847,20 22,19.5522847 22,19 C22,18.4871642 21.6139598,18.0644928 21.1166211,18.0067277 L21,18 Z M9,13 L3,13 C2.44771525,13 2,13.4477153 2,14 C2,14.5128358 2.38604019,14.9355072 2.88337887,14.9932723 L3,15 L9,15 C9.55228475,15 10,14.5522847 10,14 C10,13.4871642 9.61395981,13.0644928 9.11662113,13.0067277 L9,13 Z M15,4 L9,4 C8.44771525,4 8,4.44771525 8,5 C8,5.51283584 8.38604019,5.93550716 8.88337887,5.99327227 L9,6 L15,6 C15.5522847,6 16,5.55228475 16,5 C16,4.48716416 15.6139598,4.06449284 15.1166211,4.00672773 L15,4 Z" />
	</symbol>
</svg>