<?xml version="1.0" encoding="UTF-8"?>
<svg width="16px" height="16px" viewBox="0 0 16 16" version="1.1" xmlns="http://www.w3.org/2000/svg" xmlns:xlink="http://www.w3.org/1999/xlink">
    <title>icon-check-outline-grey</title>
    <g id="icon-check-outline-grey" stroke="none" stroke-width="1" fill="none" fill-rule="evenodd">
        <path d="M8,1 C11.8734472,1 15,4.14389191 15,8 C15,11.8734472 11.8734472,15 8,15 C4.14389191,15 1,11.8734472 1,8 C1,4.14389191 4.14389191,1 8,1 Z M8,2.05085382 C4.72426245,2.05085382 2.05085382,4.72426245 2.05085382,8 C2.05085382,11.2866912 4.71786755,13.9491462 8,13.9491462 C11.2930766,13.9491462 13.9491462,11.2930766 13.9491462,8 C13.9491462,4.71786755 11.2866912,2.05085382 8,2.05085382 Z M11.5955226,4.56055545 L12.5161494,5.48118221 L6.54099456,11.456337 L3.50139989,8.39940327 L4.42202665,7.47877651 L6.541,9.614 L11.5955226,4.56055545 Z" id="Combined-Shape" fill="#2B3133" fill-rule="nonzero"></path>
    </g>
</svg>