<?xml version="1.0" encoding="UTF-8"?>
<svg width="16px" height="16px" viewBox="0 0 16 16" version="1.1" xmlns="http://www.w3.org/2000/svg" xmlns:xlink="http://www.w3.org/1999/xlink">
    <title>button_cloud_repository</title>
    <g id="button_cloud_repository" stroke="none" stroke-width="1" fill="none" fill-rule="evenodd">
        <path d="M6.77745813,3.27237613 C7.6601199,3.1750164 8.51239563,3.32088886 9.27140065,3.67859458 C10.0382114,4.03997902 10.7089944,4.61685811 11.2224919,5.37208939 C12.7475082,5.59095679 13.7003778,5.92618118 14.3832516,6.52638485 C15.0514032,7.11364865 15.4521864,7.95192217 15.4965615,8.9455167 C15.5397876,9.91338348 15.1692499,10.7629838 14.5554749,11.3792778 C13.9071125,12.030301 12.9906982,12.4223239 12.0071131,12.4285753 L12.0071131,12.4285753 L3.2481245,12.427773 C2.5229529,12.4270859 1.86019736,12.1449769 1.36690522,11.682004 C0.873456438,11.2188842 0.54956997,10.5747981 0.502281194,9.85030404 C0.456767379,9.15300352 0.683959586,8.536241 1.09632288,8.06747399 C1.53635378,7.56725495 2.18130286,7.2362343 2.91900114,7.13863457 C3.52547285,5.81866948 3.96841847,4.97870514 4.59563289,4.35175894 C5.1824695,3.76517329 5.93187742,3.36564572 6.77745813,3.27237613 Z" id="Path-Copy-8" stroke="#6B7A86" fill-rule="nonzero"></path>
    </g>
</svg>