<?xml version="1.0" encoding="UTF-8"?>
<svg width="30px" height="22px" viewBox="0 0 30 22" version="1.1" xmlns="http://www.w3.org/2000/svg" xmlns:xlink="http://www.w3.org/1999/xlink">
    <title>APPon</title>
    <g id="APPon" stroke="none" stroke-width="1" fill="none" fill-rule="evenodd">
        <g id="Group-2-Copy-10" transform="translate(0.000000, 2.471379)">
            <g id="Group-Copy-7" transform="translate(4.600882, 0.000000)">
                <path d="M18.3666763,0 C20.3014102,0 21.2659231,0.936828144 21.2930857,2.81046192 L21.2936762,13.8427298 C21.2936762,15.7435312 20.3568024,16.7075057 18.4501839,16.7346599 L18.3666763,16.7352502 L4.47239256,16.735781 C4.79191549,16.2604258 5.04166559,15.7356209 5.2058745,15.176887 L18.3666763,15.17727 C18.4067174,15.17727 18.4456566,15.1769189 18.4835213,15.1761909 L18.5939185,15.1728499 L18.6980312,15.1670921 L18.7960223,15.158762 C19.4134232,15.0959205 19.6532107,14.8602292 19.7169529,14.2598702 L19.7253977,14.1646043 L19.7312277,14.0634291 C19.7319905,14.0460655 19.7326512,14.0284492 19.7332132,14.010577 L19.7354269,13.9002467 L19.7354269,2.83499815 L19.7332131,2.72466888 C19.7326512,2.70679682 19.7319905,2.68918068 19.7312276,2.67181722 L19.7253975,2.57064285 L19.7169527,2.47537772 C19.6581131,1.92120425 19.4492695,1.67774868 18.9318864,1.59414611 L18.8427719,1.5816666 C18.8120966,1.57798289 18.7804419,1.57476669 18.7477805,1.57199212 L18.6467493,1.56496746 L18.5395151,1.56043741 L18.4259147,1.55824676 L2.86956245,1.55824676 L2.75654124,1.56048197 L2.70239417,1.562478 L2.70239417,1.562478 L2.5987285,1.56832621 L2.50110262,1.57677481 C1.85426901,1.64373473 1.61942103,1.90338173 1.57000128,2.57201435 L1.56406652,2.67280772 L1.56062137,2.77959091 L1.55950805,2.89251456 L1.55984016,8.26092221 C1.06600694,8.09448913 0.542703832,7.99502683 0.000977135737,7.97358199 L0.00152785361,2.89251456 C0.00152785361,0.991727 0.94949762,0.0277447481 2.84544616,0.000590313822 L18.3666763,0 Z" id="Combined-Shape-Copy-8" fill="#FFFFFF" fill-rule="nonzero"></path>
                <path d="M18.4259147,1.55824676 L18.5395151,1.56043741 L18.6467493,1.56496746 L18.7477805,1.57199212 C18.7804419,1.57476669 18.8120966,1.57798289 18.8427719,1.5816666 L18.8427719,1.5816666 L18.9318864,1.59414611 C19.4492695,1.67774868 19.6581131,1.92120425 19.7169527,2.47537772 L19.7169527,2.47537772 L19.7253975,2.57064285 L19.7312276,2.67181722 C19.7319905,2.68918068 19.7326512,2.70679682 19.7332131,2.72466888 L19.7332131,2.72466888 L19.7354269,2.83499815 L19.7354269,13.9002467 L19.7332132,14.010577 C19.7326512,14.0284492 19.7319905,14.0460655 19.7312277,14.0634291 L19.7312277,14.0634291 L19.7253977,14.1646043 L19.7169529,14.2598702 C19.6532107,14.8602292 19.4134232,15.0959205 18.7960223,15.158762 L18.7960223,15.158762 L18.6980312,15.1670921 L18.5939185,15.1728499 L18.4835213,15.1761909 C18.4456566,15.1769189 18.4067174,15.17727 18.3666763,15.17727 L18.3666763,15.17727 L5.2058745,15.176887 C5.35157135,14.6811419 5.4299268,14.1586865 5.4299268,13.6203619 C5.4299268,11.1438868 3.79720291,9.01478492 1.55945822,8.2607935 L1.55950805,2.89251456 L1.56062137,2.77959091 L1.56406652,2.67280772 L1.57000128,2.57201435 C1.61942103,1.90338173 1.85426901,1.64373473 2.50110262,1.57677481 L2.50110262,1.57677481 L2.5987285,1.56832621 L2.70239417,1.562478 L2.70239417,1.562478 L2.75654124,1.56048197 L2.86956245,1.55824676 L18.4259147,1.55824676 Z" id="Combined-Shape-Copy-18" fill="#1D2122"></path>
                <path d="M10.9967575,4.52621816 C12.8828289,4.52621816 14.4207113,6.04088037 14.4605499,7.91739056 L14.4605499,7.91739056 L14.4648752,7.96053003 L14.4648752,11.3735567 C14.4648752,12.9310169 13.897574,14.7503872 11.3909316,15.1799608 L11.3909316,15.1799608 L11.3909316,13.8577758 C12.6101055,13.5740114 13.1703495,12.7783783 13.1703495,11.3735567 L13.1703495,11.3735567 L13.1703495,10.6882196 C12.575389,11.1687865 11.8193669,11.4573315 10.9967575,11.4573315 C9.0859861,11.4573315 7.53125768,9.90271695 7.53125768,7.99183176 C7.53125768,6.08083276 9.0859861,4.52621816 10.9967575,4.52621816 Z M6.02148993,4.52769788 C6.37889876,4.52769788 6.66869586,4.81749498 6.66869586,5.17501763 L6.66869586,10.7756368 C6.66869586,11.1330456 6.37889876,11.4228427 6.02148993,11.4228427 C5.66396727,11.4228427 5.37417017,11.1330456 5.37417017,10.7756368 L5.37417017,5.17501763 C5.37417017,4.81749498 5.66396727,4.52769788 6.02148993,4.52769788 Z M10.9967575,5.82074385 C9.79977934,5.82074385 8.82578336,6.79473983 8.82578336,7.99183176 C8.82578336,9.18880988 9.79977934,10.1628059 10.9967575,10.1628059 C12.1939632,10.1628059 13.1678454,9.18880988 13.1678454,7.99183176 C13.1678454,6.79473983 12.1939632,5.82074385 10.9967575,5.82074385 Z M19.3451858,2.02945653 C19.3451858,2.02945653 19.3415855,2.03264773 19.3322573,2.04058482 C19.2906899,2.07675176 19.1327664,2.212746 18.657032,2.61549188 L18.5314296,2.7242484 L18.4026361,2.83993965 C18.2845616,2.94958603 18.1632142,3.05636851 18.0569227,3.17918882 C17.4263742,3.90776446 16.8499942,4.97411641 16.3752418,5.99840998 C16.3077356,6.14381417 16.242766,6.28995479 16.1795148,6.43658636 C15.8300374,7.10943873 15.6527212,7.52003987 15.391861,7.99798353 L15.3896868,7.96682088 C15.3786864,6.00827418 14.0794436,4.34906204 12.2979156,3.79550849 C12.7741398,3.37662447 13.6070346,2.76768373 14.7941246,2.58349805 C14.7941246,2.58349805 14.0621434,3.1704552 13.484711,4.0898738 L13.3845959,4.2555235 L13.4167534,4.2146925 C13.4167534,4.2146925 14.6271185,2.56001408 17.1232101,2.17265143 C17.1232101,2.17265143 16.0706282,2.89718684 15.3235464,4.06678443 L15.2190453,4.23686725 L15.2298462,4.23686725 C15.2298462,4.23686725 16.5157364,2.42655644 19.3451858,2.02945653 Z" id="Combined-Shape-Copy-19" fill="#FFFFFF"></path>
            </g>
            <path d="M4.37963369,18 C6.74878741,18 8.75929409,16.0112294 8.75929409,13.6203619 C8.75929409,11.2186241 6.78139371,9.24070146 4.37963369,9.24070146 C1.9779026,9.24070146 0,11.2186241 0,13.6203619 C0,16.0329632 1.9779026,18 4.37963369,18 Z" id="Path-Copy-17" fill="#5CB533"></path>
        </g>
    </g>
</svg>