<?xml version="1.0" encoding="UTF-8"?>
<svg width="44px" height="44px" viewBox="0 0 44 44" version="1.1" xmlns="http://www.w3.org/2000/svg" xmlns:xlink="http://www.w3.org/1999/xlink">
    <title>icon-share-integrations</title>
    <g id="icon-share-integrations" stroke="none" stroke-width="1" fill="none" fill-rule="evenodd">
        <g id="Group">
            <rect id="Rectangle-Copy-2" fill="#E5F3FA" x="0" y="0" width="44" height="44" rx="6"></rect>
            <path d="M33,29 C34.1045695,29 35,29.8954305 35,31 L35,36 C35,37.1045695 34.1045695,38 33,38 L25,38 C23.8954305,38 23,37.1045695 23,36 L23,31 C23,29.8954305 23.8954305,29 25,29 L33,29 Z M33,31 L25,31 L25,36 L33,36 L33,31 Z M19,6 C20.1045695,6 21,6.8954305 21,8 L21,13 C21,14.0502351 20.1904962,14.9114005 19.1614032,14.9935816 L19.1876384,14.9913137 L19.1876384,14.9913137 L21.4784974,19.0451674 C21.6478668,19.0154804 21.8221256,19 22,19 C22.5917337,19 23.1434535,19.1713196 23.6082645,19.4670639 L23.7430956,19.5580717 L23.7430956,19.5580717 L26.1877828,17.8472139 C26.0666023,17.5869367 26,17.3012462 26,17 L26,12 C26,10.8954305 26.8954305,10 28,10 L36,10 C37.1045695,10 38,10.8954305 38,12 L38,17 C38,18.1045695 37.1045695,19 36,19 L28.027,19 L24.8912801,21.1968425 L24.8839995,21.1710284 C24.9595391,21.4343139 25,21.7124319 25,22 C25,22.7455844 24.728013,23.4276429 24.2778464,23.9523679 L24.3134779,23.910056 L24.3134779,23.910056 L27.3657637,28.9993137 L25.0327637,28.9993137 L22.597627,24.9404698 L22.6311243,24.9334984 C22.4276369,24.9770672 22.2164966,25 22,25 C21.2425809,25 20.5507205,24.7193099 20.0227645,24.2562756 L20.0396485,24.270973 L20.0396485,24.270973 L18.5656202,25.1987106 L17.95757,25.5882464 L17.9546166,25.5743809 C17.9843433,25.7115393 18,25.8539412 18,26 L18,31 C18,32.1045695 17.1045695,33 16,33 L8,33 C6.8954305,33 6,32.1045695 6,31 L6,26 C6,24.8954305 6.8954305,24 8,24 L16,24 C16.2008308,24 16.394748,24.029601 16.5776264,24.0846781 L16.5837637,24.0865372 L17.7995216,23.3097023 L18.7767103,22.6968811 L19.0467778,22.5306074 L19.0449901,22.5204904 C19.0154188,22.351439 19,22.1775201 19,22 C19,21.2359535 19.2856236,20.538618 19.7559208,20.0089434 L19.7378773,20.0294513 L19.7378773,20.0294513 L16.895,15 L11,15 C9.8954305,15 9,14.1045695 9,13 L9,8 C9,6.8954305 9.8954305,6 11,6 L19,6 Z M16,26 L8,26 L8,31 L16,31 L16,26 Z M22,21 C21.4477153,21 21,21.4477153 21,22 C21,22.5522847 21.4477153,23 22,23 C22.5522847,23 23,22.5522847 23,22 C23,21.4477153 22.5522847,21 22,21 Z M36,12 L28,12 L28,17 L36,17 L36,12 Z M19,8 L11,8 L11,13 L19,13 L19,8 Z" id="Combined-Shape" fill="#2590CD" fill-rule="nonzero"></path>
        </g>
    </g>
</svg>