<?xml version="1.0" encoding="UTF-8"?>
<svg width="44px" height="44px" viewBox="0 0 44 44" version="1.1" xmlns="http://www.w3.org/2000/svg" xmlns:xlink="http://www.w3.org/1999/xlink">
    <title>icon-scale-integrations</title>
    <g id="icon-scale-integrations" stroke="none" stroke-width="1" fill="none" fill-rule="evenodd">
        <g id="Group">
            <rect id="Rectangle-Copy" fill="#E5F3FA" x="0" y="0" width="44" height="44" rx="6"></rect>
            <path d="M21.792,25.9993168 L23.5714286,26 C25.7805676,26 27.5714286,27.790861 27.5714286,30 C27.5714286,32.209139 25.7805676,34 23.5714286,34 L11,34 C8.790861,34 7,32.209139 7,30 C7,27.790861 8.790861,26 11,26 L15.122,25.9993168 L14.3014509,27.6893387 L14.2541138,27.7944008 L14.171,27.9993168 L11,28 C9.8954305,28 9,28.8954305 9,30 C9,31.0543618 9.81587779,31.9181651 10.8507377,31.9945143 L11,32 L23.5714286,32 C24.6759981,32 25.5714286,31.1045695 25.5714286,30 C25.5714286,28.9456382 24.7555508,28.0818349 23.7206909,28.0054857 L23.5714286,28 L20.821,27.9993168 L21.792,25.9993168 Z M16.5373707,27.6635966 C16.7786568,27.1668074 17.376985,26.9596812 17.8737742,27.2009673 C18.3705633,27.4422534 18.5776895,28.0405816 18.3364034,28.5373707 L18.3364034,28.5373707 L17.8995164,29.4368871 C17.6582303,29.9336763 17.0599021,30.1408024 16.5631129,29.8995164 C16.0663237,29.6582303 15.8591976,29.0599021 16.1004836,28.5631129 L16.1004836,28.5631129 Z M18.7218062,23.1660148 C18.9630923,22.6692256 19.5614205,22.4620995 20.0582096,22.7033855 C20.5549988,22.9446716 20.762125,23.5429998 20.5208389,24.039789 L20.5208389,24.039789 L20.0839518,24.9393053 C19.8426657,25.4360945 19.2443375,25.6432207 18.7475484,25.4019346 C18.2507592,25.1606485 18.043633,24.5623203 18.2849191,24.0655311 L18.2849191,24.0655311 Z M31.7857143,9 C34.8232804,9 37.2857143,11.4624339 37.2857143,14.5 C37.2857143,17.5375661 34.8232804,20 31.7857143,20 L22.482,20 L22.2683873,20.4417236 C22.0443359,20.9030278 21.5124268,21.1145716 21.0398257,20.9492514 L20.9319838,20.9043528 C20.5748966,20.7309188 20.3674665,20.3730155 20.3686482,20.0009463 L14.5,20 C11.4624339,20 9,17.5375661 9,14.5 C9,11.4624339 11.4624339,9 14.5,9 L31.7857143,9 Z M31.7857143,11 L14.5,11 C12.5670034,11 11,12.5670034 11,14.5 C11,16.3685634 12.4642776,17.8951264 14.3079648,17.9948211 L14.5,18 L31.7857143,18 C33.7187109,18 35.2857143,16.4329966 35.2857143,14.5 C35.2857143,12.6314366 33.8214367,11.1048736 31.9777495,11.0051789 L31.7857143,11 Z" id="Combined-Shape" fill="#2590CD" fill-rule="nonzero"></path>
        </g>
    </g>
</svg>