<?xml version="1.0" encoding="UTF-8"?>
<svg width="16px" height="16px" viewBox="0 0 16 16" version="1.1" xmlns="http://www.w3.org/2000/svg" xmlns:xlink="http://www.w3.org/1999/xlink">
    <title>icon-insert-hex</title>
    <g id="icon-insert-hex" stroke="none" stroke-width="1" fill="none" fill-rule="evenodd">
        <path d="M14.5,3 L6,3 C5.17157288,3 4.5,3.67157288 4.5,4.5 L4.5,11.5 C4.5,12.3284271 5.17157288,13 6,13 L14.5,13 C15.3284271,13 16,12.3284271 16,11.5 L16,4.5 C16,3.67157288 15.3284271,3 14.5,3 Z M6,4 L14.5,4 C14.7761424,4 15,4.22385763 15,4.5 L15,11.5 C15,11.7761424 14.7761424,12 14.5,12 L6,12 C5.72385763,12 5.5,11.7761424 5.5,11.5 L5.5,4.5 C5.5,4.22385763 5.72385763,4 6,4 Z" id="Combined-Shape-Copy-12" fill="#6B7A86" fill-rule="nonzero"></path>
        <path d="M2.33351391,11.9999673 L2.33351391,9.91698486 L2.87366209,9.91698486 C3.14979537,9.91698486 3.37367896,9.84179786 3.37367896,9.56566459 C3.37367896,9.28944401 3.14979537,9.16649504 2.87366209,9.16649504 L2.33351391,9.16649504 L2.33351391,3.99996726 C2.33436647,3.53993429 2.70676963,3.16752976 3.16697721,3.16667857 C3.44311048,3.16667857 3.66681947,2.94279498 3.66681947,2.66666171 C3.66681947,2.39052843 3.44293588,2.16664484 3.1668026,2.16664484 C2.63959146,2.16664484 2.16786014,2.3922308 1.83349705,2.74841916 C1.49913396,2.3922308 1.02740264,2.16664484 0.500191493,2.16664484 C0.223970915,2.16664484 0.000174627658,2.39044113 0.000174627658,2.66666171 C0.000174627658,2.94279498 0.223970915,3.16667857 0.500191493,3.16667857 C0.960224469,3.16753113 1.332629,3.53993429 1.33348018,3.99996726 L1.33348018,9.16671329 L0.809939549,9.16671329 C0.533718971,9.16671329 0.309922684,9.28966226 0.309922684,9.56588284 C0.309922684,9.84201612 0.533718971,9.91720312 0.809939549,9.91720312 L1.33348018,9.91720312 L1.33348018,12.0000327 C1.33262762,12.4600657 0.960224469,12.8324702 0.500016891,12.8333214 C0.223796312,12.8333214 -8.72755449e-05,13.057205 -6.18741744e-06,13.3334256 C0.000170524508,13.6095589 0.224058216,13.8333552 0.500278794,13.8333552 C1.02757724,13.8330994 1.49904666,13.6075946 1.83349705,13.2514935 C2.16777284,13.6076819 2.63941685,13.8331806 3.1667153,13.8333552 C3.44293588,13.8333552 3.66681947,13.6095589 3.66681947,13.3333383 C3.66681947,13.0572923 3.44302318,12.8333214 3.16697721,12.8333214 C2.70676963,12.8324034 2.33429962,12.4598475 2.33351391,11.9999673 Z" id="Path-Copy" fill="#6B7A86" fill-rule="nonzero"></path>
        <path d="M7.109375,9.42773438 L7.109375,8.26367188 L8.00585938,8.26367188 L8.00585938,9.42773438 L8.78125,9.42773438 L8.78125,6.57226562 L8.00585938,6.57226562 L8.00585938,7.63085938 L7.109375,7.63085938 L7.109375,6.57226562 L6.33398438,6.57226562 L6.33398438,9.42773438 L7.109375,9.42773438 Z M11.09375,9.42773438 L11.09375,8.79882812 L10.1699219,8.79882812 L10.1699219,8.25976562 L11.0253906,8.25976562 L11.0253906,7.640625 L10.1699219,7.640625 L10.1699219,7.19140625 L11.09375,7.19140625 L11.09375,6.57226562 L9.3984375,6.57226562 L9.3984375,9.42773438 L11.09375,9.42773438 Z M12.1660156,9.42773438 L12.7167969,8.53515625 L13.2734375,9.42773438 L14.1660156,9.42773438 L13.1933594,8.02734375 L14.0976562,6.57226562 L13.2167969,6.57226562 L12.7207031,7.45507812 L12.2050781,6.57226562 L11.3496094,6.57226562 L12.2402344,7.96679688 L11.2929688,9.42773438 L12.1660156,9.42773438 Z" id="HEX" fill="#6B7A86" fill-rule="nonzero"></path>
    </g>
</svg>