<?xml version="1.0" encoding="UTF-8"?>
<svg width="16px" height="16px" viewBox="0 0 16 16" version="1.1" xmlns="http://www.w3.org/2000/svg" xmlns:xlink="http://www.w3.org/1999/xlink">
    <title>icon-show-hide-eol</title>
    <defs>
        <rect id="path-1" x="0" y="2" width="16" height="12" rx="2"></rect>
        <mask id="mask-2" maskContentUnits="userSpaceOnUse" maskUnits="objectBoundingBox" x="0" y="0" width="16" height="12" fill="white">
            <use xlink:href="#path-1"></use>
        </mask>
    </defs>
    <g id="icon-show-hide-eol" stroke="none" stroke-width="1" fill="none" fill-rule="evenodd">
        <use id="Rectangle" stroke="#6B7A86" mask="url(#mask-2)" stroke-width="2" stroke-dasharray="2,1.45" xlink:href="#path-1"></use>
        <path d="M14,2 C15.1045695,2 16,2.8954305 16,4 L16,12 C16,13.1045695 15.1045695,14 14,14 L3.757,14 L4.226,13 L14,13 C14.5128358,13 14.9355072,12.6139598 14.9932723,12.1166211 L15,12 L15,4 C15,3.48716416 14.6139598,3.06449284 14.1166211,3.00672773 L14,3 L8.909,3 L9.377,2 L14,2 Z M8.10922449,4.71085226 C10.4214743,4.75116991 12.4011405,6.06863685 13.5,7.90099342 C12.3831058,9.7638469 10.3572769,11.0920862 8,11.0920862 C7.06581793,11.0920862 6.18402714,10.8835303 5.39032631,10.51602 L5.97511202,9.26657059 C6.41282412,9.91579247 7.15505116,10.3413 8,10.3413 C9.35156936,10.3413 10.4403066,9.25252925 10.4403066,7.90099342 C10.4403066,6.54942406 9.35156936,5.46068686 8,5.46068686 C7.91548414,5.46068686 7.83199602,5.46494405 7.74973756,5.47325648 Z M10.6843339,6.17403096 C11.0034264,6.68092394 11.1911933,7.26276816 11.1911933,7.90099342 C11.1911933,8.53921867 11.0035605,9.12109642 10.6843339,9.62795588 C11.6980528,9.04604461 12.3551198,8.25768223 12.617781,7.90099342 C12.3549823,7.54430461 11.6979187,6.7559087 10.6843339,6.17403096 Z M8.00010056,6.77464651 C8.61958801,6.77464651 9.12644746,7.28150597 9.12644746,7.90099342 C9.12644746,8.52048086 8.61958801,9.02734032 8.00010056,9.02734032 C7.38061312,9.02734032 6.87375366,8.52048086 6.87375366,7.90099342 C6.87375366,7.28153949 7.38061312,6.77464651 8.00010056,6.77464651 Z" id="Combined-Shape" fill="#6B7A86" fill-rule="nonzero"></path>
        <line x1="9.45413283" y1="1.57738118" x2="3.29515381" y2="14.7279822" id="Path-5-Copy-6" stroke="#6B7A86" stroke-linecap="round"></line>
    </g>
</svg>