<?xml version="1.0" encoding="UTF-8"?>
<svg width="16px" height="16px" viewBox="0 0 16 16" version="1.1" xmlns="http://www.w3.org/2000/svg" xmlns:xlink="http://www.w3.org/1999/xlink">
    <title>SMPLiconFolderOpenModified</title>
    <g id="SMPLiconFolderOpenModified" stroke="none" stroke-width="1" fill="none" fill-rule="evenodd">
        <g id="folder-open-copy-2" transform="translate(1.000000, 3.000000)" fill-rule="nonzero">
            <path d="M5.32713888,0.45683805 L6.00196857,1.5 L6.00196857,1.5 L11,1.5 C11.5522847,1.5 12,1.94771525 12,2.5 L12,8 C12,8.5522847 10.5522847,10 10,10 L1,10 C0.44771525,10 0,9.5522847 0,9 L0,1 C0,0.44771525 0.44771525,0 1,0 L4.48751093,0 C4.82675911,0 5.14287218,0.1719958 5.32713888,0.45683805 Z" id="Path" fill="#B6ECEB"></path>
            <path d="M5.32713888,0.45683805 L6.00196857,1.5 L6.00196857,1.5 L11,1.5 C11.5522847,1.5 12,1.94771525 12,2.5 L12,8 C12,8.5522847 10.5522847,10 10,10 L1,10 C0.44771525,10 0,9.5522847 0,9 L0,1 C0,0.44771525 0.44771525,0 1,0 L4.48751093,0 C4.82675911,0 5.14287218,0.1719958 5.32713888,0.45683805 Z M5.06343996,2.0433808 L4.38808282,1 L4.38808282,1 L1,1 L1,9 L10,9 C10.5522847,9 11,8.5522847 11,8 L11,2.5 L11,2.5 L5.9029263,2.5 C5.56377063,2.5 5.24773064,2.32809735 5.06343996,2.0433808 Z" id="Shape" fill="#48C0BF"></path>
            <path d="M13.3014554,3.5 C13.8537401,3.5 14.3014554,3.94771525 14.3014554,4.5 C14.3014554,4.6697752 14.258231,4.83675526 14.1758549,4.98520662 L11.678793,9.4852066 C11.5024952,9.802916 11.1677393,10 10.8043935,10 L1.05966331,10 C0.50737856,10 0.05966331,9.5522847 0.05966331,9 C0.05966331,8.8068817 0.11558172,8.6178945 0.22066353,8.4558683 L3.1391301,3.95586826 C3.32350268,3.67158314 3.63929177,3.5 3.97812989,3.5 L13.3014554,3.5 Z" id="Path" fill="#89D9D7"></path>
            <path d="M13.3014554,3.5 C13.8537401,3.5 14.3014554,3.94771525 14.3014554,4.5 C14.3014554,4.6697752 14.258231,4.83675526 14.1758549,4.98520662 L11.678793,9.4852066 C11.5024952,9.802916 11.1677393,10 10.8043935,10 L1.05966331,10 C0.50737856,10 0.05966331,9.5522847 0.05966331,9 C0.05966331,8.8068817 0.11558172,8.6178945 0.22066353,8.4558683 L3.1391301,3.95586826 C3.32350268,3.67158314 3.63929177,3.5 3.97812989,3.5 L13.3014554,3.5 Z M10.8043935,9 L13.3,4.5 L3.97812989,4.5 L1.05966331,9 L10.8043935,9 Z" id="Shape" fill="#48C0BF"></path>
        </g>
        <g id="Group-Copy" transform="translate(7.000000, 7.000000)">
            <circle id="Oval-Copy-2" fill="#EEC102" cx="4.5" cy="4.5" r="4.5"></circle>
            <path d="M4.5,5.55606168 C4.84517797,5.55606168 5.125,5.83588371 5.125,6.18106168 C5.125,6.52623965 4.84517797,6.80606168 4.5,6.80606168 C4.15482203,6.80606168 3.875,6.52623965 3.875,6.18106168 C3.875,5.83588371 4.15482203,5.55606168 4.5,5.55606168 Z M5.125,2 L5,5 L4,5 L3.875,2 L5.125,2 Z" id="Combined-Shape-Copy-2" fill="#FFFFFF"></path>
        </g>
    </g>
</svg>