<?xml version="1.0" encoding="UTF-8"?>
<svg width="16px" height="16px" viewBox="0 0 16 16" version="1.1" xmlns="http://www.w3.org/2000/svg" xmlns:xlink="http://www.w3.org/1999/xlink">
    <title>icon-replace-all-eol</title>
    <g id="icon-replace-all-eol" stroke="none" stroke-width="1" fill="none" fill-rule="evenodd">
        <path d="M13.5,6 C14.2796961,6 14.9204487,6.59488808 14.9931334,7.35553999 L15,7.5 L15,12.5 C15,13.2796961 14.4051119,13.9204487 13.64446,13.9931334 L13.5,14 L13,14 L13,14.5 C13,15.3284271 12.3284271,16 11.5,16 L11.5,16 L3,16 C2.17157288,16 1.5,15.3284271 1.5,14.5 L1.5,14.5 L1.5,9.5 C1.5,8.67157288 2.17157288,8 3,8 L3,8 L3.5,8 L3.5,7.5 C3.5,6.72030388 4.09488808,6.07955132 4.85553999,6.00686658 L5,6 L13.5,6 Z M11.5,9 L3,9 C2.72385763,9 2.5,9.22385763 2.5,9.5 L2.5,9.5 L2.5,14.5 C2.5,14.7761424 2.72385763,15 3,15 L3,15 L11.5,15 C11.7761424,15 12,14.7761424 12,14.5 L12,14.5 L12,9.5 C12,9.22385763 11.7761424,9 11.5,9 L11.5,9 Z M13.5,7 L5,7 C4.75454011,7 4.55039163,7.17687516 4.50805567,7.41012437 L4.5,7.5 L4.5,8 L11.5,8 C12.3284271,8 13,8.67157288 13,9.5 L13,9.5 L13,13 L13.5,13 C13.7454599,13 13.9496084,12.8231248 13.9919443,12.5898756 L14,12.5 L14,7.5 C14,7.25454011 13.8231248,7.05039163 13.5898756,7.00805567 L13.5,7 Z M6.00558528,1.00205342 L6.00558528,2.00205342 L4.00558528,2.00205342 C3.49274944,2.00205342 3.07007812,2.38809361 3.01231301,2.8854323 L3.00558528,3.00205342 L3.00496235,3.97305342 L3.64944057,3.43565124 L4.78096235,3.43565124 L3.00496235,4.99705342 L3.00558528,5.00205342 L2.99896235,5.00205342 L2.50738714,5.43565124 L2.01496235,5.00205342 L2.00558528,5.00205342 L2.00496235,4.99305342 L0.280962352,3.47712814 L1.44143913,3.47712814 L2.00496235,3.96005342 L2.00558528,3.00205342 C2.00558528,1.94769163 2.82146307,1.0838883 3.85632293,1.00753916 L4.00558528,1.00205342 L6.00558528,1.00205342 Z" id="Combined-Shape-Copy-12" fill="#6B7A86" fill-rule="nonzero"></path>
        <path d="M5.68462382,13.677997 C6.03515493,13.677997 6.34926722,13.6165403 6.6269607,13.4936268 L6.6269607,13.4936268 L6.6269607,12.733384 C6.48735523,12.7910471 6.3485085,12.8403643 6.21042048,12.8813354 C6.07233247,12.9223066 5.92969211,12.9427922 5.78249939,12.9427922 C5.29539772,12.9427922 5.05184689,12.6226101 5.05184689,11.9822459 C5.05184689,11.6742034 5.11178619,11.4325494 5.23166479,11.2572838 C5.3515434,11.0820183 5.51846297,10.9943855 5.73242352,10.9943855 C5.87354643,10.9943855 6.00556464,11.0141124 6.12847815,11.0535661 C6.25139165,11.0930198 6.37430516,11.1415782 6.49721866,11.1992413 L6.49721866,11.1992413 L6.77263596,10.4913506 C6.44486661,10.3350532 6.10116403,10.2569045 5.74152822,10.2569045 C5.41224142,10.2569045 5.12582261,10.3270866 4.88227177,10.4674507 C4.63872094,10.6078149 4.4520745,10.8084978 4.32233247,11.0694993 C4.19259044,11.3305008 4.12771942,11.6332322 4.12771942,11.9776935 C4.12771942,12.5285281 4.26163444,12.9496207 4.52946449,13.2409712 C4.79729454,13.5323218 5.18234765,13.677997 5.68462382,13.677997 Z M8.39961543,13.6324735 L8.39961543,12.4215479 L8.62723304,12.4215479 L9.3328476,13.6324735 L10.3525745,13.6324735 L9.38292348,12.1825494 C9.75925125,11.9716237 9.94741513,11.6734447 9.94741513,11.2880122 C9.94741513,10.6324735 9.49521483,10.3047042 8.59081422,10.3047042 L8.59081422,10.3047042 L7.5005259,10.3047042 L7.5005259,13.6324735 L8.39961543,13.6324735 Z M8.53008783,11.7455236 L8.3616508,11.7455236 L8.3616508,10.9852808 L8.53919253,10.9852808 C8.84723502,10.9852808 9.00125627,11.0998483 9.00125627,11.3289834 C9.00125627,11.6066768 8.84420012,11.7455236 8.53008783,11.7455236 L8.53008783,11.7455236 Z" id="CR" fill="#6B7A86" fill-rule="nonzero"></path>
        <path d="M10.1645643,4 L10.1645643,3.12722298 L8.62420862,3.12722298 L8.62420862,0 L7.54349727,0 L7.54349727,4 L10.1645643,4 Z M11.8690787,4 L11.8690787,2.49794802 L13.0674371,2.49794802 L13.0674371,1.63064295 L11.8690787,1.63064295 L11.8690787,0.867305062 L13.1686683,0.867305062 L13.1686683,0 L10.8047832,0 L10.8047832,4 L11.8690787,4 Z" id="LF" fill="#6B7A86" fill-rule="nonzero"></path>
    </g>
</svg>