<?xml version="1.0" encoding="UTF-8"?>
<svg width="16px" height="16px" viewBox="0 0 16 16" version="1.1" xmlns="http://www.w3.org/2000/svg" xmlns:xlink="http://www.w3.org/1999/xlink">
    <title>button_git_push</title>
    <g id="button_git_push" stroke="none" stroke-width="1" fill="none" fill-rule="evenodd">
        <path d="M11.2363297,2.74985928 C13.0020609,2.77151478 14.4201734,4.17022753 14.4146503,5.88466851 C14.4098226,7.36571041 13.3441428,8.60465173 11.9157012,8.92154148 L11.0643659,8.249 L11.235,8.249 L11.3798977,8.24354296 C12.603947,8.15673295 13.5730243,7.21365937 13.6585159,6.04320329 L13.6646502,5.88224531 C13.6686568,4.63842678 12.6744764,3.60585931 11.3955102,3.50730195 L11.2271322,3.49980289 L10.842797,3.49508928 L10.6221789,3.18034595 C9.8830982,2.12594158 8.57243389,1.5828419 7.26791745,1.79564871 C6.03538799,1.99671223 5.02817311,2.83654725 4.63509014,3.9652041 L4.57532939,4.15592784 L4.44165073,4.63491675 L3.94840295,4.69821746 C2.9751147,4.82312394 2.27665416,5.64967821 2.33930449,6.5807299 C2.39879632,7.46484271 3.12604911,8.17060417 4.03867773,8.24321453 L4.19241622,8.24937577 L4.76236585,8.249 L3.95671314,8.98893596 C2.69026757,8.87742196 1.67540343,7.88545836 1.59099672,6.63108342 C1.50141318,5.29977524 2.4906229,4.12915002 3.85293502,3.95431836 C4.27377258,2.44639979 5.56025887,1.31430657 7.14716551,1.05543322 C8.73407215,0.796559876 10.3310016,1.45827918 11.2363297,2.74985928 Z" id="Combined-Shape" fill="#6B7A86" fill-rule="nonzero"></path>
        <path d="M8,7.54243088 L11.6426079,10.6646662 C11.921438,10.9036635 11.9537289,11.3234455 11.7147317,11.6022756 C11.4996342,11.8532227 11.138101,11.9044731 10.8646782,11.7379847 L10.7771223,11.6743994 L8.66487304,9.86405126 L8.66494855,15.3933257 L7.33505145,15.3933257 L7.33497593,9.86215141 L5.22287766,11.6743994 C4.97193056,11.8894969 4.60681242,11.884851 4.36206927,11.6785037 L4.28526829,11.6022756 C4.07017078,11.3513285 4.07481667,10.9862104 4.28116398,10.7414672 L4.35739209,10.6646662 L8,7.54243088 Z" id="Path-Copy-5" fill="#6B7A86" fill-rule="nonzero"></path>
    </g>
</svg>