<svg xmlns="http://www.w3.org/2000/svg" width="16" height="16" viewBox="0 0 16 16">
  <g fill="none" fill-rule="evenodd">
    <path fill="#FFED9E" fill-rule="nonzero" d="M6.32713888,3.45683805 L7.00196857,4.5 L7.00196857,4.5 L12,4.5 C12.5522847,4.5 13,4.94771525 13,5.5 L13,11 C13,11.5522847 11.5522847,13 11,13 L2,13 C1.44771525,13 1,12.5522847 1,12 L1,4 C1,3.44771525 1.44771525,3 2,3 L5.48751093,3 C5.82675911,3 6.14287218,3.1719958 6.32713888,3.45683805 Z"/>
    <path fill="#D2AB34" fill-rule="nonzero" d="M6.32713888,3.45683805 L7.00196857,4.5 L7.00196857,4.5 L12,4.5 C12.5522847,4.5 13,4.94771525 13,5.5 L13,11 C13,11.5522847 11.5522847,13 11,13 L2,13 C1.44771525,13 1,12.5522847 1,12 L1,4 C1,3.44771525 1.44771525,3 2,3 L5.48751093,3 C5.82675911,3 6.14287218,3.1719958 6.32713888,3.45683805 Z M6.06343996,5.0433808 L5.38808282,4 L5.38808282,4 L2,4 L2,12 L11,12 C11.5522847,12 12,11.5522847 12,11 L12,5.5 L12,5.5 L6.9029263,5.5 C6.56377063,5.5 6.24773064,5.32809735 6.06343996,5.0433808 Z"/>
    <path fill="#F2D069" fill-rule="nonzero" d="M14.3014554,6.5 C14.8537401,6.5 15.3014554,6.94771525 15.3014554,7.5 C15.3014554,7.6697752 15.258231,7.83675526 15.1758549,7.98520662 L12.678793,12.4852066 C12.5024952,12.802916 12.1677393,13 11.8043935,13 L2.05966331,13 C1.50737856,13 1.05966331,12.5522847 1.05966331,12 C1.05966331,11.8068817 1.11558172,11.6178945 1.22066353,11.4558683 L4.1391301,6.95586826 C4.32350268,6.67158314 4.63929177,6.5 4.97812989,6.5 L14.3014554,6.5 Z"/>
    <path fill="#BE9331" fill-rule="nonzero" d="M14.3014554,6.5 C14.8537401,6.5 15.3014554,6.94771525 15.3014554,7.5 C15.3014554,7.6697752 15.258231,7.83675526 15.1758549,7.98520662 L12.678793,12.4852066 C12.5024952,12.802916 12.1677393,13 11.8043935,13 L2.05966331,13 C1.50737856,13 1.05966331,12.5522847 1.05966331,12 C1.05966331,11.8068817 1.11558172,11.6178945 1.22066353,11.4558683 L4.1391301,6.95586826 C4.32350268,6.67158314 4.63929177,6.5 4.97812989,6.5 L14.3014554,6.5 Z M11.8043935,12 L14.3,7.5 L4.97812989,7.5 L2.05966331,12 L11.8043935,12 Z"/>
  </g>
</svg>
