<svg xmlns="http://www.w3.org/2000/svg" width="16" height="16" viewBox="0 0 16 16">
  <g fill="none" fill-rule="evenodd">
    <path fill="#FFED9E" fill-rule="nonzero" d="M6.32713888,3.45683805 L7.00196857,4.5 L7.00196857,4.5 L13,4.5 C13.5522847,4.5 14,4.94771525 14,5.5 L14,12 C14,12.5522847 13.5522847,13 13,13 L2,13 C1.44771525,13 1,12.5522847 1,12 L1,4 C1,3.44771525 1.44771525,3 2,3 L5.48751093,3 C5.82675911,3 6.14287218,3.1719958 6.32713888,3.45683805 Z"/>
    <path fill="#D2AB34" fill-rule="nonzero" d="M6.32713888,3.45683805 L7.00196857,4.5 L7.00196857,4.5 L13,4.5 C13.5522847,4.5 14,4.94771525 14,5.5 L14,12 C14,12.5522847 13.5522847,13 13,13 L2,13 C1.44771525,13 1,12.5522847 1,12 L1,4 C1,3.44771525 1.44771525,3 2,3 L5.48751093,3 C5.82675911,3 6.14287218,3.1719958 6.32713888,3.45683805 Z M6.06343996,5.0433808 L5.38808282,4 L5.38808282,4 L2,4 L2,12 L13,12 L13,5.5 L6.9029263,5.5 C6.56377063,5.5 6.24773064,5.32809735 6.06343996,5.0433808 Z"/>
  </g>
</svg>
